<?xml version="1.0" encoding="UTF-8" standalone="yes"?>
<!-- Created with sK1/UniConvertor (http://sk1project.org/) -->
<svg xmlns="http://www.w3.org/2000/svg" xmlns:xlink="http://www.w3.org/1999/xlink"
  width="807pt" height="677pt" viewBox="0 0 807 677"
  fill-rule="evenodd">
<g>
<g>
<path style="stroke:none; fill:#000000" d="M 580 83C 574.8 84.5 470.6 114.9 348.5 150.4C 226.4 186 125.5 215.5 124.2 216C 118.6 218.4 117.3 213.1 154.9 342.3L 190 462.8L 190 527.2C 190 591 190 591.8 192.1 594.4L 194.1 597L 438.6 597C 681.7 597 683 597 685 595C 687 593 687 591.7 687 447.7C 687 317.9 686.8 302.2 685.4 300.2C 684 298.1 683.2 298 672 298C 661.7 298 659.9 297.8 659.2 296.2C 658.7 295.3 644.4 247 627.6 189C 596.1 81 595.8 79.9 591.1 80.1C 590.2 80.1 585.2 81.4 580 83zM 594.2 83.7C 595.8 85.5 608.3 127.1 607.5 127.9C 606.9 128.4 134.7 266 134.4 265.7C 134.3 265.6 131.4 255.9 128 244.2C 124.1 230.8 122 222 122.4 220.4C 122.9 218.5 124.3 217.7 129.8 216C 163.1 205.9 589 82.1 590.6 82.1C 591.7 82.0001 593.4 82.8 594.2 83.7zM 638.8 233.7C 648.9 268.3 657.1 296.8 657 297.2C 657 297.5 553.4 297.8 426.7 297.8C 300 297.8 195.5 298 194.3 298.4C 193.1 298.8 191.8 299.8 191.3 300.8C 190.9 301.7 190.3 336.9 190 378.9L 189.5 455.2L 168.6 383.4C 157.1 344 147.7 311 147.6 310.2C 147.5 309.1 205 291.9 383 240C 512.5 202.2 619 171.2 619.6 171.1C 620.1 171 628.8 199.2 638.8 233.7zM 683.4 300.6C 684.8 301.9 685 306 685 329.6L 685 357L 438.5 357L 192 357L 192 329.8C 192 305.9 192.2 302.4 193.7 300.8C 195.2 299.1 204.2 299 438.6 299C 658.4 299 682 299.2 683.4 300.6zM 684.8 476.2L 684.5 593.4L 682 594.7C 680 595.7 631.3 595.9 437.2 595.7C 198.6 595.5 194.8 595.5 193.4 593.6C 192.2 591.9 192 574.2 192 475.3L 192 359L 438.5 359L 685 359L 684.8 476.2z"/>
</g>
</g>
</svg>