<?xml version="1.0" encoding="UTF-8" standalone="yes"?>
<!-- Created with sK1/UniConvertor (http://sk1project.org/) -->
<svg xmlns="http://www.w3.org/2000/svg" xmlns:xlink="http://www.w3.org/1999/xlink"
  width="1374pt" height="870pt" viewBox="0 0 1374 870"
  fill-rule="evenodd">
<g>
<g>
<path style="stroke:none; fill:#00000" d="M 1062.5 83C 1057.4 85.6 1054.9 89.1 1054.2 94.6C 1053.6 100.5 1054.4 103.1 1058.5 108C 1060.5 110.4 1061.9 112.7 1061.7 113.3C 1061.6 113.8 1059 115.2 1056 116.3C 1048.9 118.9 1041.1 126.7 1038.6 133.5C 1037.6 136.2 1035.5 141 1034 144C 1027 157.6 1024 180.9 1027.4 195.3C 1031 210.7 1028.4 218.8 1018.3 223.6C 1011.7 226.8 1004.7 232.3 994.8 242.3C 986.4 250.8 979.1 255.9 966.5 262.2L 957.5 266.7L 946.6 264.8C 938.1 263.3 933.6 261.8 926.6 258.3C 921.6 255.8 916 252.6 914.1 251.2L 910.6 248.6L 905.5 254.3C 899.5 260.8 895 269.2 895 273.7C 895 277.5 900.9 285.8 911.9 297.3C 916.1 301.8 921.1 307.5 922.8 310C 929.6 319.4 938.6 322.7 955 321.7C 973.7 320.5 992.3 314 1005.4 304.1C 1009.1 301.2 1012.3 299 1012.4 299.2C 1012.5 299.4 1013.6 302.9 1014.9 307C 1018.4 318.1 1022.5 325.7 1028.8 332.2L 1034.4 338.1L 1028.7 343.3C 1017.9 353.3 1012.4 368.5 994.5 438.5C 989.7 457.3 988.9 461.5 989.2 467.7C 989.7 479 990.1 479.2 1007.9 478.4C 1037.5 477.1 1064.3 482 1077 491.1C 1079.7 493.1 1090.2 494.4 1111.5 495.5C 1122.2 496 1143.7 494.8 1147.2 493.5C 1151.8 491.7 1153.2 478.9 1150.5 462.8C 1147.3 443.5 1139.2 415.1 1131.8 397.1L 1128.7 389.7L 1130.8 378.1C 1135.1 355.2 1135.7 338 1132.9 318.3C 1131.9 311.3 1132 310.9 1135.2 303.8C 1138.2 297.1 1138.5 295.7 1138.4 287C 1138.4 279.7 1137.9 276.2 1136.2 272C 1133.8 265.9 1133.4 258.7 1135.1 249.7C 1137.2 238.3 1133.5 227.8 1123.6 217.2C 1118 211.3 1117.5 210.3 1117.6 206.5C 1117.7 203.8 1118.7 200.3 1120.4 197.3C 1126.9 185.6 1128.2 182 1128.7 174.2C 1129.6 160.2 1126 149 1115.2 132C 1109.9 123.6 1104.6 119.4 1094.9 115.9C 1090.1 114.1 1089.1 113.4 1089.6 112.1C 1090 111.2 1090.5 108.5 1090.7 106C 1091.4 97.0002 1084.9 90.0002 1075.8 90.0002C 1067.5 90.0002 1061.6 94.8002 1060.3 102.6C 1059.7 106.2 1059.7 106.2 1058.4 103.9C 1057.7 102.6 1057.1 99.3002 1057 96.6002C 1057 90.6002 1059.8 85.7001 1064.8 83.0002C 1069.7 80.4002 1067.6 80.4 1062.5 83zM 1068.9 147.7C 1072 149.8 1079.9 154.2 1086.5 157.5C 1099.8 164.2 1101 165.5 1101 173.6C 1101 180.4 1099 186.7 1094.9 192.6C 1083.5 209 1079 219.9 1080.5 227.9C 1081.1 231.4 1081 231.3 1075.6 224.4C 1071.7 219.4 1067.8 215.8 1062.1 212.1C 1054.7 207.2 1054.1 206.6 1055.2 204.7C 1056 203 1056 202.5 1054.9 202.2C 1054.1 201.9 1050.9 199.2 1047.8 196C 1043.6 191.7 1041.8 188.9 1040.6 184.9C 1038.8 178.8 1038.5 169.4 1040.1 165.3C 1041.2 162.2 1056.4 146.3 1059.5 145C 1062.6 143.7 1062.9 143.8 1068.9 147.7z"/>
<path style="stroke:none; fill:#ff0000" d="M 695 86C 693.2 86.6 694.2 86.8 698.9 86.9C 702.4 87 705.1 86.8 704.9 86.6C 703.9 85.7 697.2 85.3 695 86z"/>
<path style="stroke:none; fill:#000000" d="M 674.8 87C 672.2 87.3 669.7 88 669.3 88.4C 668.5 89.3 678.9 88.4 679.8 87.5C 680.8 86.5 679.5 86.4 674.8 87z"/>
<path style="stroke:none; fill:#000000" d="M 718 87.9C 720.2 89.1 729 90.1 729 89.1C 729 88.2 723.2 87 719 87C 717.1 87.1 716.9 87.2999 718 87.9z"/>
<path style="stroke:none; fill:#ba0e0e" d="M 650 92.2C 645.1 93.6 643.5 95.4 648 94.5C 652.3 93.6 656 92.2 656 91.5C 656 90.8 654.1 91 650 92.2z"/>
<path style="stroke:none; fill:#000000" d="M 741 91.7C 741 92.3 742.8 93.2 745.1 93.9C 747.4 94.6 749.8 95.4 750.6 95.7C 751.4 96 752 95.8 752 95.3C 752 94.7 750.2 93.8 747.9 93.1C 745.6 92.4 743.2 91.6 742.4 91.3C 741.6 91 741 91.2 741 91.7z"/>
<path style="stroke:none; fill:#000000" d="M 628 100.3C 622.5 102.9 622.5 102.9 623.2 103.5C 623.5 103.8 626.1 103 629.1 101.7C 632 100.4 634 99.1 633.5 98.8C 632.9 98.5 630.5 99.2 628 100.3z"/>
<path style="stroke:none; fill:#000000" d="M 764 99.8C 764 100.5 772.2 105 773.5 105C 774.5 105 773.9 103.2 772.8 102.7C 772.1 102.4 769.8 101.5 767.8 100.6C 765.7 99.7 764 99.3 764 99.8z"/>
<path style="stroke:none; fill:#000000" d="M 606.3 112.1C 603.9 113.8 602 115.5 602 116.1C 602 117.2 612 110.9 612 109.7C 612 108.4 610.6 109 606.3 112.1z"/>
<path style="stroke:none; fill:#000000" d="M 785 110.7C 785 111.9 795 118.2 795 117.1C 795 116.1 786.8 110 785.6 110C 785.3 110 785 110.3 785 110.7z"/>
<path style="stroke:none; fill:#000000" d="M 586.7 126.8C 581.6 132 582.1 132.9 587.5 128.3C 591.8 124.8 593 123 591.2 123C 590.8 123 588.7 124.7 586.7 126.8z"/>
<path style="stroke:none; fill:#000000" d="M 805 124.8C 805 126.1 813 133.3 813.7 132.6C 814.5 131.8 813.3 130.4 809 127C 806.8 125.3 805 124.3 805 124.8z"/>
<path style="stroke:none; fill:#000000" d="M 569.3 144C 566.1 147.6 565.2 149.5 566.8 148.8C 568.6 148.1 575.1 140 573.9 140.1C 573.1 140.1 571 141.9 569.3 144z"/>
<path style="stroke:none; fill:#000000" d="M 822 141.7C 822.1 143.1 829.7 151 830.3 150.3C 831 149.6 824.2 141 822.9 141C 822.4 141 822 141.3 822 141.7z"/>
<path style="stroke:none; fill:#000000" d="M 554.6 163.5C 553.1 166 552 168.4 552.4 168.7C 552.7 169.1 553.1 169.1 553.3 168.9C 555.1 166.3 559 159.9 559 159.5C 559 157.9 557.1 159.6 554.6 163.5z"/>
<path style="stroke:none; fill:#000000" d="M 543.2 184.5C 542 187 541 189.3 541 189.5C 541 190.5 542.8 189.9 543.3 188.7C 543.6 188.1 544.5 185.8 545.4 183.7C 547.7 178.4 545.8 179.1 543.2 184.5z"/>
<path style="stroke:none; fill:#000000" d="M 535.1 206.1C 534.4 208.4 533.6 210.8 533.3 211.6C 533 212.4 533.2 213 533.7 213C 534.3 213 535.2 211.2 535.9 208.9C 536.6 206.6 537.4 204.2 537.7 203.4C 538 202.6 537.8 202 537.3 202C 536.7 202 535.8 203.8 535.1 206.1z"/>
<path style="stroke:none; fill:#000000" d="M 529.6 229.7C 528.8 235.1 528.8 237.6 529.9 236.4C 531.1 235.1 532.2 226 531.1 226C 530.6 226 530 227.7 529.6 229.7z"/>
<path style="stroke:none; fill:#000000" d="M 854.3 235.6C 850.5 240.7 849.8 250.3 852.9 255.6L 855.1 259.3L 805.8 308.7L 756.4 358.1L 752 356.1C 749.5 355 745.9 354 744 354C 736.2 354 728.3 360.3 726.3 368L 725.4 371.5L 642.2 371.8C 564.7 372 559 371.9 559 370.3C 559 367.2 554.9 360 551.9 357.9C 547.8 355 547 356.3 550.9 359.6C 555.3 363.2 557 367 557 372.8C 557 381.3 550.9 387.9 542.1 388.8C 538 389.2 536.3 388.8 532.6 386.6C 527.9 383.8 524 377.6 524 372.7C 524 368.4 527 362.1 530.3 359.5C 532 358.2 533.2 356.8 532.8 356.5C 531.9 355.6 526.1 360.9 524.3 364.3C 522 368.9 522.2 377.1 524.9 381.6L 527.1 385.4L 480.7 431.8L 434.2 478.3L 430.1 476.6C 419.1 472.3 407.9 477.6 404.9 488.5L 403.9 492L 348.6 492L 293.2 492L 292.6 488.5C 291.9 485 286.7 478 284.8 478C 284.2 478 285.2 479.6 286.9 481.5C 293.5 489 293.1 498.3 285.9 505.2C 270.9 519.5 248.8 497.2 263 482C 266.6 478.2 266.2 476.6 262.6 480C 256.8 485.4 255.4 494.1 259.1 501.7L 261.2 506.1L 206.3 561.1L 151.4 616.2L 147.6 613.9C 143.1 611.2 134.9 611 130.3 613.3C 117 620.2 117 639.5 130.5 646C 139.3 650.3 150.5 646.7 154.6 638.3C 157.1 633.2 157 625.4 154.3 620.8L 152.2 617.3L 207.4 562.1L 262.5 507L 267.4 509.5C 273.6 512.7 276.3 512.6 282.8 509.4C 288.3 506.7 293 500.5 293 496.2L 293 494L 348.3 494L 403.7 494L 404.9 498C 405.5 500.2 407.4 503.6 409.1 505.5C 416.9 514.3 433.1 512.3 438.7 501.7C 441.3 496.8 441 488.4 438.1 483.6L 435.7 479.8L 482.2 433.3L 528.7 386.8L 532.8 388.9C 538.3 391.7 543.2 391.6 548.9 388.5C 554 385.7 557.6 381.1 558.6 376.2L 559.3 373L 642.2 373C 720.2 373 725.1 373.1 725.6 374.7C 728.6 384 733.7 389.3 741 390.5C 745.4 391.2 751 389.8 755.3 386.8C 761.9 382.1 764 371 759.6 363.4L 757.2 359.2L 806.9 309.8L 856.5 260.3L 860.5 262.6C 867.2 266.6 877.1 265.1 882.1 259.4C 886.2 254.7 888.4 247 886 245.5C 885.4 245.1 885.1 245.2 885.2 245.7C 885.3 246.1 885.1 248.4 884.7 250.6C 884.2 253.7 883 255.7 880 258.4C 875.4 262.5 872.6 263.4 866.5 262.8C 853.9 261.3 847.8 246 856.1 236.6C 859.2 233.1 859.6 232 858.1 232C 857.5 232 855.9 233.6 854.3 235.6zM 751.9 358.1C 761.9 364.2 763.3 375.9 755.1 384.1C 748.8 390.5 739.8 390.6 732.9 384.3C 726.6 378.6 725.6 370.8 730.2 363.2C 734.3 356.5 745.1 353.9 751.9 358.1zM 431.9 479.7C 436.2 483 438.3 486.7 438.8 491.9C 439.2 496 438.8 497.7 436.6 501.4C 428 516.1 406 509.9 406 492.7C 406 480.1 421.8 472.2 431.9 479.7zM 146 615.2C 152.2 618.4 155.2 623.7 154.7 630.8C 153.6 646.6 134.3 651.7 124.7 638.8C 121.6 634.6 121.4 626.5 124.2 621.5C 126.8 617 133.5 613 138.5 613C 140.2 613 143.6 614 146 615.2z"/>
<path style="stroke:none; fill:#000000" d="M 528.2 252.5C 528.2 254.1 528.4 254.7 528.7 253.7C 528.9 252.8 528.9 251.4 528.7 250.7C 528.4 250.1 528.2 250.8 528.2 252.5z"/>
<path style="stroke:none; fill:#000000" d="M 392 259C 390.9 259.7 392.4 260 396.8 260C 400.8 260 402.9 259.6 402.5 259C 401.7 257.7 394 257.7 392 259z"/>
<path style="stroke:none; fill:#000000" d="M 415 259.8C 415 260.6 422 262 425.9 262C 427.3 261.9 427.3 261.8 426 261.1C 423.7 259.8 415 258.8 415 259.8z"/>
<path style="stroke:none; fill:#000000" d="M 374.5 260.5C 374 260.7 371.8 261.1 369.7 261.5C 367.6 261.8 366.2 262.5 366.4 262.9C 367.1 263.9 378 261.9 378 260.8C 378 260 376.4 259.9 374.5 260.5z"/>
<path style="stroke:none; fill:#000000" d="M 439.3 264.6C 440.6 265.9 450.1 268.7 450.5 268C 450.8 267.5 448.9 266.5 446.3 265.6C 441.5 264 438.2 263.5 439.3 264.6z"/>
<path style="stroke:none; fill:#000000" d="M 347.3 267.8C 344.9 268.7 343 269.8 343 270.3C 343 271.3 345.9 270.5 351.5 268C 356.6 265.7 353.2 265.5 347.3 267.8z"/>
<path style="stroke:none; fill:#000000" d="M 462 272.8C 462 273.9 471.8 278.5 472.5 277.8C 473 277.3 463.9 272 462.6 272C 462.3 272 462 272.4 462 272.8z"/>
<path style="stroke:none; fill:#000000" d="M 326.8 277.6C 324.1 278.9 322 280.5 322 281.1C 322 281.6 324.2 280.9 327 279.3C 329.7 277.8 332 276.2 332 275.7C 332 274.8 332.3 274.7 326.8 277.6z"/>
<path style="stroke:none; fill:#000000" d="M 483 284.7C 483 286 492 292.3 492.8 291.6C 493.1 291.2 492.3 290.2 491 289.2C 485.7 285.4 483 283.9 483 284.7z"/>
<path style="stroke:none; fill:#000000" d="M 305.9 291.9C 300.2 297 301.1 298 307 293C 309.5 290.9 311.2 288.9 310.9 288.6C 310.6 288.2 308.3 289.7 305.9 291.9z"/>
<path style="stroke:none; fill:#000000" d="M 502 300.4C 502 301.6 510 309.3 510.6 308.7C 511.4 307.9 504.2 300 502.8 300C 502.4 300 502 300.2 502 300.4z"/>
<path style="stroke:none; fill:#000000" d="M 288.6 308.4C 286.4 310.9 284.9 313.3 285.2 313.5C 286 314.3 293.2 306.2 292.8 304.9C 292.6 304.2 290.8 305.7 288.6 308.4z"/>
<path style="stroke:none; fill:#000000" d="M 273.4 328.5C 270.2 334.1 270.9 335.7 274.2 330.3C 278.1 324.2 278.2 324 277.1 324C 276.5 324 274.9 326 273.4 328.5z"/>
<path style="stroke:none; fill:#000000" d="M 264 345.5C 264 345.7 263.1 348.2 262 351C 260.9 353.7 260.4 356 260.9 356C 261.7 356 262.6 354.1 265.7 346.2C 266 345.6 265.7 345 265.1 345C 264.5 345 264 345.2 264 345.5z"/>
<path style="stroke:none; fill:#000000" d="M 255.1 372.4C 253.8 377.8 253.7 379.3 254.9 378.6C 255.3 378.3 256 376.6 256.3 374.8C 256.6 373 257.1 370.7 257.5 369.7C 257.9 368.8 257.8 368 257.2 368C 256.7 368 255.7 370 255.1 372.4z"/>
<path style="stroke:none; fill:#000000" d="M 1031.8 659.7C 1029.9 661.8 1026.8 664.4 1024.9 665.5C 1022.5 667 1018.9 672 1011.3 684.5C 1005.7 693.8 1001.2 702.2 1001.3 703C 1001.8 706.4 1004.6 704.1 1009.1 696.6C 1011.7 692.3 1014.2 688.4 1014.8 687.8C 1015.4 687.2 1017.1 688.8 1019.6 692.2C 1023.4 697.4 1023.5 697.6 1023.4 706C 1023.4 710.7 1022.4 719.6 1021.1 725.8C 1019.9 732.1 1019.2 737.9 1019.5 738.9C 1021.1 744.2 1039 758 1044.1 758C 1046.3 758 1046.4 760.7 1045.3 777.2L 1044.7 787L 893.2 787.2C 772.9 787.4 741.6 787.8 741.2 788.8C 740.9 789.8 786.3 790 967.7 789.8C 1118.3 789.6 1194.4 789.2 1194.3 788.5C 1194.1 787.9 1177 787.3 1146.8 787C 1107.7 786.6 1099.9 786.3 1101.7 785.2C 1105.8 782.9 1108.1 776.1 1106.4 771.6C 1106.1 770.8 1103.7 768.7 1101 767C 1098.4 765.3 1095.1 762.3 1093.7 760.2C 1087.9 751.8 1083.9 739.1 1084.7 731.7C 1085.6 724.4 1083.3 715.4 1077.9 704.2C 1075.2 698.5 1072.5 691.3 1071.9 688.2C 1070.5 680.3 1070.2 679.6 1068.7 680.8C 1066.5 682.6 1061 683.2 1053.9 682.5L 1046.9 681.8L 1044.5 677C 1043.1 674.3 1040.6 668.6 1038.9 664.3C 1037.2 660 1035.7 656.4 1035.6 656.2C 1035.4 656.1 1033.7 657.7 1031.8 659.7zM 1047 716.5L 1044.9 722.5L 1045.5 717C 1045.9 714 1046.7 709.5 1047.3 707L 1048.5 702.5L 1048.8 706.5C 1048.9 708.7 1048.1 713.2 1047 716.5zM 1060.1 767C 1062.4 776.1 1064.6 784.3 1065.1 785.2C 1066 786.8 1065.4 787 1058.9 787L 1051.8 787L 1052.4 780.7C 1052.7 777.3 1053.3 768.2 1053.6 760.5C 1054.1 751.7 1054.6 747.2 1055.1 748.5C 1055.6 749.6 1057.8 757.9 1060.1 767z"/>
</g>
</g>
</svg>