<?xml version="1.0" encoding="UTF-8" standalone="yes"?>
<!-- Created with sK1/UniConvertor (http://sk1project.org/) -->
<svg xmlns="http://www.w3.org/2000/svg" xmlns:xlink="http://www.w3.org/1999/xlink"
  width="1384pt" height="903pt" viewBox="0 0 1384 903"
  fill-rule="evenodd">
<g>
<g>
<path style="stroke:none; fill:#000000" d="M 575.5 425.6C 567.2 427.7 563.9 429.4 559.7 433.9C 550.7 443.5 548.5 457.7 553 478.5C 559.3 508.1 560.2 514.6 560.3 527C 560.4 537.1 560 540.6 558.3 545.2C 557.2 548.4 556.5 551 556.8 551C 558.6 551 567.8 543.9 572.4 538.9C 579.2 531.5 582.3 526.4 586.5 515.2C 588.3 510.4 591 503.8 592.5 500.5C 594.9 495.2 595.3 493.2 595.4 483.4C 595.5 470.7 596.1 469.5 604 465.5C 610.3 462.3 614.7 457.3 616.5 451.5C 619.3 442.2 618.1 438.1 611.1 431.7C 606.9 428 605.2 427.4 593.5 426.6C 589.7 426.3 584.5 425.8 582 425.6C 579.5 425.3 576.6 425.4 575.5 425.6z"/>
<path style="stroke:none; fill:#000000" d="M 769.8 432.5C 767 434.1 765.4 437.2 766.6 439.1C 766.9 439.7 766.2 442.5 764.9 445.2L 762.5 450.2L 765.3 454.9C 774.2 469.9 775.6 477.8 772.1 495.1C 769.3 509.1 765.6 521.7 761.6 531.2L 758.3 538.9L 764.4 538.3C 770 537.8 771.2 538.1 776.9 540.9C 780.4 542.7 784.5 544.2 786 544.2C 787.5 544.3 791.3 542.7 794.6 540.6C 801.1 536.7 804 536.3 814.4 538C 818.1 538.6 820.9 538.6 822 538C 824.6 536.6 827.7 531.3 829.1 525.7C 830.7 519.2 829.2 514.4 823.5 507.9C 818.5 502.4 818.7 503.4 818.9 483.5C 819 475.1 818.6 469.9 817.5 466C 816.6 463 815.5 456.2 815 450.9C 814.5 445.6 813.6 440.2 812.8 439C 809.4 433.4 800.4 431 783.7 431C 775.9 431.1 771.7 431.5 769.8 432.5z"/>
<path style="stroke:none; fill:#000000" d="M 723.1 463.9C 720.9 466.1 720.3 469.5 722 470.5C 722.6 470.8 723 472.2 723 473.6C 723 475 724.7 479 726.7 482.6L 730.4 489L 731.9 486.3C 733.5 483.2 735.5 481.4 738.7 480C 740.9 479.1 740.9 478.9 735.2 470.8C 728.9 461.8 726.5 460.5 723.1 463.9z"/>
<path style="stroke:none; fill:#000000" d="M 758.6 555.3C 757.9 562 748.9 592.2 746.9 594.4C 746.4 595 746 597.6 746 600.2C 746 603.1 745.2 606.7 744 608.9C 741.8 613.2 739.6 625.2 740.5 628C 740.8 629 739.9 632.7 738.5 636.1C 735.7 643.1 734.4 649.1 733 662C 732.5 666.7 731.4 672.5 730.6 674.9C 729.7 677.3 729 680.3 729 681.7C 729 683 728.1 685.8 727 688C 725.9 690.2 725 692.8 725 693.9C 725 694.9 724.1 697.7 723 700.1C 721.9 702.5 721 705.7 721 707.1C 721 708.6 719.9 712.2 718.6 715.1C 717.2 718.1 715.6 724.1 715 728.5C 713.3 740.2 708.4 758.6 706 761.8C 704.9 763.3 703.4 767.9 702.6 772.2C 701.8 776.4 700.1 781.8 698.9 784.2C 697.4 787.1 696.6 790.5 696.5 794.9C 696.4 799.9 696 801.4 694.5 802.2C 693 803.1 692.8 803 693.3 801.1C 693.7 799.3 693.5 799.1 691.2 799.6C 685 801.1 682.1 805.2 685.3 807.9C 687.4 809.6 699.7 812.1 702.6 811.4C 704 811 705.8 809.7 706.7 808.4C 709 804.8 712.8 805.2 714.5 809.2L 715.8 812.5L 717.1 809.7C 717.9 807.9 719.1 807 720.7 807C 725.4 807 727 805.3 727 800.2C 727 796.9 730.2 785.5 737.9 762C 743.9 743.6 751.3 720.6 754.4 711C 757.5 701.4 762.1 689.4 764.5 684.5C 767 679.5 770.2 672.4 771.5 668.7C 775.5 657.7 778.2 652 779 652.5C 779.5 652.8 780.4 656.2 781 660.1C 782 665.7 782 668.9 781 674.7C 780 681.3 780.1 682.7 781.8 688.3C 782.9 691.7 784.4 698.6 785 703.5C 786.1 711.3 786 713.2 784.6 718C 783.7 721 782.3 730.9 781.5 740C 780.4 753.7 779.6 757.9 777.1 764.8C 773.7 774 773.2 780.5 775.1 792C 775.7 795.6 776.3 800.4 776.3 802.7C 776.4 805 777 807.4 777.6 808C 778.2 808.6 781.3 809.5 784.6 810C 788 810.6 791 811.7 791.7 812.6C 793.1 814.5 799.5 814 801.6 811.8C 802.3 811.1 804.2 805.5 805.8 799.5C 808.7 789 808.9 787.2 809.6 762.5C 810 748.2 810.2 729.3 810.1 720.5C 810 711.7 810.4 701.3 811 697.5C 811.6 693.6 812.5 684.2 813 676.5C 813.5 668.8 814.4 658.4 815 653.5C 815.5 648.5 816 639.5 816 633.4C 816 624.4 816.3 622.1 817.5 621.6C 818.4 621.3 819 619.8 819 617.7C 819 615.8 819.7 612.3 820.6 609.9C 822.9 603.4 827 585.9 827 582.6C 827 580.6 826.6 579.9 825.6 580.3C 824.8 580.6 821.8 580.2 818.8 579.4C 810.6 577.2 811 576.8 811 588.5C 811 598.3 810.1 601.3 808.5 597.2C 806 591.1 804.4 572 805.8 565.6L 806.7 561.2L 801.1 561.7C 794.2 562.3 774.8 559.7 769 557.4C 766.5 556.4 763.7 554.2 762 551.9L 759.3 548L 758.6 555.3z"/>
<path style="stroke:none; fill:#000000" d="M 556 600.2C 552 609.6 550 616.2 550 620.5C 550 622.8 553 636.3 556.6 650.6C 564.4 681.4 565.2 688.8 562.5 706.4C 559.6 725.5 561.3 744.9 567.8 767C 568.9 770.6 570.3 773.4 570.9 773.2C 571.5 773.1 570.8 775.4 569.4 778.2C 567.5 782 566.6 785.6 566.2 790.6L 565.8 797.8L 569.4 799C 571.5 799.6 575 800 577.3 799.8C 580 799.5 582.4 799.9 584 800.9C 586.8 802.7 592.3 802.8 610.8 801.3C 623.6 800.2 627.3 798.9 628.5 795C 629.5 791.7 626.7 789.4 620.9 788.7C 615.2 788 608.1 784.3 605.8 780.8C 603.5 777.3 604.9 771.1 612 752.5C 627.2 713 629.2 701.6 627.7 662.3C 627.3 652.8 627 644.8 627 644.5C 627 644.2 626 644.6 624.8 645.4C 620.3 648.6 613.6 646.2 617.6 642.9C 618.6 642.1 618.8 641.4 618 640.6C 616.5 639.1 616.8 638.2 619 637.5C 621.5 636.7 621.7 631.8 619.5 624.6C 618.7 621.9 618 618.2 618 616.5C 618 611.9 616 606.8 614.5 607.4C 613.6 607.7 612.9 606.6 612.3 604.2L 611.4 600.5L 603.3 600.8C 592.4 601.3 573 599.3 565.6 596.9C 562.2 595.9 559.2 595 558.9 595C 558.5 595 557.2 597.4 556 600.2zM 597 669.2C 599.2 673.8 601.9 681.3 603.1 685.9C 606 697.4 605.5 704.1 600.7 715.2C 595.1 728.2 592.1 741.3 591 757.6C 590.5 765.4 589.6 772.8 589.2 774.1C 588.3 776.4 588.2 776.3 586.2 772C 583.3 765.8 581.8 753.2 581.7 736C 581.7 723.4 582 720.9 583.8 717C 586.1 711.9 588 699.2 588 688.4C 588 682.3 589 675.3 591.6 663.2C 591.8 662 592.3 661 592.6 661C 592.9 661 594.9 664.7 597 669.2z"/>
<path style="stroke:none; fill:#000000" d="M 478.4 772.5C 478.3 773 478.2 779.1 478.3 785.9C 478.5 796.6 478.7 798.4 480.3 799.4C 482.8 800.9 485.3 797.6 484.6 793.6C 484.3 792 484 786.4 484 781L 484 771.2L 481.4 771.4C 479.9 771.4 478.6 771.9 478.4 772.5z"/>
</g>
</g>
</svg>