<?xml version="1.0" encoding="UTF-8" standalone="yes"?>
<!-- Created with sK1/UniConvertor (http://sk1project.org/) -->
<svg xmlns="http://www.w3.org/2000/svg" xmlns:xlink="http://www.w3.org/1999/xlink"
  width="1417pt" height="1034pt" viewBox="0 0 1417 1034"
  fill-rule="evenodd">
<g>
<g>
<path style="stroke:none; fill:#00000" d="M 460.8 305.1C 465.2 308 468 313.7 468 319.9C 468 325.5 466.4 327.6 465.4 323.3C 463.7 315.1 459.9 310.9 452.9 309C 436.7 304.6 424.9 324.9 436.5 337L 439 339.6L 436.7 344C 432.1 353.4 434.8 368.2 443.5 379.9C 449.5 388.2 458 390.2 461.7 384.2C 462.6 382.7 464.8 379.2 466.6 376.4C 468.6 373.5 470 370.1 470 368.3C 470 364.7 472.2 362.5 475.1 363.3C 478.7 364.3 496.5 351.6 497.6 347.4C 499.5 340 488.6 330.7 475.1 327.9L 469.4 326.7L 470.4 322C 471.2 317.8 471 316.7 468.9 312.4C 466.7 307.9 461.3 303 458.6 303C 458 303 459 304 460.8 305.1z" id="header"/>


<path style="stroke:none; fill:#00000;" d="M 443.1 394.5C 434.6 406.3 432.5 416.3 434 437.3C 435.7 461.6 439.9 481 448.2 503.3L 452.3 514.1L 447.7 523.8C 442 536 438.5 547.3 437 557.9C 435.6 567.9 436.3 574.7 439.7 586.2L 442.3 594.9L 435.4 691.2C 429.4 774.7 428.3 787.7 426.8 789.2C 425 791 420 806.1 420 809.8C 420 812.8 420.8 813 446.3 817.5L 468 821.3L 470.6 818.9C 472.4 817.2 473 815.7 472.8 813.5C 472.6 811.1 471.4 809.8 466.1 806.3C 458.1 801.1 447 790.2 447 787.6C 447 785.3 485.7 609.5 486.8 606.7C 487.4 605.3 492.2 611.2 508.2 632.8C 519.6 648.1 529.6 662 530.4 663.6C 531.8 666.2 556.6 788 555.8 788.3C 552.2 790.1 551.3 791.6 548.6 800.5C 545.6 810.2 545.6 810.3 547.6 811.9C 548.9 812.9 557.8 814.9 571.8 817.4C 592.7 821 594.2 821.1 596.5 819.6C 598.3 818.4 599 817.1 599 814.7C 599 810.5 598.5 810 591.7 805.7C 585.2 801.5 577.9 795.1 574.8 790.7C 572.7 787.8 572.6 785.9 571 721.1L 569.4 654.5L 541.6 583.2C 526.3 543.9 514.1 511.6 514.4 511.3C 514.8 510.9 546.9 533.4 560.6 543.7L 563.7 546L 568.4 534.9C 570.9 528.8 573 523.2 573 522.5C 573 521.8 560.7 513.4 545.6 504C 521.1 488.5 518.2 486.4 517.2 483.4C 516.4 480.6 516.5 480 517.6 480C 518.4 480 531.2 482.7 546 486C 571.9 491.8 573.2 492.2 576.4 495.4C 581.9 500.8 592.7 502.5 602.6 499.5C 608.1 497.8 634.5 497.4 635.4 498.9C 635.7 499.4 648.1 557.1 662.9 627.1C 677.8 697.2 690.4 756.9 691 759.8L 692.2 765L 705.7 765L 719.3 765L 715.3 767.9C 707 773.9 703.4 787.6 707.5 797.8C 709.6 803 717.4 810.2 722.8 811.8C 743.1 817.9 760.9 800 754.8 779.6C 754 777.1 751.6 773.5 748.5 770.2L 743.4 765L 826.8 765L 910.3 765L 906.3 767.9C 900.4 772.1 897 779.6 897 787.9C 897 796.3 899.3 801.3 905.3 806.6C 913 813.4 923.3 814.9 932.6 810.6C 949.5 802.7 952.3 779.2 937.5 768L 934.2 765.5L 945.8 765L 957.5 764.5L 957.8 761.5C 958 759.8 959.5 757.1 961.1 755.4C 964 752.4 964.8 748.8 986.1 649.4C 1000.1 583.5 1007.9 545.4 1007.5 543.4C 1007.2 541.7 1005.6 539 1003.9 537.4L 1000.9 534.5L 828 534.2L 655.2 534L 654.7 531.7C 654.4 530.5 652.3 520.7 650 510C 647.7 499.3 645.7 489.7 645.4 488.7C 644.9 487.2 643.2 487 627.5 487C 610.7 487 610 486.9 606.5 484.6C 602.2 481.7 595.9 480.5 588.4 481.3L 583 481.9L 583 474.9C 583 471.1 582.6 468 582.2 468C 581.7 468 567.2 465.7 549.9 463L 518.5 457.9L 513.2 452.2C 505 443.3 503.4 440.5 498.6 425.5C 493.9 410.9 491.3 406.7 485 404C 483.6 403.4 480.3 401.2 477.5 399C 469.9 392.9 465.6 391.3 455.4 390.6L 446.4 390L 443.1 394.5zM 715.4 540.2C 715.7 542 717.3 554.1 719 567C 720.7 579.9 722.3 591.5 722.5 592.7L 723 595L 695.5 595L 668 595L 667.5 592.7C 666 586.4 656 538.6 656 537.8C 656 537.4 669.2 537 685.4 537L 714.8 537L 715.4 540.2zM 828 566.7L 828 596.3L 777.4 595.7C 749.6 595.4 726.6 594.9 726.3 594.6C 726 594.3 724.3 582.9 722.4 569.3C 720.6 555.7 718.8 542.8 718.5 540.7L 718 537L 773 537L 828 537L 828 566.7zM 936 537.7C 936 538.2 934.4 551.4 932.3 567.3L 928.6 596L 880.1 595.8L 831.5 595.5L 831.2 566.2L 831 537L 883.5 537C 912.4 537 936 537.3 936 537.7zM 1001.3 539C 1002.7 540.1 1004.1 542.3 1004.4 543.8C 1004.7 545.3 1002.7 557.1 999.7 571L 994.4 595.5L 963.2 595.8C 938.6 596 932 595.8 932 594.8C 932 594.1 933.6 580.8 935.7 565.2L 939.4 537L 969 537C 997.3 537 998.9 537.1 1001.3 539zM 723.4 600.2C 724 602.8 728.7 638.7 729.6 647C 730.2 652.7 732.8 671.7 735.5 690.4C 736.4 696.3 737 701.3 736.8 701.5C 736.6 701.6 726.2 701.9 713.6 702.1L 690.7 702.5L 679.9 651.5C 673.9 623.4 669.1 599.9 669 599.2C 669 598.3 675 598 696 598L 723 598L 723.4 600.2zM 793.3 599L 828 599L 828 649.8L 828 700.7L 808.3 701.3C 781.8 702.2 740 702.2 740 701.2C 740 699.3 735.9 668.3 729.6 622.2C 727.8 609.4 726.6 598.7 726.9 598.3C 727.3 598 734.5 598 743 598.4C 751.5 598.7 774.1 599 793.3 599zM 928 600.2C 928 600.9 927.1 607.8 926 615.5C 923.6 632.2 919.9 660.1 917 683.5C 915.8 692.8 914.8 700.5 914.7 700.6C 914 701.3 833 701.3 832.4 700.7C 831.9 700.2 831.4 677.2 831.2 649.4L 830.8 599L 879.4 599C 917.6 599 928 599.3 928 600.2zM 993 600.5C 993 601.9 980.7 660.5 979 667C 978.5 668.9 977.4 674.3 976.5 679C 975.6 683.7 974.2 690.5 973.4 694.1L 971.9 700.7L 944.9 700.8L 917.8 700.9L 918.5 695.7C 918.9 692.8 920 684.4 921.1 677C 922.9 664.3 924 656.4 929.1 615.7L 931.3 599L 962.1 599C 988.6 599 993 599.2 993 600.5zM 913.7 707.2C 913.3 709 911.9 720.1 910.3 731.7L 907.6 753L 869.9 753L 832.3 753L 831.6 746.9C 830.8 739 830.8 722.4 831.6 712.7L 832.3 705L 870.4 704.7C 891.4 704.6 909.8 704.4 911.4 704.2C 914.1 704 914.2 704.2 913.7 707.2zM 971 704.7C 971 707.4 961 751.4 960.2 752.2C 959.3 753.1 913.1 753.4 912.1 752.5C 911.7 752 916.8 708 917.6 705.2C 917.9 704.3 924.1 704 944.5 704C 959.1 704 971 704.3 971 704.7zM 738.3 712C 738.8 715.6 740 725.2 741.1 733.3C 742.1 741.4 743 749.2 743 750.5L 743 753L 722.2 753L 701.4 753L 696.7 730.7C 694.1 718.5 692 707.9 692 707.3C 692 706.1 709.5 705.3 731 705.5L 737.5 705.5L 738.3 712zM 828 729L 828 753L 787.7 753L 747.3 753L 746 742.7C 745.3 737.1 743.9 727.3 742.9 721C 741.9 714.7 741 708.5 741 707.3L 741 705.2L 784.5 705.1L 828 705L 828 729z"/>



	
<path style="stroke:none; fill:#000000" d="M 557.5 283C 529.5 284.7 525 285.2 521.1 287C 518.8 288.1 513.4 289.5 509.3 290C 501.9 291 496.1 292.9 500.5 293C 502.3 293 502.2 293.2 499.8 295.3C 498.3 296.5 497 298.4 496.8 299.5C 496.5 301.4 497.2 301.5 507.2 302C 517.1 302.5 518.2 302.7 520.5 305.1C 522.5 307 523.2 308.9 523.5 312.6C 523.6 315.3 524.1 318.8 524.5 320.3C 525.1 322.6 524.7 323.8 522.3 326.8C 516.4 334.2 515.9 336.5 518.6 346.2C 521 354.5 524.2 357 532.6 357C 540.5 357 543 355.1 543 349.1C 543 342.8 545.7 340.5 557.1 337C 562.6 335.3 571.6 331.7 577.1 329C 583.8 325.7 588.9 323.9 592.8 323.5C 595.9 323.1 599.3 322.6 600.2 322.4C 603 321.6 603.4 318.1 601.1 314.9C 597 309.4 597.9 308.5 609.1 306.5L 619.2 304.8L 618.5 300.3C 617.9 296.2 618.1 295.7 621.4 292.6C 625.5 288.9 625.9 286.2 622.9 283.4C 621 281.7 619 281.5 605.1 281.3C 596.5 281.3 575.1 282 557.5 283z"/>
<path style="stroke:none; fill:#000000" d="M 491 283.9C 488 284.9 483.2 286.9 480.3 288.3C 473.5 291.8 471.1 291.7 467.7 287.9C 465.3 285.1 464.6 284.9 461.3 285.5C 457.6 286.2 448.9 288.9 448.1 289.6C 447.9 289.8 448.9 291.3 450.4 293C 452.1 295.1 453 297.3 453 299.6C 453 303.6 455.4 305 462 305C 465.7 305 469 302.5 470.3 298.7C 470.5 298 473.5 297.3 477.6 297C 483.9 296.5 484.6 296.3 485.8 293.8C 487.6 290 489.1 289.4 500 288C 510.6 286.7 516.1 285.1 516.8 283.2C 517.4 281.2 497.8 281.7 491 283.9z"/>
<path style="stroke:none; fill:#000000" d="M 695.4 287.4C 684.1 289.6 680.2 294.4 688.8 295.5C 694.9 296.3 696.4 297.2 696.8 300.2C 697.3 304.8 704.9 304.5 706 299.9C 706.3 298.5 708.1 296.8 710.2 295.6C 716 292.6 716.3 289 710.8 287.1C 707 285.8 703.3 285.8 695.4 287.4z"/>
<path style="stroke:none; fill:#000000" d="M 782 287.1C 765.5 289.7 762.9 290.3 763.7 291C 764.1 291.4 767.4 292.3 771 293C 783.2 295.3 783.4 295.3 785.4 293.1C 786.5 291.9 787.9 291 788.5 291C 789.2 291 790.3 290.3 791.1 289.4C 792.1 288.1 792.1 287.7 790.9 286.9C 789.3 285.9 789.5 285.9 782 287.1z"/>
<path style="stroke:none; fill:#000000" d="M 410 294C 409.5 295 409.4 296 409.7 296.4C 410.8 297.5 415.7 297 416.8 295.7C 417.6 294.8 417 294.2 414.4 293.4C 411.4 292.4 410.8 292.5 410 294z"/>
<path style="stroke:none; fill:#000000" d="M 870.5 293.9L 867.6 294.5L 870.4 296.8C 872.4 298.3 874.6 299 877.6 299C 882.5 299 883.3 300.5 880 303.5C 878.6 304.8 875.4 305.5 868.3 306.1C 856 307.2 835.8 311.2 835.3 312.7C 835.1 313.3 836.9 316.1 839.4 318.9C 844.1 324.1 844.4 326.4 840.9 327.5C 838 328.5 834.2 325.5 831.8 320.5C 828.6 314 822.6 311.9 821.3 316.9C 820.9 318.4 819.5 318.9 813.4 319.4C 804.2 320.2 790.9 324 783 328C 776.1 331.5 771.6 331.9 769.8 329.1C 768.7 327.3 768.5 327.5 765.8 331.1C 763 335.1 758.5 338 755.3 338C 753 338 745.6 333.1 746.5 332.2C 746.9 331.8 749.5 331 752.3 330.5C 757.2 329.6 757.5 329.3 757.3 326.6C 757 322.9 753.7 319.4 749.1 317.8C 746.8 317 739.3 316.6 728 316.5L 710.5 316.5L 700.5 321.1C 690.6 325.6 690.5 325.7 687.6 331.5C 685.8 335 681.7 340.2 677.2 344.6C 670.4 351.4 669.9 352.1 670.2 355.7L 670.5 359.5L 676.8 359.2C 683.9 358.8 687.6 360.4 688.2 364.2C 688.5 366.2 689.2 366.5 693.9 366.8L 699.3 367.1L 698.7 363.6C 698.4 361.6 698.5 360 699.1 360C 699.6 360 700.9 359.1 702 358C 704.9 355.1 704.5 351.3 701 348.2C 699.4 346.7 698 345.1 698 344.5C 698 343.9 701.6 341.5 706 339.1C 711.8 336 714.8 335 716.5 335.4C 719.6 336.2 720.7 340.3 719.1 344.4C 716.4 351 716.2 350.6 725.4 353.6C 730.1 355.2 734 356.7 734 357.1C 734 358.2 728 360 724.1 360L 720.4 360L 720.8 364C 721.1 367.3 720.9 368 719.5 368C 718.5 368 716.2 369.3 714.3 371C 711.6 373.4 710 374 706.3 374C 703.8 374 699.3 374.8 696.4 375.7L 691 377.4L 685.6 373.6C 679.4 369.3 677 369.3 675.9 373.4C 674.8 377.2 672.3 379.9 668.6 380.8C 666.3 381.4 665 382.8 663 386.5C 659.9 392.6 655.8 395 645 397.4C 640.6 398.3 637 399.6 637 400.1C 637 400.7 638.2 402.7 639.7 404.7C 645.8 412.6 642 420.8 631.8 421.8C 625.5 422.3 624 423.3 624 426.9C 624 429.6 624.3 429.7 636.9 432.5C 651.8 435.7 651.1 435.9 656.4 427.1C 660.8 420 664.8 417.6 672 417.6C 681.9 417.6 691.4 425.1 696.1 436.6C 697.4 439.6 698.9 442 699.6 442C 701.6 442 705 437 705 434.1C 704.9 430.4 703.2 427.8 697.8 423C 694.1 419.8 693 418.1 693 415.9C 693 414.3 693.2 413 693.5 413C 694.5 413 712.6 423.3 714.4 424.9C 715.9 426.2 716.1 427.4 715.6 432.1C 715 437.2 715.2 438.1 717.5 440.8C 720.2 444 724 445.5 727.2 444.4C 728.9 443.9 729.1 443.2 728.6 440.2C 726.6 427.9 726.6 428.3 729.1 426.7C 730.4 425.9 733.1 424.9 735 424.6C 740.8 423.6 741.3 422.8 741.1 416.1C 741 410.4 741.1 409.9 743.5 408.8C 745.4 408 746.9 408 749.9 408.8C 755.9 410.7 759.5 410.3 762.9 407.4C 767.5 403.6 769.6 404.5 769.2 410.2C 768.9 414.8 769 415 772.9 417C 775.1 418.1 777.4 419.9 778 421C 779.6 424 777.3 428.1 772.8 430.3C 769.4 432 768.2 432 755.1 430.8C 736.9 429 733.8 430.2 737.4 437.6C 739.2 441.4 743.9 444 748.8 444C 750.4 444 762.2 439.8 775.1 434.6C 802.5 423.7 835.7 411.1 866.5 400.1L 888.5 392.3L 889.1 388.1C 890.1 380.3 897.3 375.6 904.5 378C 909.5 379.7 912 383.3 912 389C 912 394.7 909.5 398.3 904.4 400C 899.9 401.5 896.9 400.7 892.5 396.9L 889 393.8L 882.2 397.8C 863.1 409.2 843.3 425.7 814.8 454.2C 802.8 466.2 793 476.3 793 476.8C 793 477.3 797.9 479.5 803.9 481.7L 814.8 485.6L 813.8 483.1C 812.8 480.3 813.5 474.4 815 473.5C 815.5 473.2 819.1 474.5 823 476.5C 827 478.5 836.1 481.7 843.3 483.6C 869.7 490.7 878 494.7 884.2 503.5C 887.8 508.6 890.3 509.2 892.3 505.4C 894 502.1 894.3 502.5 896.5 512.3C 897.5 516.5 898.8 520.6 899.4 521.4C 900 522.1 907.6 526.4 916.3 530.9L 932 539L 932 531.3C 932 521.7 934 516.9 940.1 511.6C 952.7 500.7 960.1 502.4 968 518C 971.7 525.4 975.4 528.4 979.7 527.7C 982.8 527.2 983 527.3 984 531C 984.6 533.1 985.5 537.5 986.1 540.7C 988.5 554.8 990.4 561.9 993.3 567.3C 996.1 572.7 1001 578 1003.1 578C 1005.1 578 1003.8 573.1 1000.4 567.4C 993.7 556.6 993.5 556 993.5 547.5C 993.5 540 993.6 539.5 995.7 539.2C 997.2 539 999.7 540.6 1003.9 544.4C 1010.9 550.8 1013.8 551.4 1017.5 547.4C 1021.6 543 1020.9 538.1 1015 528C 1009.1 517.8 1008.4 512.5 1012.5 508.5C 1013.8 507.1 1016.1 506 1017.5 506C 1020 506 1020 506.1 1020 514.1C 1020 521.1 1020.2 522.1 1021.6 521.6C 1022.5 521.3 1023.3 521 1023.4 521C 1023.6 521 1023.5 519.9 1023.3 518.6C 1022.9 516.5 1024.8 514.1 1035.1 503.8C 1050.3 488.6 1055.1 482 1055.8 475.1C 1056.2 471 1055.8 469.3 1053.8 465.8C 1052.4 463.4 1051 459.9 1050.7 458C 1050.1 454 1044 443.4 1040.9 440.8C 1039.8 439.9 1038.2 439.4 1037.5 439.7C 1035.7 440.3 1035.4 435 1037 431.9C 1038.1 430 1038.1 430 1040.8 432C 1042.3 433 1045.7 434.4 1048.4 435C 1056.3 436.7 1058.7 438.5 1062 444.9C 1063.6 448.2 1065.8 451.1 1066.9 451.5C 1071.2 452.8 1075.1 448 1073.5 443.1C 1073.2 442 1070.9 438.5 1068.4 435.3C 1063.5 429.1 1062.2 425.5 1063.7 423.2C 1064.7 421.5 1065.3 421.2 1071.4 418.6L 1075.2 416.9L 1074.9 404.5L 1074.5 392.1L 1078 395.3C 1079.9 397 1083.6 400.5 1086.2 402.9C 1091.5 407.9 1092.7 407.3 1091.2 400.2C 1089.1 391.2 1082.5 383.7 1073 379.8C 1071.1 379 1066.1 377.5 1062 376.5C 1049.3 373.5 1047.6 369.5 1057 364.8C 1061 362.8 1064.9 361.7 1071.2 361.1C 1080.6 360.2 1085 358.2 1085 355C 1085 352.6 1085.8 352.5 1088.2 354.7C 1089.9 356.2 1090.2 356.2 1093.3 354.5C 1097.4 352.3 1099.7 352.8 1102.2 356.1C 1104.8 359.5 1104.9 366.2 1102.4 372.9C 1100.1 379.4 1100.7 380.6 1108.7 384.5C 1112.1 386.1 1116.2 388.7 1117.7 390.2C 1121.5 393.8 1122.7 393.7 1124.7 389.5C 1126.3 386.2 1126.3 385.7 1124.7 380.7C 1123.8 377.7 1121.2 372.6 1119.1 369.2C 1116.9 365.9 1115.4 362.9 1115.7 362.6C 1116 362.3 1118.8 362.3 1122 362.7C 1127.5 363.2 1127.7 363.1 1130.1 360.1C 1136 352.3 1138.4 349.9 1140.6 349.4C 1141.9 349.1 1143 348.2 1143 347.6C 1143 345.5 1138.7 342.3 1134.2 340.9C 1131.9 340.2 1129.4 339 1128.7 338.2C 1127.7 336.9 1128 336.8 1131.5 337.3C 1145.1 339.4 1146 339.4 1146 337.2C 1146 333.6 1140.4 330.2 1128.7 326.5C 1113.7 321.9 1102.5 320 1084.5 319.4C 1073 319 1067.5 318.3 1060.8 316.4C 1053.8 314.5 1050 314 1041.8 314.2C 1033.2 314.3 1030.5 314 1025.5 312.1C 1002.5 303.3 998.4 302.6 992 305.8C 989.6 307 988.6 308.1 988.8 309.3C 989 310.3 988.4 312.2 987.5 313.6C 985.3 317 979.7 316.8 970.7 312.9C 962.5 309.3 958.9 309 943.1 310.8C 937.4 311.5 929.3 312 925.1 312C 912.4 312 910.8 310.8 915.5 304.6C 916.9 302.8 918 300.8 918 300.2C 918 298.7 908.4 295.3 900.8 294C 894 292.9 875.4 292.8 870.5 293.9z"/>
<path style="stroke:none; fill:#000000" d="M 387.8 297.7C 382.4 301.1 383.1 304.1 389.1 303.3C 391.3 303 394.9 303.3 397 304C 400.2 305.1 401.2 305.1 402.5 304C 405.1 301.8 404.3 299.1 400.4 297.5C 395.7 295.5 391.2 295.6 387.8 297.7z"/>
<path style="stroke:none; fill:#000000" d="M 799.9 298.4C 791.4 301.4 782.3 309.3 783.4 312.8C 784.1 314.9 795.6 320.7 796.8 319.5C 797.2 319.2 796.7 317.5 795.7 315.9C 792.2 309.7 793.7 307.7 802.8 306.5C 810.3 305.5 813 302.2 809.4 298.6C 807.5 296.7 804.8 296.6 799.9 298.4z"/>
<path style="stroke:none; fill:#000000" d="M 364.7 306.4C 359.7 308.2 356.5 311.1 358.2 312.2C 358.9 312.6 361 313 362.8 313C 366.1 313 366.1 313.1 365.8 316.7C 365.5 320.7 366.6 321.7 373.5 323.7C 375.5 324.3 376.5 325.2 376.5 326.5C 376.5 328.2 375.7 328.5 371.3 328.8C 367.3 329 363.4 328.2 354.1 325C 340.7 320.3 336.3 320.1 322 323.4C 313 325.5 307.9 325.1 289 320.7C 270.7 316.5 256.3 316.4 244.6 320.2C 235.1 323.4 232 326 232 330.8L 232 334.2L 224.6 333.8L 217.3 333.5L 218.7 335.7C 221.4 339.7 220.1 341.2 212 343.1C 203.8 345 195 348.5 195 349.7C 195 350.1 195.9 351.6 197 353C 198.1 354.4 199 355.8 199 356.1C 199 356.5 196.8 358.2 194 360L 189 363.2L 191 365.7C 192.1 367.1 193 369.1 193 370.2C 193 372 193.4 371.9 196.8 369.3C 202.2 365 203.3 364.8 210.5 367.1C 214.1 368.2 218 368.8 219 368.5C 221.3 367.8 223.4 364.4 222.5 363C 221.5 361.4 238.4 357.7 252.7 356.5C 260.2 355.9 260.9 356 261.9 357.8C 262.5 359 263 361 263 362.4C 263 363.8 263.5 365.2 264 365.5C 264.6 365.8 265 367 265 368.2C 265 369.3 266.4 371.8 268 373.7C 271.1 377.2 271.7 379.4 270 380.5C 267.9 381.8 269.2 385 273.1 388C 275.8 390.2 277 391.9 276.8 393.3C 276.3 396.5 274.7 396.2 272 392.5C 270.6 390.6 269.2 389 268.8 389C 268.4 389 267.3 390.4 266.5 392C 265 394.9 265 395.2 267.1 398.2C 270.1 402.3 270.8 410.5 268.6 414.8C 267.7 416.6 263.9 420.3 260.1 423C 251.5 429.2 250.6 431.3 251.2 443.2C 251.6 451.8 252 453.4 256.9 464.5C 263.7 479.8 271.9 494.9 274.2 496.1C 275.2 496.6 276 496.7 276 496.3C 276 495.9 274 490.1 271.5 483.5C 269 476.9 266.7 470 266.4 468.3C 265.8 465 265.8 465 268.8 466.1C 271.3 467 272 467.9 272.8 471.4C 273.7 475.8 295.6 515.8 299.3 519.7C 300.4 521 302.8 522.2 304.6 522.6C 306.4 522.9 309.3 524.3 311.1 525.6C 313.9 527.7 315 527.9 320.2 527.3C 325.6 526.8 326.3 526.9 328.8 529.3C 330.9 531.3 333.2 532.2 338 532.8C 345.1 533.8 345.9 534.5 352 544.5C 356.5 552 362.5 556 369.1 556C 375 556 378.9 557.7 379.5 560.4C 380.8 566.9 381 575.2 379.9 577.2C 379.3 578.5 376.3 582.1 373.4 585.2C 368.8 590 368 591.4 368 594.7C 367.9 596.8 367.3 599.6 366.5 601C 365.7 602.4 365.1 605.1 365 607C 365 609.9 365.9 611.2 370.9 616C 378.1 622.8 379 624.4 379 631.2C 379 641.4 384.6 649.2 397.2 656.4C 403.4 660 403.7 660.5 405.4 668.6C 406.2 672.5 408.7 679.4 410.9 684C 415.9 694.3 416.1 698.2 412 708.4C 405.1 725.8 406 738.1 414.9 752.8C 416.9 756 418.3 760.3 419.4 766.2C 420.5 773 421.8 776.5 424.9 781.8C 427.2 785.5 429 789.8 429 791.3C 429 795 434 800.3 439.7 802.8C 448.5 806.5 462.5 809.5 465.7 808.4C 470.5 806.8 469.7 804.6 463.8 803.2C 456 801.4 450 797.3 447.2 791.9C 445 787.5 444.9 787 446.2 781L 447.4 774.8L 444.7 772.8C 441.3 770.3 441.3 768.3 444.7 761.8C 447.3 756.8 447.3 756.6 445.6 753.6C 444.3 751.3 444.1 750.5 445.1 750.1C 447.7 749.3 451 745 451 742.5C 451 741 451.5 740 452.3 740.1C 455.7 740.5 459 739.8 460.5 738.3C 462.2 736.6 462.2 733.5 460.4 724.2L 459.8 721L 470.8 721C 484.7 721 485.4 720.8 483.5 717C 482.7 715.4 481 713.4 479.8 712.5C 478 711.2 477.8 710.7 478.9 710.3C 481.5 709.3 485 704.8 486 701.2C 486.5 699.2 486.7 695.1 486.3 692L 485.7 686.3L 498.3 679.1C 505.2 675.2 511.1 671.3 511.4 670.4C 512.4 667.7 512.1 664.6 510 658.7C 507.4 651.4 508.1 648.4 514.6 639.4C 520 631.8 522 626 522 618.1C 522 610.9 520.3 608.5 513.7 606.4L 508.5 604.8L 499 608.5C 480.3 615.9 463.1 625.3 453.1 633.8L 449.8 636.6L 451.9 640.1C 453 642 454 644.8 454 646.3C 454 656.1 442.1 661.7 435 655.3C 429.4 650.1 429.4 642.4 435 637.7L 438 635.1L 426.6 601.8C 405.7 540.9 407 544.1 403 543C 395.6 540.9 392.2 542.3 390.5 548C 389.5 551.3 386.5 554.6 382.9 556C 380.3 557.1 379.7 557 376.7 554.3C 374.8 552.6 371.2 550.8 368.7 550.2C 363.8 548.9 360 545.2 360 541.6C 360 540.5 360.6 537.7 361.4 535.6C 364.1 527.8 359.8 521.6 351 520.4C 344.7 519.6 344.4 517.6 350 511.6C 354.6 506.6 355.2 502.9 351.8 500.6C 346.2 496.6 340.7 499.8 336.1 509.4C 330.5 521.3 323 522.4 320 511.9C 316.2 498.8 316.9 488.4 322.1 482.5C 325.8 478.3 330.5 476.7 339 476.8L 345.7 476.8L 345.7 473.7C 345.7 467.4 354.2 464.7 359.7 469.4C 361.3 470.8 363.5 473.8 364.5 476.2C 367.1 482.2 369.8 485 373.1 485C 376.7 485 378.4 482 377.6 477.1C 377.2 475.1 376.5 471 376.1 468C 374.6 458.9 355.9 418.7 346.3 404.3C 343 399.3 342.7 399.1 340.7 400.5C 339.5 401.3 336.8 402 334.7 402C 323.1 402 318 389.6 326.6 382C 332.5 376.8 341.2 378.6 344.5 385.7L 346.1 389L 354.3 389C 364.2 389 376.7 390.4 391.5 393C 404.5 395.3 451.9 400.4 452.7 399.6C 453.7 398.7 450.9 396 448.9 396C 444.4 396 448.5 391.7 454.5 390.1C 459.8 388.7 473.2 387.2 474.8 387.7C 476.8 388.5 476.2 391 473 394.7C 471.4 396.5 470 399.1 470 400.4C 470 402.5 470.6 402.8 476.3 403.4C 479.7 403.8 483.5 404.4 484.7 404.7C 486.5 405.1 487.2 404.6 488 402.6C 489.3 399.1 488.6 397.7 483.9 394.4C 479.4 391.3 479 388.9 482 383C 483.1 380.8 484 378.6 484 378.1C 484 377.6 482.2 375 479.9 372.4C 476.3 368.2 475.9 367.2 476.2 363.3C 476.5 359.2 476.4 359 473.7 359C 469.2 359 464.4 356.2 460.5 351.4C 456.4 346.5 453.3 345.8 447.8 348.6C 445.9 349.6 443.4 350 441.4 349.7C 437.5 349.1 437 349.9 437 357.3C 436.9 364.1 435.4 366.7 428.9 370.5C 425.9 372.2 422.5 375.2 421.3 377.1C 417.9 382.5 415.3 385 412.9 385C 411 385 410.8 384.6 411.4 381.9C 412.5 376.1 410 372.6 401.1 368C 396.6 365.6 392.8 363 392.5 361.9C 390.5 355.6 399.8 346 407.9 346C 409.8 346 412.2 344.9 414.4 343L 417.8 340L 424.8 342.5C 428.6 343.9 432.4 345 433.3 345C 435.5 345 436 342.8 434.2 340.8C 432.2 338.4 433.1 336.7 438.7 332.6C 444.2 328.5 450.3 326.2 457.6 325.4C 464.1 324.6 465 325.9 461.6 330.9C 457.7 336.4 458.4 339 463.9 339C 464.8 339 468.8 340.6 472.8 342.5L 480 345.9L 480 342.6C 480 339.4 482.4 336 484.7 336C 485.2 336 486.5 336.9 487.5 338C 492.2 343.2 495.6 338.1 492.1 331.2C 490.9 328.9 490 325.7 490 324.1C 490 322.5 489.6 320.9 489.2 320.6C 487.4 319.5 449.3 312.9 446 313.2C 442.8 313.5 442.5 313.8 442.8 316.2C 443.1 318.4 442.6 319.2 440.6 319.9C 437.1 321.3 435.7 324.2 437 327.6C 438.4 331.1 437.9 331.4 433.4 330.4C 430 329.6 429.6 329 428.5 324.7C 426.8 317.8 426.3 317.6 418.4 319.2C 411.5 320.5 411.5 320.5 411.2 324C 410.5 331.1 407.9 331.9 394.1 329.7L 386.7 328.5L 391.8 325.3C 399.6 320.5 401.5 314 395.2 314C 393.7 314 388.4 312 383.6 309.5C 374.2 304.7 371 304.2 364.7 306.4z"/>
<path style="stroke:none; fill:#000000" d="M 608 333.8C 606.1 334.6 602.5 335.6 600 335.9C 596 336.4 595.5 336.8 595.2 339.3C 594.8 342.5 597.3 346 599.9 346C 600.8 346 603.7 344.9 606.5 343.6C 609.2 342.3 613.2 340.5 615.3 339.6C 619.8 337.7 620 335.6 616 333.5C 612.5 331.7 612.5 331.7 608 333.8z"/>
<path style="stroke:none; fill:#000000" d="M 634.6 364.6C 634.2 365.7 635.2 367.3 637.4 369.4C 641.3 373 642.8 378.9 641.8 387C 641.5 389.2 641.9 389.5 645.3 389.8C 648.5 390.1 649.1 389.8 650 387.5C 651.6 383.4 651.2 378 649.1 375.4C 648.1 374.1 646.9 371.3 646.5 369.3C 646.1 367.2 645.4 364.9 644.8 364.2C 643.2 362.4 635.4 362.6 634.6 364.6z"/>
<path style="stroke:none; fill:#000000" d="M 623.9 375.1C 621.1 378.1 619.5 383.1 620.2 386.7C 620.6 388.8 623.7 389.5 628.7 388.5C 631.9 387.9 632.2 387.6 631.7 385.2C 631.4 383.7 631.6 381.7 632.1 380.7C 632.7 379.8 632.7 378.4 632.3 377.7C 631.9 377.1 631.7 375.5 631.9 374.2C 632.3 370.7 627.5 371.2 623.9 375.1z"/>
<path style="stroke:none; fill:#000000" d="M 358 391C 362.5 391.9 373.7 392.3 372.9 391.6C 372.7 391.4 368.2 391 363 390.7C 356.3 390.3 354.8 390.4 358 391z"/>
<path style="stroke:none; fill:#000000" d="M 345 394.4C 343.6 398.1 343.5 397.6 348.6 405.5C 353.3 412.7 367.1 440.3 373 454.5C 374.9 458.9 376.5 462.7 376.7 462.9C 376.9 463.2 378.3 462.2 379.8 460.8C 381.3 459.4 385.2 456.9 388.5 455.2C 395.5 451.7 399.8 447.8 400.6 444.1C 400.9 442.7 401.3 441 401.5 440.3C 402.2 438.2 422.1 425.8 436.7 418.4L 450.9 411.2L 438.7 407.1C 407.6 396.8 399 395.3 356.3 392.4L 346 391.7L 345 394.4z"/>
<path style="stroke:none; fill:#000000" d="M 414.5 397.9C 415.6 398.4 425.2 401.6 435.8 405C 457.3 411.9 459.5 411.9 453.9 405.2L 450.6 401.3L 434.6 399.6C 425.7 398.7 417.2 397.7 415.5 397.5C 413.1 397.1 412.9 397.2 414.5 397.9z"/>
<path style="stroke:none; fill:#000000" d="M 870 400.2C 826.7 415.9 763.6 440 757.3 443.4C 755.2 444.4 755.4 444.5 759.1 444.5C 762.4 444.5 763.7 445.1 765.6 447.3C 767.8 449.8 768 451 768 459.5L 768 468.8L 775.3 471.4C 779.2 472.8 784.3 474.6 786.5 475.4L 790.5 476.7L 812 455.1C 835 431.9 852.1 416.7 866.4 406.7C 875.8 400.1 879.8 397.1 879 397.1C 878.7 397.1 874.7 398.5 870 400.2z"/>
<path style="stroke:none; fill:#000000" d="M 473.5 405.5C 475.2 406.3 478.3 406.9 480.5 406.9C 486.1 406.9 483 405.4 476 404.7C 470.7 404.1 470.6 404.1 473.5 405.5z"/>
<path style="stroke:none; fill:#000000" d="M 1094.1 416.9C 1091.4 419.6 1091.5 419.9 1094.6 424.5C 1100.2 432.9 1098.8 440 1090.2 445.9C 1087 448.1 1083 451.4 1081.1 453.4L 1077.6 457L 1079.3 460.6C 1080.5 463 1080.8 465.3 1080.4 467.5C 1080 469.6 1080.3 471 1081.1 471.5C 1082.7 472.5 1085 469.4 1085 466.3C 1085 465 1086.1 462.8 1087.5 461.4C 1088.9 460 1090 458 1090 457C 1090 454.9 1091.4 454.4 1099.4 453.7C 1106.7 453 1107.6 451.5 1106.1 443.4C 1105.1 437.7 1103.7 433.2 1100.5 425.7C 1099.9 424.3 1100.3 424 1102.3 424C 1106 424 1109.9 422 1110.5 419.9C 1111.4 417.2 1110.3 416.1 1107.2 416.1C 1105.7 416.2 1102.6 415.9 1100.4 415.5C 1096.9 414.9 1095.9 415.1 1094.1 416.9z"/>
<path style="stroke:none; fill:#000000" d="M 623 436.4C 623 442.2 623.7 443 628.9 443C 632.9 443 643.1 440.1 646 438.2C 648.5 436.6 648.4 436.5 637 433.8C 630.7 432.3 624.9 431 624.3 431C 623.4 431 623 432.7 623 436.4z"/>
<path style="stroke:none; fill:#000000" d="M 674 440.9C 674 441.4 675.4 442 677.1 442.4C 681.9 443.3 682.7 443.1 680 441.5C 677.2 439.9 674 439.6 674 440.9z"/>
<path style="stroke:none; fill:#000000" d="M 665.1 443.6C 660 445.8 647.6 448.8 636.6 450.4C 624 452.3 621.8 454 615.5 466.1C 612.9 471.2 609 477.3 606.8 479.6L 602.9 483.9L 605.2 485.3C 611.6 489.4 628.3 499 628.9 499C 629.4 499 638 495 648.1 490.2C 658.2 485.3 674.7 477.6 684.8 473C 695.7 468.1 702.6 464.4 701.8 464C 701.1 463.6 697.9 462.8 694.8 462.1C 687.8 460.6 685 457.6 685 451.6C 685 449.4 684.6 447 684.2 446.4C 683.5 445.3 672.5 442 669.9 442C 669.1 442.1 667 442.7 665.1 443.6z"/>
<path style="stroke:none; fill:#000000" d="M 717 463.9C 717 469.9 712.4 471.8 708.4 467.5L 706.1 465L 701.8 466.9C 680.6 476 631 499.5 631 500.3C 631 500.6 638.8 505.7 648.3 511.7C 657.7 517.6 675.8 529.4 688.3 537.8C 710.7 552.8 711.2 553.1 713.2 551.3C 715.2 549.5 722.9 548.8 726 550.2C 727.1 550.7 729.7 548.1 735.5 540.9C 739.9 535.4 750.1 523.1 758.2 513.7L 772.9 496.6L 767.4 488.8C 760.6 479 760.1 478 763 478C 765.3 478 765.2 476.3 762.4 470.8C 760.4 466.8 751.3 464.3 736.5 463.6C 729.9 463.3 722.8 462.7 720.8 462.4C 717.4 461.8 717 461.9 717 463.9z"/>
<path style="stroke:none; fill:#000000" d="M 769 472.7C 769 475.3 774.5 486.2 776.8 488.4C 778.6 489.9 779 489.7 783.8 484.6C 786.7 481.6 789 478.7 789 478.3C 789 477.8 785.1 476.1 780.3 474.6C 775.4 473 770.9 471.5 770.3 471.3C 769.5 471 769 471.6 769 472.7z"/>
<path style="stroke:none; fill:#000000" d="M 785.2 485L 779.9 491L 783.1 495.5C 785.3 498.6 786.6 501.7 787.1 505.5C 787.5 508.8 789 512.9 790.7 515.6C 792.2 518.1 794.5 521.8 795.7 523.8C 797 525.9 798 528.7 798 530.2C 798 533.4 800.9 534.6 806.5 533.7C 812.4 532.7 817.1 529.8 825.4 522C 829.9 517.9 835.3 513.4 837.5 512.1C 851 504 849.2 500.4 827.5 492.1C 804.1 483.1 793 479 791.8 479C 791.1 479 788.1 481.7 785.2 485z"/>
<path style="stroke:none; fill:#000000" d="M 596 488.8L 592 492.7L 592 505.3C 592 512.3 592.3 518 592.8 518C 593.2 518 601.1 514 610.3 509.1C 622.6 502.6 626.7 500 625.8 499.3C 623.2 497.3 602 485 601 485C 600.5 485 598.3 486.7 596 488.8z"/>
<path style="stroke:none; fill:#000000" d="M 829.3 488.2C 828 488.8 827 489.6 827 489.9C 827 490.2 829.5 491.5 832.6 492.7L 838.1 494.9L 837.8 491.2C 837.5 487.9 837.2 487.5 834.5 487.3C 832.9 487.2 830.5 487.6 829.3 488.2z"/>
<path style="stroke:none; fill:#000000" d="M 760.4 513.2C 753.2 521.6 743.2 533.6 738 539.8L 728.7 551.1L 730.4 554.7C 731.4 556.8 732.6 558 733.4 557.7C 734.1 557.4 739.6 556.9 745.6 556.5C 758.7 555.7 779.1 557.2 798.7 560.6C 806.5 561.9 813.4 563 813.9 563C 815.5 563 822 549 822 545.4C 822 541.3 821.1 541.1 809 542.7C 796.5 544.3 795.4 544.3 793.5 542.4C 792.3 541.1 792 539.8 792.5 536.9C 793.1 533.5 792.5 531.9 788.5 524.3C 782.9 513.9 773.9 498 773.7 498C 773.6 498 767.6 504.9 760.4 513.2z"/>
<path style="stroke:none; fill:#000000" d="M 611 510.3L 593.5 519.5L 593.2 524.5C 592.7 532.6 593.7 535.4 599.5 541.9C 604.9 548 607 552.6 607 558.7C 607 560.4 607.5 562.2 608 562.5C 608.6 562.8 616.8 563.8 626.3 564.5C 635.7 565.3 647.3 566.4 652 567C 659.8 568.1 662.3 567.9 681.8 565.1C 693.6 563.4 704.3 562 705.6 562C 708.1 562 708.4 561.6 709.4 556.8C 710 554.3 709.1 553.5 694.8 543.7C 679.7 533.4 641.8 508.8 633 503.7L 628.4 501.1L 611 510.3z"/>
<path style="stroke:none; fill:#000000" d="M 1060 519.9C 1058.2 523.3 1058.9 525.9 1062.5 529.9C 1064.4 532 1066.7 535.9 1067.5 538.5C 1068.3 541.2 1070.4 544.9 1072.4 546.9C 1075.5 550.1 1075.9 551.2 1076.2 556.4C 1076.5 563 1078.5 565.4 1081.8 563.4C 1084.6 561.6 1084.5 557.5 1081.6 555.2C 1078.1 552.5 1076.9 548.9 1077.7 543.5C 1078.1 539.9 1078 539 1076.8 539C 1074.5 539 1072 535.7 1072 532.7C 1072 530.9 1071.5 530 1070.5 530C 1069.6 530 1067.6 529.3 1066 528.5C 1063.4 527.1 1063 526.4 1063 522.5C 1063 517.8 1061.8 516.7 1060 519.9z"/>
<path style="stroke:none; fill:#000000" d="M 900 525C 900 528 908.2 550.9 910 552.8C 915.4 558.5 924.9 556.1 929 547.9C 932.5 541.1 932.1 540.6 915.3 531.8C 906.9 527.4 900 524.3 900 525z"/>
<path style="stroke:none; fill:#000000" d="M 408.5 545.8C 410.3 550.5 422.8 586.5 430.5 609.2L 439.3 635L 442.9 635C 446.3 635 446.8 634.6 451.7 627.2C 457.7 618.1 469 605 478.3 596.3C 484.4 590.6 484.8 590 483.1 589C 482 588.5 478.9 588 476.2 588C 470.3 588 469.1 586.8 467.9 580.3C 466.1 570.8 459.2 564.7 448.3 563C 443.5 562.2 442.1 561.5 440 558.9C 433.7 550.7 430.7 549.2 412.2 545.1C 408.3 544.3 407.9 544.4 408.5 545.8z"/>
<path style="stroke:none; fill:#000000" d="M 734.4 558.7C 732.8 559 732.1 560.1 731.6 563C 730.7 568.4 726.3 572 720.3 572C 716.6 572 715.3 571.5 712.6 568.7C 710.8 567 709.1 564.9 708.9 564.1C 708.5 562.9 704.5 563.2 684.8 566L 661.2 569.3L 665.3 573.6C 669 577.5 669.9 578 673.9 578C 682.8 578 688.3 588.4 686 601.1C 684.6 608.9 685.1 612 690.2 624.5C 695.4 637.3 695.7 643.3 691.4 653.5C 688.7 659.8 688.5 660.9 689.6 663.5C 690.4 665.3 690.9 671 691 677.7L 691 688.9L 696.4 699.2C 699.3 704.9 702.3 712 702.9 715C 704.6 722.9 706 724 714 724C 725.9 724 742.7 718.4 748.6 712.5C 750.6 710.5 751 709.1 751 704C 751 696.1 752.1 694.3 758.5 691.5C 765.9 688.2 767 686.3 767 676.2C 767 666.7 767.9 664.3 774 658.5C 782.1 650.7 784.3 644.2 786 623C 787.7 602.5 789.4 598.3 803.7 578.2C 809 570.9 813.1 564.8 812.9 564.6C 812.2 564 794 560.9 782.3 559.5C 771.7 558.1 739.8 557.6 734.4 558.7z"/>
<path style="stroke:none; fill:#000000" d="M 1050.3 566.8C 1049.3 567.8 1047.3 570 1045.8 571.8C 1042.5 575.7 1038.5 578 1034.9 578C 1033.1 578 1032.1 578.6 1031.7 579.9C 1031.4 581.2 1030.2 582 1027.9 582.2C 1026.1 582.4 1024.5 583 1024.3 583.6C 1023.6 585.6 1028.6 591.5 1033.5 594.6C 1036.3 596.3 1039.9 599.2 1041.6 600.9L 1044.8 604.2L 1049.4 602.2C 1054.4 599.9 1054.9 598.6 1052.5 594C 1051.1 591.3 1051.2 591 1054.5 587C 1057.8 583 1058 582.4 1058 575.1C 1058 570.4 1057.5 566.9 1056.8 566.2C 1055.1 564.5 1052.3 564.7 1050.3 566.8z"/>
<path style="stroke:none; fill:#000000" d="M 977 569.9C 977 570.9 980.4 574.8 984.8 578.8C 989.9 583.4 995 589.3 999.3 595.8C 1006.3 606.2 1009.6 609.3 1013.3 608.8C 1017.6 608.2 1016.6 604.3 1010.6 598C 1006.7 593.9 1005 591.4 1005 589.5C 1005 586.4 1001.5 583.1 998.2 583C 996.8 583 993.6 580.9 990.2 577.7C 984.7 572.5 978.8 568 977.6 568C 977.3 568 977 568.8 977 569.9z"/>
<path style="stroke:none; fill:#000000" d="M 473.5 603.2C 462.5 614.5 454.2 624.7 449.9 632.4L 447.6 636.4L 450.1 634.5C 461.5 625.6 467 622.1 477.9 616.6C 484.8 613.2 494.4 608.9 499.2 607C 506.9 604.2 507.8 603.5 507 602C 505.2 598.6 500.8 596 497.1 596C 495.1 596 492 595.1 490.2 594C 488.4 592.9 486.4 592 485.7 592C 485.1 592 479.5 597.1 473.5 603.2z"/>
<path style="stroke:none; fill:#000000" d="M 1114.7 597.7C 1110 598 1108 598.5 1108.3 599.3C 1108.5 600 1112.2 602.3 1116.6 604.5C 1123.8 608.2 1124.7 609 1127.1 613.9C 1130.8 621.2 1133.3 622.4 1143.1 621.6C 1152.2 620.9 1154.1 621.5 1161.5 627.5C 1165.5 630.7 1168 632 1170.2 632L 1173.3 632L 1169.9 629.7C 1165.6 626.8 1162 621.5 1162 617.9C 1162 615.4 1162.4 615 1165 615C 1168.7 615 1172.7 613.2 1173.5 611.1C 1174.2 609.2 1171.2 606.7 1169.1 607.5C 1168.3 607.8 1165 608.3 1161.8 608.7C 1156.3 609.3 1155.7 609.1 1150.7 605.7C 1139.7 598.1 1132.7 596.6 1114.7 597.7z"/>
<path style="stroke:none; fill:#000000" d="M 1018.3 614.8C 1017.7 615.2 1017 616.2 1016.8 617C 1016.6 618.2 1018.7 618.5 1030.8 618.6C 1042 618.7 1044.8 618.5 1044 617.5C 1043.4 616.7 1039.1 616.1 1032.7 615.8C 1027.1 615.5 1021.8 615 1021 614.6C 1020.2 614.3 1019 614.4 1018.3 614.8z"/>
<path style="stroke:none; fill:#000000" d="M 1046.2 617.6C 1048 619.4 1069.9 623.9 1077.4 624C 1080.1 624 1082.1 623.8 1081.8 623.5C 1081.3 622.9 1047.7 616 1045.6 616C 1045 616 1045.3 616.7 1046.2 617.6z"/>
<path style="stroke:none; fill:#000000" d="M 1138.5 633.4C 1137.6 634.7 1135.8 639.2 1134.5 643.5C 1131.8 652.3 1129.8 655 1125.9 655C 1120.6 655 1117.5 647.5 1121.1 643.5C 1122.5 642 1122.1 637.4 1120.5 636C 1119.4 635.1 1116.9 635 1111.5 635.5C 1105.4 636 1103.3 636.7 1099.8 639.3C 1097.4 641 1093.1 642.9 1090.2 643.6C 1084.3 645 1080 647.4 1080 649.3C 1080 650 1081.8 652.4 1084.1 654.5C 1086.3 656.7 1091.8 662.8 1096.2 668.1C 1104 677.5 1104.4 677.8 1107.2 676.8C 1116.7 673.5 1126 683.5 1121.7 692.6C 1119.6 696.9 1115.9 699.3 1111 699.3C 1103.7 699.3 1099.8 695 1099.6 686.8L 1099.5 681.9L 1082 672.6L 1064.5 663.3L 1059.5 666.1C 1056.8 667.6 1051.8 669.6 1048.5 670.4C 1035.4 673.8 1035 674.3 1031.4 691.2C 1030 698 1027.4 708.1 1025.6 713.6L 1022.3 723.7L 1032.5 725L 1042.8 726.2L 1050.7 722.1C 1068.3 712.9 1084.6 712.6 1088 721.5C 1088.7 723.4 1089.7 724 1092 724C 1096 724 1099.5 727.5 1101.1 733.1C 1102.9 739.3 1103.6 739.9 1108.5 739.8C 1111.3 739.8 1114.1 740.5 1116.3 741.9C 1122.4 745.6 1127.3 744.5 1131 738.5C 1133.5 734.4 1137.6 732 1141.8 732C 1146.1 732 1147.4 730 1146.1 725.4C 1144.7 720.5 1146.4 717.9 1152.9 714.6C 1159.2 711.4 1163.6 706.3 1165.5 699.8C 1168.2 690.7 1167.1 685.4 1161 676.6C 1154.8 667.8 1153.7 665.1 1153.5 658C 1153.4 654.4 1153.2 650.7 1153.1 649.7C 1153.1 648.7 1151.2 646.1 1149 643.9C 1146.4 641.3 1145 639 1145 637.4C 1145 634.1 1143.3 631 1141.5 631C 1140.7 631 1139.3 632.1 1138.5 633.4z"/>
<path style="stroke:none; fill:#000000" d="M 811.5 641.7C 809.6 644.4 807 648.7 805.8 651.4C 804.5 654.1 801.4 660.5 798.8 665.6C 793.6 675.8 792.8 680.6 795.8 683.3C 800.2 687.3 808.1 684.1 812.5 676.6C 815.4 671.6 820 651.9 820 644.2C 820 635.7 816.7 634.8 811.5 641.7z"/>
<path style="stroke:none; fill:#000000" d="M 1072.1 656.4L 1065.9 662.6L 1075.2 667.5C 1080.3 670.2 1088.1 674.3 1092.4 676.7C 1099.7 680.7 1103 681.5 1103 679.2C 1103 678.2 1092.9 665.9 1084.4 656.7L 1078.4 650.1L 1072.1 656.4z"/>
<path style="stroke:none; fill:#000000" d="M 1215.6 727.7C 1215.3 728 1215 729.4 1215 730.6C 1215 731.9 1213.2 735 1211 737.5C 1204.7 744.7 1205.9 748 1214.7 748C 1219.5 748 1220.3 747.7 1223.2 744.4C 1227.3 739.9 1227.3 738.8 1223.3 737.8C 1220.5 737.1 1219.9 736.3 1218.9 732.5C 1217.7 727.9 1216.8 726.5 1215.6 727.7z"/>
<path style="stroke:none; fill:#000000" d="M 1108.9 750.7C 1107.7 754 1106.5 763 1107.3 763C 1108.2 763 1120.5 755.9 1122.3 754.3C 1125.2 751.6 1124.5 749.7 1120.8 750.4C 1113.2 751.9 1111.5 752.1 1112.7 751.3C 1113.6 750.7 1113.4 750.1 1111.9 749.2C 1110.2 748.1 1109.8 748.3 1108.9 750.7z"/>
<path style="stroke:none; fill:#000000" d="M 1187.8 754.8C 1183.6 756.9 1178.8 759.7 1177.3 761.2C 1175.8 762.7 1172.3 764.8 1169.7 766C 1167 767.2 1165.1 768.7 1165.3 769.3C 1165.5 770 1168.2 770.6 1171.5 770.8C 1176.9 771.1 1177.7 770.8 1183.9 766.7C 1187.5 764.2 1192.5 761.2 1194.9 759.9C 1199.9 757.2 1201.6 755 1200.7 752.6C 1199.8 750.2 1196.3 750.8 1187.8 754.8z"/>
<path style="stroke:none; fill:#000000" d="M 491.5 81.6C 468.9 86.4 450.3 103.9 443.2 127C 441.7 132 441.5 143.2 441.3 249.5C 441.1 313.8 441.1 375.7 441.2 386.9L 441.5 407.4L 444.1 403.4C 445.6 401.2 449.3 396.4 452.4 392.8L 458 386.1L 458 265.3C 458 190.2 458.4 141.9 459 137.5C 460.9 124.3 468.7 111.7 479.2 104.7C 489.7 97.9001 494.4 96.7001 515 96.2001L 533.5 95.8L 533.5 104.2C 533.5 111.7 533.8 113.1 536.3 116.8C 537.8 119.1 540.9 122.2 543.2 123.7L 547.4 126.5L 619.4 126.8C 666.8 127 692.7 126.7 695 126.1C 700.3 124.6 706.6 118.7 708.6 113.5C 709.8 110.2 710.1 107.2 709.8 102.5L 709.2 96.0001L 724.9 96.0001C 733.5 96.0001 743 96.4001 746 96.9001C 763.6 99.8001 777.8 111.5 784.2 128.5L 786.5 134.5L 786.8 439.5C 787 659.7 786.7 746.4 785.9 751.2C 783.4 766.6 773.7 779.6 759.4 786.7L 751.6 790.5L 624.6 790.8C 498.9 791 497.5 791 491.4 789C 474.2 783.3 461.5 768.1 459 750.5C 458.4 746.3 458 704 458 644.8L 458 546.1L 453.3 545.4C 450.6 545 446.8 544.1 444.7 543.4L 440.9 542.1L 441.2 648.8L 441.5 755.5L 444.2 763.5C 452.4 787.6 472 803.7 497.1 807C 502.9 807.8 542.5 808 626 807.8C 737.3 807.5 747 807.3 752.5 805.7C 776.4 798.7 793.5 780.5 798.4 756.7C 799.8 749.9 800 726.8 800 540C 800 331.7 800 331 802 331C 804 331 804 330.3 804 292C 804 253.7 804 253 802 253C 800 253 800 252.3 800 196.1C 800 131.3 799.8 129.1 792.9 115C 784.5 98.0001 767.3 85.0001 748.7 81.5001C 737 79.3001 502 79.4 491.5 81.6z"/>
<path style="stroke:none; fill:#000000" d="M 298.1 275.5C 295.1 276.9 291.9 279.3 281.9 288.3C 279.5 290.4 279.2 291.5 278.5 301.1C 277.9 311.3 278.9 320 280.9 320C 281.3 320 282.7 322.2 284 324.9C 285.9 329 286.2 330.8 285.6 335L 284.9 340.1L 291.7 346.5C 295.4 349.9 301.4 356.6 305 361.4L 311.5 370L 315.6 357.8L 319.6 345.6L 325.6 342.1C 336.4 335.5 341.5 324.2 339.2 311.6C 338.5 308.1 338 303.5 338 301.3C 338 287.1 324.9 275.1 308.5 274.3C 303.7 274.1 300.4 274.5 298.1 275.5z"/>
<path style="stroke:none; fill:#000000" d="M 269 425.4C 281.3 438.1 308.9 459 331.1 472.5C 337.9 476.6 343.8 480 344.2 480C 344.6 480 344.6 479.1 344.2 478.1C 343.8 477 340.3 474.4 336.5 472.4C 319.9 463.7 289.3 442.1 271.6 426.6L 262.5 418.7L 269 425.4z"/>
<path style="stroke:none; fill:#000000" d="M 425.3 445.7C 421.9 446.2 421.9 446.1 420.4 459.1L 419.8 464.7L 426.2 466.5C 444.9 471.8 458 468.1 458 457.5C 458 453.6 453.2 449.6 446.3 447.7C 439.9 445.9 430.2 445 425.3 445.7z"/>
<path style="stroke:none; fill:#000000" d="M 441 516L 441 530.5L 446.9 524C 451.8 518.6 452.6 517.2 451.7 515.9C 451 515 448.9 512.2 447 509.6C 445.1 506.9 443 504 442.3 503.1C 441.3 501.8 441.1 504.4 441 516z"/>
<path style="stroke:none; fill:#000000" d="M 346.6 537.8C 344 539.1 341 539.2 322.1 538.2C 301.4 537.1 254.9 537.7 253.6 539.1C 252.8 539.9 269 617.4 275.9 646C 278.5 656.5 278.5 657.1 276 660C 274.6 661.6 274.3 662.7 275 663.5C 275.8 664.5 275.2 665.6 272.6 667.6C 269.6 670.1 268.9 671.8 266.6 680.6C 264.2 690.2 254.5 716 250.1 724.6C 249 726.7 247.3 730.7 246.2 733.5C 245.2 736.2 241.9 741.6 239 745.5C 232.7 753.8 229 761.2 229 765.8C 229 768.6 229.7 769.5 233.6 772C 236.2 773.6 241.3 776.1 244.9 777.5C 249.9 779.5 252.2 781.1 254.5 784.2C 261.8 794 275.4 804 281.5 804C 287.7 804 293 798.9 293 793C 293 789.2 292.2 787.7 280.7 771.7C 277 766.4 273.3 760.6 272.5 758.8C 271.8 756.9 270.5 754.8 269.6 754.1C 268.4 753.1 268.5 752.3 270.8 748.7C 275.8 740.8 308.3 692.5 315.2 682.8C 323.4 671.2 328.7 660.4 329.6 653.8C 330.3 648.4 332 647.3 332 652.2C 332.1 654 333.1 675.1 334.4 699L 336.7 742.5L 333.9 745.8C 330.9 749.2 330 755.2 331.9 758.8C 332.5 760 332.1 762.8 330.4 767.5C 327.6 775.9 327.4 781 329.8 783.9C 331.6 786.2 342.3 789 349.4 789C 352.3 789 355 790.1 359.4 792.9C 368.6 798.9 378.2 803.1 384.2 803.7C 388.7 804.1 390 803.8 393 801.8C 394.9 800.5 397 797.9 397.8 795.9C 400.1 789.7 398 786.5 384.6 776.5C 378.3 771.8 371.6 766.2 369.8 764.1C 368 762 365.6 760 364.6 759.6C 363.1 759.1 362.9 758.7 363.8 757.8C 365.7 755.9 365.2 750.5 363 747.7L 360.9 745.1L 364.5 739.9C 367.9 734.9 368 734.5 368 725.1C 368 719.8 369.1 696.6 370.4 673.5L 372.8 631.5L 369.4 611.5C 362.6 572.2 353.3 535.7 350.2 536.1C 349.8 536.2 348.2 536.9 346.6 537.8z"/>
</g>
</g>
</svg>