<?xml version="1.0" encoding="UTF-8" standalone="yes"?>
<!-- Created with sK1/UniConvertor (http://sk1project.org/) -->
<svg xmlns="http://www.w3.org/2000/svg" xmlns:xlink="http://www.w3.org/1999/xlink"
  width="1244pt" height="872pt" viewBox="0 0 1244 872"
  fill-rule="evenodd">
<g>
<g>
<path style="stroke:none; fill:#000000" d="M 314 97C 314 97.7 333.2 98 369.5 98C 405.8 98 425 97.7 425 97C 425 96.3 405.8 96 369.5 96C 333.2 96 314 96.3 314 97z"/>
<path style="stroke:none; fill:#000000" d="M 460 97C 460 97.7 508 98 601.9 98C 695.5 98 744.1 97.7 744.5 97C 744.9 96.3 697.3 96 602.6 96C 508.2 96 460 96.3 460 97z"/>
<path style="stroke:none; fill:#000000" d="M 923 193.8C 923 194.3 924.9 195.3 927.3 196C 935 198.3 941.4 202.2 947.5 208.4C 957.8 218.9 962 230.6 962 249.6L 962 260.7L 957.4 261.3C 951.4 261.9 945.6 266.2 940.4 273.7C 917.8 306.5 917.7 380.4 940.2 414.1C 944.7 420.8 948.9 424.4 954.6 426.3L 958.5 427.7L 958.8 438.8L 959.1 450L 953.8 452.4C 935.3 460.7 923.5 493 923.6 535C 923.7 560.2 927.6 580 935.6 596.4C 941.3 608.2 947.6 614.3 957.3 617.4C 958.9 617.9 959 619.2 958.8 631.2L 958.5 644.5L 896 645L 833.5 645.5L 897 646C 931.9 646.3 992.2 646.3 1031 646L 1101.5 645.5L 1030.7 645.2L 959.9 645L 960.2 631.3L 960.5 617.6L 964.5 616.6C 967.3 616 970.1 614 974.1 610.1C 983.4 600.8 990.1 584.4 994.2 561C 996.2 549.6 995.8 516.9 993.6 504.5C 988.5 476.5 977.8 456.9 965.1 452.3L 960 450.5L 960 438.8C 960 427.6 960.1 427 962 427C 965.3 427 971.4 423.4 975.1 419.3C 983.1 410.5 989.2 395.6 993.2 375.5C 996.4 359.5 996.4 328.4 993.2 312.2C 988.1 286.6 978.8 268.6 967.9 263.2L 963.7 261.1L 963.5 248.8C 963.3 234.9 962.2 229.5 957.4 219.5C 953.1 210.2 944.8 202.2 934.8 197.6C 926.2 193.6 923 192.5 923 193.8z"/>
<path style="stroke:none; fill:#000000" d="M 393 474.4L 393 715.8L 382.8 716.4C 377.1 716.7 347.8 717.2 317.5 717.5C 196.4 718.7 104.1 722.9 123.1 726.3C 133.9 728.3 180.2 730.4 246 732C 319.5 733.8 503.1 735.3 586.7 734.8L 669 734.3L 672.2 738.5C 678.7 747 687.1 750.7 696.8 749.6C 703 748.9 709.7 745.7 719.6 738.8L 726.7 733.8L 777.1 733C 875.2 731.3 937.7 728.9 951.9 726.3C 964.5 724 923.2 720.9 861 719.5C 847.5 719.2 831.9 718.7 826.2 718.4L 815.9 717.8L 818.5 715.4C 825.1 709.3 828.4 694.7 827.8 673.8C 827.6 663.2 827.2 660.9 825.6 659.1C 823.1 656.3 822 657.3 822 662.5C 822 675.7 817.6 693 813.1 697.9C 809.9 701.3 807 701.8 802.6 699.5C 799.1 697.6 799 697.6 799 699.5C 799 700.4 798.1 702.8 797 705C 794.8 709.4 794.5 713.1 796.1 716.2L 797.2 718.3L 779.9 717.7C 770.3 717.3 759.4 717 755.7 717L 748.9 717L 768.2 701.3C 778.8 692.7 788.1 685.3 788.8 684.7C 790.8 683.1 791.5 684.8 789.6 686.9C 787.7 688.9 788.1 689.3 796.5 694.2C 797.1 694.6 797.4 693.1 797.1 690.2C 796.6 683.2 798.7 675.4 803.7 666.2L 808.2 657.8L 810.7 631.7C 813.2 604.2 813.1 600.1 809.3 596.8C 807.6 595.4 744.7 573 742.4 573C 741.8 573 740.5 576.6 739.5 580.9L 737.7 588.8L 721.6 580.6C 704.5 571.9 683.7 563.3 672.9 560.4L 666.3 558.7L 665.7 462.7C 665.3 409.9 665 336.6 665 299.8L 665 233L 617.1 233L 569.3 233L 568.6 239.1C 568.3 242.5 568 291.7 567.9 348.4L 567.9 451.5L 562.9 438C 557.9 424.2 521.6 321.7 501.6 264.8L 490.5 233L 441.8 233L 393 233L 393 474.4zM 497.1 528.7C 503.2 545.6 544.9 663.6 555 692.5C 559 704 562.5 714.1 562.8 714.7C 563.1 715.7 555.5 716 526.6 716L 490 716L 490 670.2C 490 615.8 491.2 512 491.7 513.7C 492 514.4 494.4 521.2 497.1 528.7zM 675.5 609.5C 700.1 627.6 720.9 639.9 736.3 645.3C 737.8 645.9 736.4 647.4 729.3 653.2C 702.4 675 679 698.4 670.5 712L 667.6 716.5L 666.3 711.5C 664.6 705 665.6 602.7 667.4 603.7C 668 604.1 671.7 606.7 675.5 609.5z"/>
<path style="stroke:none; fill:#000000" d="M 270 389L 270 401L 282 401L 294 401L 294 389L 294 377L 282 377L 270 377L 270 389zM 292 388.5L 292 399L 281.5 399L 271 399L 271 389.2C 271 383.8 271.3 379 271.7 378.7C 272 378.3 276.8 378 282.2 378L 292 378L 292 388.5z"/>
<path style="stroke:none; fill:#000000" d="M 758 396.3C 752.8 398 746.6 404.8 744.5 411C 743.5 413.9 742.7 419.4 742.6 423.3L 742.5 430.4L 748 433.5C 751 435.2 758.1 439 763.7 442L 773.9 447.5L 777.6 444L 781.2 440.5L 780.6 445C 779.2 454.3 777.7 459.7 774.4 466.6C 771 473.8 764.1 483.8 760 487.5L 757.8 489.5L 758.5 486.1L 759.2 482.8L 755.9 483.5C 754 483.8 751.9 484.9 751.2 485.8C 747.7 490.2 735 515 733.5 520.3C 731 529.1 732.9 536.3 738.4 538.8C 740.4 539.7 740.8 540.8 741.4 546.8L 742.1 553.7L 758.3 554.4C 777 555.2 790.7 557 800 559.9C 803.5 561 806.8 561.6 807.1 561.2C 807.5 560.8 808.6 553.2 809.5 544.2L 811.3 527.9L 805.7 522.9C 802.7 520.2 799.2 516.1 798.1 513.7C 795.8 508.9 795.3 500.3 797 495.3L 798.1 492.3L 810.8 490.9L 823.5 489.5L 824.6 484.5L 825.7 479.5L 827.5 483.2C 829.6 487.4 829.8 487.5 835.3 485.9C 837.9 485.2 839.5 484 840.3 482.2C 840.9 480.7 841.5 479.4 841.6 479.2C 841.7 479 842.8 479.4 844 480C 845.2 480.6 846.4 480.9 846.7 480.7C 846.9 480.4 843.9 468.6 840 454.4C 831.9 425 828 416.1 819.9 408.5C 812 401.2 804.1 398 790.7 396.8C 771.8 395.2 761.7 395 758 396.3zM 777.5 496C 776.3 497.9 768 503 765.1 503.6C 762.7 504.1 761.6 503.7 759.4 501.5C 757.9 500 757.1 498.5 757.6 498C 758.1 497.5 761.9 496.7 766 496.2C 776.5 494.9 778.2 494.9 777.5 496z"/>
<path style="stroke:none; fill:#000000" d="M 128.4 422.9C 119.1 428.6 123.7 443 134.9 443C 140 443 145 437.6 145 432C 145 428.6 144.4 427.2 141.6 424.4C 137.6 420.4 133.3 419.9 128.4 422.9zM 141.5 426.2C 144.8 430.1 144.7 434.2 141.3 437.9C 135.2 444.4 125 440.7 125 432C 125 423.1 135.8 419.4 141.5 426.2z"/>
<path style="stroke:none; fill:#000000" d="M 205.7 472.5C 205.3 487.9 204.7 506.7 204.4 514.4L 203.7 528.2L 192.3 510.9C 186 501.3 180.4 493.1 179.9 492.5C 179.4 492 184.5 502 191.4 514.8L 203.8 537.9L 202.6 559.9C 202 572 201.3 582.1 201 582.3C 200.7 582.6 194.9 575 188.1 565.4C 181.3 555.8 175.5 548 175.2 548C 175 548 175.4 549 176.2 550.2C 179.6 555.4 199.7 586.6 200.4 587.7C 201.1 589 198.1 656 197.3 657C 197 657.3 180.3 657.7 160.2 658C 135.7 658.4 149.9 658.6 203 658.6C 264.2 658.6 274.3 658.5 247 657.9C 200.6 657.1 204 657.2 204 655.6C 204 654.8 209.8 645.2 216.8 634.3C 235.5 605.3 235.6 604.9 218 629.5C 211.3 638.8 205.5 646.8 205.1 647.2C 204.8 647.6 204.6 636.3 204.8 622.2L 205.2 596.5L 218.7 571.5C 226.2 557.7 233.7 544 235.3 541C 240.9 530.7 236.3 537.4 222 560.5C 214.2 573.1 207.1 584.4 206.3 585.5C 205.1 587.2 205 586 205.6 575.5L 206.2 563.5L 216.7 543.2C 222.4 532.1 226.9 523 226.7 523C 226.4 523 222.1 530.1 216.9 538.7C 211.8 547.4 207.3 554.9 206.8 555.5C 206.4 556 206 547.4 206 536.3L 206 516.2L 211.3 508.6C 214.1 504.4 219.8 496.3 223.8 490.5C 227.8 484.7 230.9 480 230.7 480C 230.5 480 225.2 486.1 218.9 493.6L 207.5 507.2L 207 475.9L 206.5 444.5L 205.7 472.5z"/>
<path style="stroke:none; fill:#000000" d="M 852 608L 852 620L 864 620L 876 620L 876 608L 876 596L 864 596L 852 596L 852 608zM 874.8 608.2L 874.5 618.5L 864.3 618.8L 854 619.1L 854 608.5L 854 598L 864.5 598L 875.1 598L 874.8 608.2z"/>
<path style="stroke:none; fill:#000000" d="M 905 682C 905 682.7 942.2 683 1014.5 683C 1086.8 683 1124 682.7 1124 682C 1124 681.3 1086.8 681 1014.5 681C 942.2 681 905 681.3 905 682z"/>
<path style="stroke:none; fill:#000000" d="M 396 751.6C 385.3 751.8 356.7 752.4 332.5 753C 266.8 754.6 239.8 756.4 253 758.4C 294.1 764.4 691.6 765.5 799 760C 832.9 758.2 834 756.7 802.8 755C 758.3 752.6 705.4 751.9 564.5 751.6C 482.6 751.4 406.7 751.5 396 751.6z"/>
<path style="stroke:none; fill:#000000" d="M 410.5 782.1C 357.9 782.9 311.1 784.5 305 785.9C 301.6 786.6 301.7 786.7 307.5 787.4C 335.9 790.7 508.2 792.7 628.9 791.1C 716 790 755.8 788.9 768 787.3C 773.4 786.7 773.4 786.6 770 785.9C 752.5 782.1 551.7 780 410.5 782.1z"/>
</g>
</g>
</svg>