<?xml version="1.0" encoding="UTF-8" standalone="no" ?>
<!DOCTYPE svg PUBLIC "-//W3C//DTD SVG 1.1//EN" "http://www.w3.org/Graphics/SVG/1.1/DTD/svg11.dtd">
<svg xmlns="http://www.w3.org/2000/svg" xmlns:xlink="http://www.w3.org/1999/xlink" version="1.1" width="208.15625" height="164.27059999999997" xml:space="preserve">
<desc>Created with Fabric.js 1.6.0-rc.1</desc>
<defs></defs>
  <g transform="translate(143.61 133.59) scale(0.62 0.62)">
   <text font-family="Insula" font-size="40" font-weight="normal" style="stroke: none; stroke-width: 1; stroke-dasharray: none; stroke-linecap: butt; stroke-linejoin: miter; stroke-miterlimit: 10; fill:white; fill-rule: nonzero; opacity: 1;" ><tspan x="-31.12" y="8.98" style="stroke: none; stroke-width: 0; stroke-dasharray: none; stroke-linecap: butt; stroke-linejoin: miter; stroke-miterlimit: 4; fill:white; fill-rule: ; opacity: 1;">S</tspan><tspan x="-8.88" y="8.98" style="stroke: none; stroke-width: 0; stroke-dasharray: none; stroke-linecap: butt; stroke-linejoin: miter; stroke-miterlimit: 4; fill:white; fill-rule: ; opacity: 1;">h</tspan><tspan x="11.12" y="8.98" style="stroke: none; stroke-width: 0; stroke-dasharray: none; stroke-linecap: butt; stroke-linejoin: miter; stroke-miterlimit: 4; fill: white; fill-rule: ; opacity: 1;">o</tspan></text>
 </g>
<g style="stroke: none; stroke-width: 1; stroke-dasharray: none; stroke-linecap: butt; stroke-linejoin: miter; stroke-miterlimit: 10; fill:white; fill-rule: nonzero; opacity: 1;" transform="translate(9.999999999999993 10) scale(1.66 1.66)" >
  <path d="M 5.472 65.895 c 0 0 0.333 2.75 3 3.75 s 6.083 0.5 6.083 0.5 s -2.917 2.083 -5.75 1.833 s -4.667 -1.999 -4.75 -3.666 S 4.722 66.395 5.472 65.895 z" style="stroke: none; stroke-width: 1; stroke-dasharray: none; stroke-linecap: butt; stroke-linejoin: miter; stroke-miterlimit: 10; fill:white; fill-rule: nonzero; opacity: 1;" transform=" matrix(1 0 0 1 0 0) " stroke-linecap="round" />
  <path d="M 40.556 54.395 c 0 0 2.5 -1.833 4.25 -4.417 s 2.917 -6.583 2.917 -6.583 s 0.417 5.333 -1.333 7.833 c -1.75 2.5 -5.833 3.417 -5.833 3.417" style="stroke: none; stroke-width: 1; stroke-dasharray: none; stroke-linecap: butt; stroke-linejoin: miter; stroke-miterlimit: 10; fill:white; fill-rule: nonzero; opacity: 1;" transform=" matrix(1 0 0 1 0 0) " stroke-linecap="round" />
  <path d="M 27.389 59.312 c 0 0 1.5 -3 3.917 -3.417 s 4.667 1.667 4.667 1.667 s -2 2.5 -4 2.75 S 27.389 59.312 27.389 59.312 z" style="stroke: none; stroke-width: 1; stroke-dasharray: none; stroke-linecap: butt; stroke-linejoin: miter; stroke-miterlimit: 10; fill:white; fill-rule: nonzero; opacity: 1;" transform=" matrix(1 0 0 1 0 0) " stroke-linecap="round" />
  <path d="M 40.786 68.395 c 0 0 -1.439 3.25 -4.564 5.25 s -6.333 2.417 -6.333 2.417 s -1.167 2.583 -2.167 4.083 s -2.5 5 -2.5 5 s 0.625 -6.125 1.5 -8.5 s 1.625 -4 1.625 -4 s 5.875 -0.125 7.25 -0.875 S 40.786 68.395 40.786 68.395 z" style="stroke: none; stroke-width: 1; stroke-dasharray: none; stroke-linecap: butt; stroke-linejoin: miter; stroke-miterlimit: 10; fill:white; fill-rule: nonzero; opacity: 1;" transform=" matrix(1 0 0 1 0 0) " stroke-linecap="round" />
  <path d="M 63.549 25.723 c -3.398 2.448 -9.695 4.322 -9.695 4.322 s -0.549 -4.152 3.97 -10.504 C 62.342 13.191 64.785 5.618 62.342 0 c 0 0 0.261 7.111 -2.548 11.264 c -2.81 4.153 -4.395 5.912 -4.395 5.912 s -0.996 -5.817 -3.683 -9.848 c -2.687 -4.03 -5.496 -5.496 -5.496 -5.496 s 5.076 5.781 5.904 12.867 c 0.563 4.807 0.203 6.797 0.203 6.797 s -1.405 3.175 -2.503 6.473 c -1.1 3.297 -0.975 5.022 -0.975 5.022 s -11.336 5.512 -12.063 5.353 c -0.726 -0.159 -1.692 -0.467 -0.959 -5.353 c 0.733 -4.884 2.637 -6.978 2.637 -6.978 s -4.031 2.81 -5.252 8.55 c -0.968 4.55 -1.007 8.616 0.104 13.834 c -1.601 0.293 -3.847 0.946 -3.847 0.946 l -0.912 -1.015 c -0.296 -2.66 -3.807 -5.724 -2.637 -11.743 c 1.128 -5.8 3.262 -8.985 3.262 -8.985 s -3.298 2.32 -5.496 7.206 c -0.578 1.283 -0.874 2.158 -1 2.756 c -0.142 0.059 -0.261 0.138 -0.363 0.226 c -1.19 -1.068 -3.125 -2.74 -4.099 -3.226 c -1.465 -0.734 -3.408 -2.131 -3.408 -2.131 s -1.208 -7.153 -1.39 -12.647 c -0.287 -8.682 3.786 -14.535 3.786 -14.535 s -2.711 2.655 -4.313 6.172 c -1.138 2.497 -1.794 6.896 -1.794 6.896 S 8.298 16.367 7.2 13.923 c -1.1 -2.442 -1.833 -5.619 -1.833 -5.619 s -1.1 2.931 0.488 6.962 s 4.886 5.984 4.886 5.984 l 0.669 9.798 c 0 0 -6.913 -2.035 -9.055 -8.362 c -1.461 -4.319 -1.264 -12.061 -1.264 -12.061 s -2.687 8.672 0.366 15.755 c 3.053 7.084 17.099 12.213 19.786 16.366 c 1.554 2.4 2.841 5.245 3.118 6.051 c -0.167 0.099 -0.308 0.212 -0.407 0.343 c -0.733 0.978 -4.208 5.724 -8.072 8.643 c -4.793 3.622 -10.272 6.215 -11.127 6.947 c -0.855 0.733 -2.188 2.32 -0.885 4.733 c 1.062 1.967 3.816 4.061 6.625 3.571 c 2.809 -0.488 4.505 -1.817 8.901 -1.085 c 2.051 0.342 4.653 1.252 6.71 1.598 c -0.469 2.652 -1.877 7.916 -1.078 12.312 c 0.003 0.017 0.007 0.032 0.011 0.048 c 0 0 1.067 -8.205 4.009 -12.145 c 1.161 0.051 2.325 0.011 3.491 -0.178 c 5.129 -0.824 8.244 -5.19 8.244 -5.19 s -5.038 2.626 -10.015 2.442 c -4.41 -0.162 -7.996 -0.73 -11.374 -1.018 c -5.405 -0.458 -9.479 1.278 -9.479 1.278 s -2.37 0.16 -3.888 -1.358 c -1.135 -1.135 -1.144 -2.225 -0.879 -3.195 c 0.126 -0.463 1.187 -1.18 2.296 -1.819 c 0.997 0.134 3.9 0.577 4.836 1.261 c 0.04 0.029 0.076 0.061 0.112 0.092 c -0.724 0.262 -2.619 1.004 -1.572 1.267 c 0.987 0.246 1.917 0.56 2.45 -0.347 c 0.795 0.305 0.4 1.598 0.4 1.598 s 1.389 -0.711 0.757 -2.729 c -0.529 -1.688 -3.536 -2.295 -4.5 -2.447 c 0.128 -0.063 0.201 -0.098 0.201 -0.098 s 7.157 -3.425 10.332 -7.455 c 3.176 -4.03 4.902 -5.517 6.124 -5.272 c 1.222 0.245 2.717 1.313 2.717 1.313 s 0.489 -1.588 3.787 -1.832 c 0.91 -0.068 1.578 0.154 2.068 0.509 l 1.352 3.156 c 0 0 1.773 -3.595 2.994 -5.672 c 1.221 -2.077 7.937 -4.47 7.937 -4.47 s -0.137 5.504 -1.825 7.753 c -1.833 2.443 -5.341 3.344 -5.341 3.344 s 3.323 4.937 4.686 10.651 c 1.149 4.817 4.865 19.952 4.865 19.952 S 49.949 68.23 43.206 55.3 c 1.331 -0.936 2.747 -2.126 3.566 -3.393 c 2.441 -3.786 1.953 -9.405 1.953 -9.405 s -3.176 -0.366 -6.84 0.855 c -1.822 0.608 -2.914 1.518 -3.553 2.281 c -0.311 -0.504 -0.64 -0.743 -0.772 -1.754 c 0.081 -0.163 0.338 -0.85 0.479 -0.958 c 1.099 -0.856 10.772 -4.773 13.373 -6.408 c 8.55 -5.373 19.725 -9.893 19.908 -22.472 C 71.319 14.045 68.989 21.805 63.549 25.723 z M 46.533 45.056 c 0 0 -3.435 1.677 -4.953 3.514 c -1.518 1.837 -3.755 5.592 -3.755 5.592 s 3.435 -2.316 4.793 -4.154 C 43.977 48.171 46.533 45.056 46.533 45.056 z M 31.435 56.08 c -1.811 0.32 -3.515 3.195 -3.515 3.195 c 5.113 1.278 6.816 -2.023 6.816 -2.023 S 33.246 55.76 31.435 56.08 z M 33.085 57.597 c 0 0.427 -0.346 0.772 -0.772 0.772 s -0.772 -0.346 -0.772 -0.772 c 0 -0.426 0.346 -0.771 0.772 -0.771 S 33.085 57.171 33.085 57.597 z" style="stroke: none; stroke-width: 1; stroke-dasharray: none; stroke-linecap: butt; stroke-linejoin: miter; stroke-miterlimit: 10; fill: white; fill-rule: nonzero; opacity: 1;" transform=" matrix(1 0 0 1 0 0) " stroke-linecap="round" />
  <path d="M 52.897 21.942 c 0 0 0.319 2.023 -0.054 2.716 s -1.065 3.781 -1.065 3.781 l -0.053 -1.438 c 0 0 -0.479 1.332 -0.799 2.663 c -0.32 1.332 -0.798 2.77 -0.798 2.77 l 0.052 -2.077 l -0.425 2.184 c 0 0 -0.267 -1.651 0.319 -3.621 C 50.074 28.919 52.151 22.741 52.897 21.942 z" style="stroke: none; stroke-width: 1; stroke-dasharray: none; stroke-linecap: butt; stroke-linejoin: miter; stroke-miterlimit: 10; fill:white; fill-rule: nonzero; opacity: 1;" transform=" matrix(1 0 0 1 0 0) " stroke-linecap="round" />
  <path d="M 37.453 38.611 c 0 0 8.148 -3.461 9.16 -3.994 c 1.012 -0.533 2.396 -1.118 2.396 -1.118 l -2.29 1.384 l 2.077 -0.425 c 0 0 -3.25 1.331 -4.74 2.289 c -1.491 0.958 -3.462 1.757 -3.462 1.757 l 1.331 -1.277 l -4.58 1.438" style="stroke: none; stroke-width: 1; stroke-dasharray: none; stroke-linecap: butt; stroke-linejoin: miter; stroke-miterlimit: 10; fill:white; fill-rule: nonzero; opacity: 1;" transform=" matrix(1 0 0 1 0 0) " stroke-linecap="round" />
  <path d="M 56.04 17.203 c 0 0 1.544 -2.184 2.716 -3.782 c 1.171 -1.598 2.396 -3.888 2.876 -5.378 c 0.479 -1.491 0.639 -3.409 0.639 -3.409 s -0.053 3.622 -0.959 5.646 c -0.905 2.023 -1.543 2.982 -1.543 2.982 l 0.425 -1.225 L 56.04 17.203 z" style="stroke: none; stroke-width: 1; stroke-dasharray: none; stroke-linecap: butt; stroke-linejoin: miter; stroke-miterlimit: 10; fill: white; fill-rule: nonzero; opacity: 1;" transform=" matrix(1 0 0 1 0 0) " stroke-linecap="round" />
  <path d="M 54.921 30.304 c 0 0 6.711 -2.184 9.746 -5.06 c 3.036 -2.876 3.835 -4.527 3.835 -4.527 s -2.716 4.207 -4.9 6.125 c -2.184 1.917 -4.687 2.93 -4.687 2.93 l 1.064 -0.959 L 54.921 30.304 z" style="stroke: none; stroke-width: 1; stroke-dasharray: none; stroke-linecap: butt; stroke-linejoin: miter; stroke-miterlimit: 10; fill:white; fill-rule: nonzero; opacity: 1;" transform=" matrix(1 0 0 1 0 0) " stroke-linecap="round" />
  <path d="M 33.778 34.67 c 0 0 0.373 -2.449 0.852 -3.408 c 0.48 -0.958 1.651 -2.45 1.651 -2.45 S 34.098 33.765 33.778 34.67 z" style="stroke: none; stroke-width: 1; stroke-dasharray: none; stroke-linecap: butt; stroke-linejoin: miter; stroke-miterlimit: 10; fill:white; fill-rule: nonzero; opacity: 1;" transform=" matrix(1 0 0 1 0 0) " stroke-linecap="round" />
  <path d="M 23.287 36.854 c 0 0 1.384 -3.142 2.129 -4.313 c 0.746 -1.171 1.811 -2.502 1.811 -2.502 s -1.864 3.461 -2.291 4.313 C 24.512 35.203 23.287 36.854 23.287 36.854 z" style="stroke: none; stroke-width: 1; stroke-dasharray: none; stroke-linecap: butt; stroke-linejoin: miter; stroke-miterlimit: 10; fill:white; fill-rule: nonzero; opacity: 1;" transform=" matrix(1 0 0 1 0 0) " stroke-linecap="round" />
  <path d="M 15.138 33.605 c 0 -0.054 2.769 1.384 4.26 2.29 c 1.492 0.905 2.716 2.29 2.716 2.29 s -3.355 -1.811 -3.195 -1.811 c 0.16 0 1.278 1.438 1.278 1.438 l -4.74 -2.449 l 1.705 0.159 L 15.138 33.605 z" style="stroke: none; stroke-width: 1; stroke-dasharray: none; stroke-linecap: butt; stroke-linejoin: miter; stroke-miterlimit: 10; fill:white; fill-rule: nonzero; opacity: 1;" transform=" matrix(1 0 0 1 0 0) " stroke-linecap="round" />
  <path d="M 11.623 17.735 c 0.054 -0.16 0.853 -4.9 1.491 -6.178 c 0.639 -1.277 1.545 -2.503 1.545 -2.503 s -1.492 3.409 -1.758 4.314 C 12.635 14.273 11.623 17.735 11.623 17.735 z" style="stroke: none; stroke-width: 1; stroke-dasharray: none; stroke-linecap: butt; stroke-linejoin: miter; stroke-miterlimit: 10; fill: white; fill-rule: nonzero; opacity: 1;" transform=" matrix(1 0 0 1 0 0) " stroke-linecap="round" />
  <path d="M 1.079 18.001 c 0 0 -0.693 5.645 2.982 9.958 c 2.109 2.476 5.113 3.995 5.113 3.995 l -2.716 -2.131 l 5.059 1.864 c 0 0 -4.783 -2.248 -6.71 -4.261 C 1.185 23.646 1.079 18.001 1.079 18.001 z" style="stroke: none; stroke-width: 1; stroke-dasharray: none; stroke-linecap: butt; stroke-linejoin: miter; stroke-miterlimit: 10; fill: #CCA8A6; fill-rule: nonzero; opacity: 1;" transform=" matrix(1 0 0 1 0 0) " stroke-linecap="round" />
  <ellipse cx="32.598" cy="57.474000000000004" rx="0.958" ry="1.084" style="stroke: none; stroke-width: 1; stroke-dasharray: none; stroke-linecap: butt; stroke-linejoin: miter; stroke-miterlimit: 10; fill:white; fill-rule: nonzero; opacity: 1;" transform=" matrix(1 0 0 1 0 0) "/>
</g>
  <g transform="translate(148.06 101.43) scale(0.96 1.08)">
   <text font-family="ADAMCG PRO" font-size="40" font-weight="normal" style="stroke: none; stroke-width: 1; stroke-dasharray: none; stroke-linecap: butt; stroke-linejoin: miter; stroke-miterlimit: 10; fill: #232c47; fill-rule: nonzero; opacity: 1;" ><tspan x="-52.69" y="8.98" style="stroke: none; stroke-width: 0; stroke-dasharray: none; stroke-linecap: butt; stroke-linejoin: miter; stroke-miterlimit: 4; fill:white; fill-rule: ; opacity: 1;">B</tspan><tspan x="-29.17" y="8.98" style="stroke: none; stroke-width: 0; stroke-dasharray: none; stroke-linecap: butt; stroke-linejoin: miter; stroke-miterlimit: 4; fill:white; fill-rule: ; opacity: 1;">u</tspan><tspan x="-1.53" y="8.98" style="stroke: none; stroke-width: 0; stroke-dasharray: none; stroke-linecap: butt; stroke-linejoin: miter; stroke-miterlimit: 4; fill:white; fill-rule: ; opacity: 1;">c</tspan><tspan x="25.54" y="8.98" style="stroke: none; stroke-width: 0; stroke-dasharray: none; stroke-linecap: butt; stroke-linejoin: miter; stroke-miterlimit: 4; fill: white; fill-rule: ; opacity: 1;">k</tspan></text>
 </g>
  <g transform="translate(171.34 133.4) scale(0.62 0.62)">
   <text font-family="Insula" font-size="40" font-weight="normal" style="stroke: none; stroke-width: 1; stroke-dasharray: none; stroke-linecap: butt; stroke-linejoin: miter; stroke-miterlimit: 10; fill: #163f5e; fill-rule: nonzero; opacity: 1;" ><tspan x="-17.78" y="8.98" style="stroke: none; stroke-width: 0; stroke-dasharray: none; stroke-linecap: butt; stroke-linejoin: miter; stroke-miterlimit: 4; fill: #163f5e; fill-rule: ; opacity: 1;">p</tspan><tspan x="2.22" y="8.98" style="stroke: none; stroke-width: 0; stroke-dasharray: none; stroke-linecap: butt; stroke-linejoin: miter; stroke-miterlimit: 4; fill: white; fill-rule: ; opacity: 1;">s</tspan></text>
 </g>
</svg>