<?xml version="1.0" encoding="UTF-8" standalone="yes"?>
<!-- Created with sK1/UniConvertor (http://sk1project.org/) -->
<svg xmlns="http://www.w3.org/2000/svg" xmlns:xlink="http://www.w3.org/1999/xlink"
  width="1037pt" height="902pt" viewBox="0 0 1037 902"
  fill-rule="evenodd">
<g>
<g>
<path style="stroke:none; fill:#000000" d="M 491.5 81.6C 468.9 86.4 450.3 103.9 443.2 127C 441.7 132 441.5 143.2 441.3 249.5C 441.1 313.8 441.1 375.7 441.2 386.9L 441.5 407.4L 444.1 403.4C 445.6 401.2 449.3 396.4 452.4 392.8L 458 386.1L 458 265.3C 458 190.2 458.4 141.9 459 137.5C 460.9 124.3 468.7 111.7 479.2 104.7C 489.7 97.9001 494.4 96.7001 515 96.2001L 533.5 95.8L 533.5 104.2C 533.5 111.7 533.8 113.1 536.3 116.8C 537.8 119.1 540.9 122.2 543.2 123.7L 547.4 126.5L 619.4 126.8C 666.8 127 692.7 126.7 695 126.1C 700.3 124.6 706.6 118.7 708.6 113.5C 709.8 110.2 710.1 107.2 709.8 102.5L 709.2 96.0001L 724.9 96.0001C 733.5 96.0001 743 96.4001 746 96.9001C 763.6 99.8001 777.8 111.5 784.2 128.5L 786.5 134.5L 786.8 439.5C 787 659.7 786.7 746.4 785.9 751.2C 783.4 766.6 773.7 779.6 759.4 786.7L 751.6 790.5L 624.6 790.8C 498.9 791 497.5 791 491.4 789C 474.2 783.3 461.5 768.1 459 750.5C 458.4 746.3 458 704 458 644.8L 458 546.1L 453.3 545.4C 450.6 545 446.8 544.1 444.7 543.4L 440.9 542.1L 441.2 648.8L 441.5 755.5L 444.2 763.5C 452.4 787.6 472 803.7 497.1 807C 502.9 807.8 542.5 808 626 807.8C 737.3 807.5 747 807.3 752.5 805.7C 776.4 798.7 793.5 780.5 798.4 756.7C 799.8 749.9 800 726.8 800 540C 800 331.7 800 331 802 331C 804 331 804 330.3 804 292C 804 253.7 804 253 802 253C 800 253 800 252.3 800 196.1C 800 131.3 799.8 129.1 792.9 115C 784.5 98.0001 767.3 85.0001 748.7 81.5001C 737 79.3001 502 79.4 491.5 81.6z"/>
<path style="stroke:none; fill:#000000" d="M 298.1 275.5C 295.1 276.9 291.9 279.3 281.9 288.3C 279.5 290.4 279.2 291.5 278.5 301.1C 277.9 311.3 278.9 320 280.9 320C 281.3 320 282.7 322.2 284 324.9C 285.9 329 286.2 330.8 285.6 335L 284.9 340.1L 291.7 346.5C 295.4 349.9 301.4 356.6 305 361.4L 311.5 370L 315.6 357.8L 319.6 345.6L 325.6 342.1C 336.4 335.5 341.5 324.2 339.2 311.6C 338.5 308.1 338 303.5 338 301.3C 338 287.1 324.9 275.1 308.5 274.3C 303.7 274.1 300.4 274.5 298.1 275.5z"/>
<path style="stroke:none; fill:#000000" d="M 269 425.4C 281.3 438.1 308.9 459 331.1 472.5C 337.9 476.6 343.8 480 344.2 480C 344.6 480 344.6 479.1 344.2 478.1C 343.8 477 340.3 474.4 336.5 472.4C 319.9 463.7 289.3 442.1 271.6 426.6L 262.5 418.7L 269 425.4z"/>
<path style="stroke:none; fill:#000000" d="M 425.3 445.7C 421.9 446.2 421.9 446.1 420.4 459.1L 419.8 464.7L 426.2 466.5C 444.9 471.8 458 468.1 458 457.5C 458 453.6 453.2 449.6 446.3 447.7C 439.9 445.9 430.2 445 425.3 445.7z"/>
<path style="stroke:none; fill:#000000" d="M 441 516L 441 530.5L 446.9 524C 451.8 518.6 452.6 517.2 451.7 515.9C 451 515 448.9 512.2 447 509.6C 445.1 506.9 443 504 442.3 503.1C 441.3 501.8 441.1 504.4 441 516z"/>
<path style="stroke:none; fill:#000000" d="M 346.6 537.8C 344 539.1 341 539.2 322.1 538.2C 301.4 537.1 254.9 537.7 253.6 539.1C 252.8 539.9 269 617.4 275.9 646C 278.5 656.5 278.5 657.1 276 660C 274.6 661.6 274.3 662.7 275 663.5C 275.8 664.5 275.2 665.6 272.6 667.6C 269.6 670.1 268.9 671.8 266.6 680.6C 264.2 690.2 254.5 716 250.1 724.6C 249 726.7 247.3 730.7 246.2 733.5C 245.2 736.2 241.9 741.6 239 745.5C 232.7 753.8 229 761.2 229 765.8C 229 768.6 229.7 769.5 233.6 772C 236.2 773.6 241.3 776.1 244.9 777.5C 249.9 779.5 252.2 781.1 254.5 784.2C 261.8 794 275.4 804 281.5 804C 287.7 804 293 798.9 293 793C 293 789.2 292.2 787.7 280.7 771.7C 277 766.4 273.3 760.6 272.5 758.8C 271.8 756.9 270.5 754.8 269.6 754.1C 268.4 753.1 268.5 752.3 270.8 748.7C 275.8 740.8 308.3 692.5 315.2 682.8C 323.4 671.2 328.7 660.4 329.6 653.8C 330.3 648.4 332 647.3 332 652.2C 332.1 654 333.1 675.1 334.4 699L 336.7 742.5L 333.9 745.8C 330.9 749.2 330 755.2 331.9 758.8C 332.5 760 332.1 762.8 330.4 767.5C 327.6 775.9 327.4 781 329.8 783.9C 331.6 786.2 342.3 789 349.4 789C 352.3 789 355 790.1 359.4 792.9C 368.6 798.9 378.2 803.1 384.2 803.7C 388.7 804.1 390 803.8 393 801.8C 394.9 800.5 397 797.9 397.8 795.9C 400.1 789.7 398 786.5 384.6 776.5C 378.3 771.8 371.6 766.2 369.8 764.1C 368 762 365.6 760 364.6 759.6C 363.1 759.1 362.9 758.7 363.8 757.8C 365.7 755.9 365.2 750.5 363 747.7L 360.9 745.1L 364.5 739.9C 367.9 734.9 368 734.5 368 725.1C 368 719.8 369.1 696.6 370.4 673.5L 372.8 631.5L 369.4 611.5C 362.6 572.2 353.3 535.7 350.2 536.1C 349.8 536.2 348.2 536.9 346.6 537.8z"/>
</g>
</g>
</svg>