<?xml version="1.0" encoding="UTF-8" standalone="yes"?>
<!-- Created with sK1/UniConvertor (http://sk1project.org/) -->
<svg xmlns="http://www.w3.org/2000/svg" xmlns:xlink="http://www.w3.org/1999/xlink"
  width="1402pt" height="952pt" viewBox="0 0 1402 952"
  fill-rule="evenodd">
<g>
<g>
<path style="stroke:none; fill:#000000" d="M 654.6 81.5C 654.1 82.8 640.7 83 542.1 83L 430.2 83L 426.9 85.7C 420.6 91 421 80.1 421 253.2C 421 401.9 421.1 411.7 422.8 415C 423.7 416.9 426 419.5 427.9 420.7L 431.3 423L 552.5 423L 673.7 423L 677.1 420.7C 679 419.5 681.3 416.9 682.2 415C 683.9 411.7 684 402.8 684 272.2C 684 180.1 684.3 133 685 133C 685.6 133 686 130.2 686 126.5C 686 122.8 685.6 120 685 120C 684.5 120 684 119.3 684 118.5C 684 117.7 684.5 117 685 117C 685.6 117 686 114.4 686 111.1C 686 107.8 685.6 104.8 685 104.5C 684.5 104.2 684 101.9 684 99.4C 684 90.7 679.3 84.2 672.1 83.3C 669.6 82.9 668 82.2001 668 81.4C 668 79.3 655.4 79.4 654.6 81.5zM 674 252L 674 412L 553.5 412L 433 412L 433 252L 433 92L 553.5 92L 674 92L 674 252z"/>
<path style="stroke:none; fill:#000000" d="M 867.9 123.4C 862.3 125.4 858.3 128.7 855.3 133.8L 852.5 138.5L 852.5 257.5L 852.5 376.5L 855.2 381.1C 858.4 386.5 863.8 390.5 870 392C 873.1 392.7 889.5 393 921.5 392.8L 968.5 392.5L 973.2 389.7C 978.4 386.7 982.1 382.3 983.9 377.1C 984.7 374.7 985 351.2 985 294.9C 985 243.5 985.3 215.9 986 215.5C 987.3 214.7 987.3 187.7 986.1 186.4C 985.5 185.9 985 174.8 984.8 161.3L 984.5 137.2L 981.5 132.8C 978 127.9 973.3 124.5 968.1 123C 962.4 121.4 872.4 121.8 867.9 123.4zM 886 131.9C 886 133.6 887 136.1 888.4 137.7L 890.8 140.5L 919 140.5L 947.2 140.5L 949.6 137.7C 951 136 952 133.6 952 131.8L 952 128.7L 960.4 129.2C 970.2 129.7 974.4 131.9 978.2 138.5L 980.5 142.5L 980.5 259.1L 980.5 375.6L 977.7 379.8C 976.2 382.1 973.2 384.9 971 386C 967.1 388 965.7 388 918.2 387.8L 869.3 387.5L 865.6 384.6C 863.5 383 860.9 379.8 859.9 377.4C 858 373.3 858 369.2 858.2 257.2L 858.5 141.4L 861.2 137.3C 864.9 131.7 870.7 129 879.3 129L 886 129L 886 131.9z"/>
<path style="stroke:none; fill:#000000" d="M 1149.8 329.4C 1136.1 334.3 1129.5 341.8 1117.1 366.9C 1107 387.4 1104.3 394.4 1103.3 402.2C 1102.4 410 1103.2 411.6 1109.5 413.4C 1121.1 416.8 1120.5 416.9 1122.8 410.4L 1124.7 404.5L 1125.5 408.5C 1127.2 418.3 1127.3 418.3 1132.5 419.9C 1136.2 421.1 1137.4 421.2 1137.7 420.3C 1138 419.4 1139.5 419.2 1142.4 419.6C 1145.6 420.1 1147.6 419.7 1150.5 418.1C 1152.7 416.9 1155.9 416 1157.7 416C 1161.7 416 1161.7 415.5 1158.1 406.5C 1155.3 399.7 1155.2 399.6 1149.7 397.7C 1139.6 394.4 1130.6 383.7 1129.8 374L 1129.5 370.5L 1137.6 370.2L 1145.7 369.9L 1147.7 365.2L 1149.8 360.5L 1149.9 364.7C 1150 369.6 1150.8 370.3 1155.3 369.5C 1158.6 368.8 1158.8 368.6 1160.5 361C 1161.5 356.6 1162.6 353.3 1163 353.5C 1163.4 353.8 1164 356.8 1164.4 360.2C 1165.7 371.4 1164.5 370.5 1177.2 370.2L 1188.3 369.8L 1187.7 374.5C 1187.3 377.1 1185.8 381.4 1184.4 384L 1181.8 388.8L 1185.5 395.8L 1189.2 402.8L 1194.8 402.4C 1205.5 401.5 1204.6 402.4 1205.2 390.6C 1206.5 365.3 1201.9 350.1 1189.5 339.2C 1178.7 329.7 1161.1 325.4 1149.8 329.4z"/>
<path style="stroke:none; fill:#000000" d="M 382.8 369.7C 385.5 371.6 385.6 373 383.1 373C 378.9 373 367.2 378.3 361.2 382.8C 344 395.8 336.5 416.7 341.5 437.9C 345.8 456.2 361.1 471.7 379.5 476.5C 387 478.4 393 478.5 393 476.6C 393 475.7 390.6 474.9 385.8 474.1C 367 471 351.4 457.7 345.9 440C 337.6 413.4 353.5 384.5 380.2 377.5L 384.9 376.2L 383.3 378.6C 381.8 380.9 381.9 381 384.3 381C 386 381 387.6 379.8 389.5 377.4L 392.2 373.8L 389.4 370.9C 387.5 368.9 385.7 368 383.6 368.1L 380.5 368.1L 382.8 369.7z"/>
<path style="stroke:none; fill:#000000" d="M 1008.6 370.9L 1005.8 373.8L 1008.5 377.4C 1010.4 379.8 1012 381 1013.7 381C 1016.1 381 1016.2 380.9 1014.7 378.6L 1013.1 376.2L 1017.9 377.5C 1034.1 381.7 1048.5 396.3 1053 412.9C 1054.8 419.6 1054.4 432.6 1052.1 440C 1046.6 457.6 1031 471 1012.3 474.1C 1007.4 474.9 1005 475.7 1005 476.6C 1005 480 1020.3 477.1 1030.4 471.7C 1054.5 459 1064.6 428.2 1053.1 402.6C 1047.1 389.2 1033 377.5 1018.5 373.8C 1012.2 372.2 1012.3 372.4 1015.1 370.1L 1017.5 368.1L 1014.4 368C 1012.3 368 1010.5 368.9 1008.6 370.9z"/>
<path style="stroke:none; fill:#000000" d="M 656.8 458.2L 656.5 460.5L 549 461C 430.3 461.6 439 461 435.1 468.1C 433 471.8 433 472 433 609.9L 433 748L 382.3 748.1C 354.3 748.2 330.4 748.6 329 749C 327.6 749.4 350.5 749.8 379.8 749.9L 433 750L 433 756.9L 433 763.8L 427.8 764.5C 421.3 765.4 416.8 768 414 772.6C 412.1 775.6 411.9 777.2 412.2 785.8C 412.5 796.8 414.3 800.5 420.4 803.4C 423.5 804.9 447.9 805 708.8 805L 993.7 805L 997.1 802.7C 1007.3 796 1007.8 774.9 997.9 767.7C 994.5 765.2 988.9 764.1 980.5 764L 973.5 764L 973.8 757L 974.2 750L 1020.5 750L 1066.8 750L 1067.5 753.7C 1068.8 760.7 1072 767.6 1075.5 771C 1078.8 774.2 1079.7 774.5 1087.3 775.2C 1100.2 776.2 1132.1 776.1 1136.3 774.9L 1140 773.9L 1139.4 768.2C 1139 765.1 1138.4 759.7 1138.1 756.2L 1137.3 749.9L 1146.7 750.2L 1156.1 750.5L 1159.3 758C 1167.9 777.8 1175.8 789 1181 789C 1183.6 789 1203 779 1213 772.5C 1220.4 767.7 1226.6 762 1227.5 759.1C 1227.8 758 1227.4 755.5 1226.6 753.6L 1225.1 750L 1253.1 750C 1271 750 1281 749.6 1281 749C 1281 748.4 1270.9 748 1252.6 748L 1224.2 748L 1217.9 736.7C 1214.4 730.6 1203.4 711.8 1193.5 695L 1175.3 664.5L 1179.1 627C 1181.2 606.4 1183.4 586.8 1184 583.5C 1186.5 570.9 1183.7 550.2 1177.9 538.8C 1176 535.2 1176 535.1 1178.5 528.5C 1180.4 523.6 1180.7 521.8 1179.8 521.5C 1175.8 520 1115.5 507 1114.5 507.4C 1112.7 508 1098 538.4 1091.6 554.5C 1081 581.4 1078.4 592.7 1073 637.5C 1066.1 694.8 1064.4 716.7 1065.5 735.7L 1066.2 748L 1020.1 748L 974 748L 974 610.5C 974 461.3 974.3 469.3 968.5 464L 965.8 461.5L 858.4 461.2L 751 461L 751 458.5L 751 456L 704.1 456L 657.1 456L 656.8 458.2zM 706.8 469.2C 708.8 471.2 708.2 474.8 705.5 476.6C 703.2 478.1 702.8 478.1 700.5 476.6C 696.1 473.7 697.7 468 703 468C 704.4 468 706.1 468.5 706.8 469.2zM 955 624.5L 955 764L 947 764C 939.7 764 939 763.8 939 762C 939 760.1 938.3 760 930 760C 921.7 760 921 760.1 921 762C 921 763.8 920.3 764 915.5 764C 910.7 764 910 763.8 910 762C 910 760.1 909.3 760 901 760C 892.7 760 892 760.1 892 762C 892 763.8 891.3 764 886.5 764C 881.7 764 881 763.8 881 762C 881 760.2 880.3 760 872.4 760C 864.7 760 863.8 760.2 863.3 762C 862.9 763.6 861.9 764 858 764C 854.1 764 853.1 763.6 852.7 762C 852.2 760.2 851.3 760 843.6 760C 835.7 760 835 760.2 835 762C 835 763.8 834.3 764 829.5 764C 824.7 764 824 763.8 824 762C 824 760.1 823.3 760 815 760C 806.7 760 806 760.1 806 762C 806 763.8 805.3 764 800.5 764C 795.7 764 795 763.8 795 762C 795 760.1 794.3 760 786 760C 777.7 760 777 760.1 777 762C 777 763.8 776.3 764 771.5 764C 766.7 764 766 763.8 766 762C 766 760 765.3 760 699.5 760C 633.7 760 633 760 633 762C 633 763.8 632.3 764 627.5 764C 622.7 764 622 763.8 622 762C 622 760.2 621.3 760 613.4 760C 605.7 760 604.8 760.2 604.3 762C 603.9 763.6 602.9 764 599 764C 595.1 764 594.1 763.6 593.7 762C 593.2 760.2 592.3 760 584.6 760C 576.7 760 576 760.2 576 762C 576 763.8 575.3 764 570.5 764C 565.7 764 565 763.8 565 762C 565 760.1 564.3 760 556 760C 547.7 760 547 760.1 547 762C 547 763.8 546.3 764 541.5 764C 536.7 764 536 763.8 536 762C 536 760.1 535.3 760 527 760C 518.7 760 518 760.1 518 762C 518 763.8 517.3 764 512.5 764C 507.7 764 507 763.8 507 762C 507 760.2 506.3 760 498.4 760C 490.7 760 489.8 760.2 489.3 762C 488.9 763.6 487.9 764 484 764C 480.1 764 479.1 763.6 478.7 762C 478.2 760.2 477.3 760 469.6 760C 461.7 760 461 760.2 461 762C 461 763.7 460.3 764 456.5 764L 452 764L 452 624.5L 452 485L 703.5 485L 955 485L 955 624.5zM 1135.5 689C 1140.8 706.8 1151.5 739.2 1154.5 746.2C 1155.1 747.8 1154.4 748 1146.2 748L 1137.2 748L 1136.1 739.7C 1135.5 735.2 1132.5 713.7 1129.5 691.9C 1126.5 670.1 1124 651.6 1124.1 650.9C 1124.1 650.1 1125.3 653.5 1126.6 658.5C 1128 663.4 1132 677.2 1135.5 689z"/>
<path style="stroke:none; fill:#000000" d="M 283.9 547.5L 283.5 596.4L 268.6 575C 255.4 555.9 250.6 549.2 252.2 552.5C 252.5 553 259.7 565.7 268.3 580.6L 283.9 607.7L 283.2 635.9L 282.5 664.1L 266.1 642.6C 241.3 610 241.3 610.1 265.1 644.6L 282.2 669.5L 281.5 711C 281.1 733.8 280.7 752.9 280.6 753.5C 280.6 754 282.3 754.5 284.5 754.5C 288.3 754.5 288.5 754.3 288.8 751.2C 289 749 294.6 738.9 304.6 722.4C 313 708.4 319.8 697 319.5 697C 319.2 697 312.2 707.2 303.8 719.7L 288.5 742.5L 288.2 710.3L 288 678.2L 306.6 641.3C 316.9 621.1 324.9 604.9 324.3 605.5C 323.8 606 315.8 619.5 306.5 635.5C 297.3 651.4 289.1 665.2 288.4 666C 287.2 667.2 287 665.4 287 653.7L 287 640L 299.5 614.4C 306.4 600.2 311.9 588.5 311.7 588.3C 311.5 588.2 306 597.6 299.4 609.4L 287.5 630.8L 286.8 605.6L 286.1 580.5L 296.7 564.5C 310.4 543.9 314.2 538 313.6 538C 313.4 538 307.2 545.5 299.8 554.7L 286.5 571.4L 286.2 565C 286.1 561.4 285.6 545 285.1 528.5L 284.3 498.5L 283.9 547.5z"/>
<path style="stroke:none; fill:#000000" d="M 120 749C 120 749.7 142.2 750 184.8 749.9C 221.8 749.9 248.6 749.5 247.5 749C 244.6 747.7 120 747.7 120 749z"/>
<path style="stroke:none; fill:#000000" d="M 1225 782.2C 1225 782.4 1225.9 784.9 1227 787.8C 1230.6 797.1 1229.1 803.1 1222.7 806C 1219.8 807.3 1217.9 807.5 1215.2 806.9C 1213.2 806.5 1210.5 806.3 1209.3 806.7C 1206.3 807.4 1206.3 809.8 1209.4 826.6C 1211.3 837.1 1211.7 841.8 1211.3 849.7C 1210.7 860.9 1211.7 865.4 1215.6 869.1C 1221.6 874.7 1235.6 870.3 1243.3 860.4C 1247.9 854.3 1250.8 846.9 1252.5 836.5C 1253.3 832.1 1254.8 824.7 1255.8 820C 1258.3 809.3 1260 798.4 1260 792.7C 1260 785.5 1259.1 785 1244.4 783.4C 1232.2 782.1 1225 781.7 1225 782.2z"/>
<path style="stroke:none; fill:#000000" d="M 1132.1 803.5C 1129.4 808.8 1128.1 810.5 1125.3 811.7C 1121.1 813.4 1117 812.7 1112 809.4C 1104.3 804.4 1104.2 804.4 1095.5 818.2C 1091 825.3 1085.1 833 1081.4 836.6C 1069.8 848.1 1064.7 858.8 1068 864.9C 1071.3 871.2 1090.1 874 1102.8 870.1C 1110.9 867.7 1118.5 861.6 1121.8 854.9C 1123.6 851.4 1124.9 850.4 1131.2 847.6C 1138.9 844.2 1146.2 839.6 1149.4 836.1C 1153.3 831.8 1149.2 818.7 1138.7 802.2L 1135.3 796.9L 1132.1 803.5z"/>
</g>
</g>
</svg>