<?xml version="1.0" encoding="UTF-8" standalone="yes"?>
<!-- Created with sK1/UniConvertor (http://sk1project.org/) -->
<svg xmlns="http://www.w3.org/2000/svg" xmlns:xlink="http://www.w3.org/1999/xlink"
  width="1186pt" height="741pt" viewBox="0 0 1186 741"
  fill-rule="evenodd">
<g>
<g>
<path style="stroke:none; fill:#000000" d="M 581.1 83.5C 578.4 87.5 577.5 87.6 578.9 83.6C 579.8 81.4 579.7 81 578.2 81C 571.6 81 559.1 88.4 554 95.3C 549.3 101.6 546.9 109.3 546.8 117.6C 546.8 124.1 547.3 125.9 551.5 135.2C 554 140.8 557.2 146.9 558.6 148.7C 559.9 150.4 560.8 152.5 560.5 153.2C 560.3 153.9 559.6 156.4 559 158.7C 557.9 163 557.9 163 553.4 163C 549.4 163 548.5 163.5 544.5 167.5C 541.4 170.7 537 173.5 529.8 176.9C 497.4 192.2 489.6 196.4 487.1 199.9C 485.2 202.6 470.5 243 465.1 260.5C 461.2 273.2 459 283.2 459 289.2C 459 295 460.5 296.9 477.4 311.7C 484.1 317.6 489.8 323.3 490.2 324.4C 491.2 327.9 491.1 339 489.9 341.2C 489.3 342.3 487.3 345.2 485.5 347.5C 483.8 349.9 481.5 353.8 480.5 356.2C 478.8 360.3 477.9 361 468.1 366C 429.4 386.1 404.8 403.6 399.6 414.4C 398.1 417.5 397.9 419.5 398.5 424.9C 401.8 456.4 418.9 524.4 429.2 546.6C 431.3 551.1 431.5 552.6 430.9 557.6C 430.5 560.9 430.1 566.1 430.1 569.2L 430 575L 275 575C 172.3 575 120 575.3 120 576C 120 576.7 175.8 577 285.5 577C 401.3 577 451 577.3 451 578.1C 451 578.6 450.5 578.8 450 578.5C 449.4 578.1 447.6 578.1 446 578.5L 443 579.2L 443 587.6L 443 596L 435.9 610.3C 432 618.1 426.8 627 424.4 630.1C 419 637.1 415.3 644.1 414.4 648.7C 413.9 651.5 414.2 652.6 415.9 654.3C 422.2 660.7 449.9 652.7 461.6 641.2C 466.5 636.4 468.2 633.5 469.4 627.8C 470.2 624 474 619.9 482.6 613.5C 491 607.2 497.1 600 500.6 592.5C 503.6 586.2 503.6 582.3 500.8 579.3L 498.7 577L 552 577L 605.4 577L 601.6 580.9C 597.3 585.3 596.7 589 599.4 595.4C 602.1 601.9 609.8 611.8 614.8 615.2C 624.1 621.6 629.9 627.9 631.6 633.6C 635.3 646.4 651.2 656.8 671.8 660C 677.6 660.9 679.4 660.9 682.4 659.6C 685.7 658.2 686 657.7 686 654.2C 686 649.6 682.7 642.9 676.4 634.8C 674 631.6 668.9 622.7 665 615L 658 601L 658 592.1C 658 582.5 657.7 582.1 651.1 582C 649.4 582 648.9 581.6 649.4 580.4C 649.7 579.5 650 578.4 650 577.9C 650 577.4 709 577 798.5 577C 896.8 577 947 576.7 947 576C 947 575.3 900.7 575 810 575L 673 575L 673 561.4C 673 547.9 673.1 547.6 677.4 534.6C 688.3 502.4 702 441.9 702 426.3C 702 423.3 701.3 419.3 700.4 417.4C 695.8 407.7 666.9 387.5 634.4 371.2C 626.6 367.3 626.2 366.9 626.2 363.8C 626.2 362 625.4 358.5 624.6 356.1C 623.7 353.7 623.2 351.5 623.4 351.3C 623.6 351.1 626.8 349.8 630.6 348.4C 634.4 347.1 639.9 344.4 642.8 342.4C 654.4 334.7 684.2 308.4 686.7 303.7C 689.9 297.4 685.7 280.1 670.9 238.5C 663.8 218.6 659.9 209.1 657.4 205.7C 652.3 198.6 642.6 192 622.5 181.9C 602 171.5 599 169.3 599 164.1C 599 159.8 599.4 159.3 604.7 155.4C 610.3 151.3 614.5 145.9 616.5 140.2C 617.4 137.6 618.6 134.7 619.1 133.8C 620.7 130.6 622.2 117.6 621.6 112.1C 620.7 104.6 618 98.9999 612.3 92.8999C 607.2 87.3999 598.8 81.9999 595.4 81.9999C 594.3 81.9999 592.5 82.8999 591.5 83.9999C 589 86.7999 587.9 86.4999 589 83.3999C 590.4 79.8999 590.4 79.9999 586.8 79.9999C 584.2 79.9999 583 80.7 581.1 83.5zM 573.5 191.4C 578.7 191.3 583.8 190.6 587.9 189.2L 594.3 187.1L 593.7 192.2C 593.2 196.5 591.5 199.6 584.1 210.9L 575.1 224.5L 574 244.5C 573.4 255.5 572.7 266.9 572.3 269.7L 571.7 275L 560 275L 548.2 275L 549.1 271.2C 551.2 262.3 553.1 243.1 554.5 216.8C 555.3 201.2 556 188 556 187.3C 556 186.6 557.9 187.2 560.8 188.8C 564.9 191.1 566.6 191.5 573.5 191.4zM 512.5 299.8C 512.1 300.3 501 290.7 501 289.8C 501 289 505.1 278.8 509.3 269C 510.2 267 510.6 269.6 511.6 283C 512.2 292.1 512.7 299.6 512.5 299.8zM 641.9 286.3C 644.2 293 646 298.8 646 299.1C 646 299.5 641.3 303.6 635.5 308.4C 629.7 313.1 625 316.4 625 315.7C 625 315 626.6 307.9 628.5 299.9C 632.1 285.5 635.9 274 637.2 274C 637.5 274 639.7 279.5 641.9 286.3zM 576.8 295.2C 577.5 295.9 578 297.6 578 299C 578 300.4 577.5 302.1 576.8 302.8C 576.1 303.5 574.4 304 573 304C 571.6 304 569.9 303.5 569.2 302.8C 568.5 302.1 568 300.4 568 299C 568 297.6 568.5 295.9 569.2 295.2C 569.9 294.5 571.6 294 573 294C 574.4 294 576.1 294.5 576.8 295.2zM 483.2 447.9C 478.3 452.7 472.2 459.6 469.5 463.1C 466.8 466.6 464.3 469.9 464 470.3C 463.6 470.8 461.6 467.9 459.7 463.8C 457.7 459.7 455.2 455.6 454 454.5C 451.9 452.6 451.9 452.6 471.7 445.9C 482.6 442.2 491.6 439.2 491.8 439.1C 491.9 439 488.1 443 483.2 447.9z"/>
<path style="stroke:none; fill:#000000" d="M 860 456C 860 458 860.7 458 943 458C 1025.3 458 1026 458 1026 456C 1026 454 1025.3 454 943 454C 860.7 454 860 454 860 456z"/>
<path style="stroke:none; fill:#000000" d="M 771.2 478.2L 771.5 498.5L 787.7 498.8L 803.9 499L 804.6 506L 805.3 513L 816.1 513L 827 513L 827 485.5L 827 458L 799 458L 771 458L 771.2 478.2z"/>
<path style="stroke:none; fill:#000000" d="M 860 471C 860 473 860.7 473 943 473C 1025.3 473 1026 473 1026 471C 1026 469 1025.3 469 943 469C 860.7 469 860 469 860 471z"/>
<path style="stroke:none; fill:#000000" d="M 860 485.5L 860 488L 943 488L 1026 488L 1026 485.5L 1026 483L 943 483L 860 483L 860 485.5z"/>
<path style="stroke:none; fill:#000000" d="M 254 494.5L 254 497L 275.3 497C 293.1 497 297.8 496.7 303.9 495.1C 307.9 494 311.4 492.9 311.7 492.6C 312.1 492.3 299.2 492 283.2 492L 254 492L 254 494.5z"/>
<path style="stroke:none; fill:#000000" d="M 860 500C 860 502 860.7 502 943 502C 1025.3 502 1026 502 1026 500C 1026 498 1025.3 498 943 498C 860.7 498 860 498 860 500z"/>
<path style="stroke:none; fill:#000000" d="M 254 509C 254 510.9 254.7 511 279 511C 303.8 511 304.1 511 303 509C 302 507.1 300.9 507 278 507C 254.7 507 254 507.1 254 509z"/>
<path style="stroke:none; fill:#000000" d="M 860 515C 860 517 860.7 517 916.9 517C 973.3 517 973.8 517 973.3 515C 972.8 513 971.9 513 916.4 513C 860.7 513 860 513 860 515z"/>
<path style="stroke:none; fill:#000000" d="M 1019 515C 1019 516.6 1019.7 517 1022.5 517C 1025.3 517 1026 516.6 1026 515C 1026 513.4 1025.3 513 1022.5 513C 1019.7 513 1019 513.4 1019 515z"/>
<path style="stroke:none; fill:#000000" d="M 254 524C 254 526 254.6 526 281.6 526C 307.3 526 309.1 525.9 308.8 524.2C 308.5 522.6 306.3 522.5 281.2 522.2C 254.5 522 254 522 254 524z"/>
<path style="stroke:none; fill:#000000" d="M 254 538.5L 254 541L 283 541L 312 541L 312 538.5L 312 536L 283 536L 254 536L 254 538.5z"/>
<path style="stroke:none; fill:#000000" d="M 254 553C 254 555 254.7 555 287.5 555C 320.3 555 321 555 321 553C 321 551 320.3 551 287.5 551C 254.7 551 254 551 254 553z"/>
</g>
</g>
</svg>