<?xml version="1.0" encoding="UTF-8" standalone="yes"?>
<!-- Created with sK1/UniConvertor (http://sk1project.org/) -->
<svg xmlns="http://www.w3.org/2000/svg" xmlns:xlink="http://www.w3.org/1999/xlink"
  width="1204pt" height="647pt" viewBox="0 0 1204 647"
  fill-rule="evenodd">
<g>
<g>
<path style="stroke:none; fill:#000000" d="M 285 148.6C 238.5 182.4 200 210.4 199.3 210.8C 198.4 211.3 199 216.1 201.6 229.4C 203.4 239.2 205.1 247.5 205.3 247.6C 205.5 247.8 242.7 221 288 188.1L 370.3 128.2L 380.9 135.9C 486.2 212.6 535.2 248.1 535.4 247.9C 536.4 246.6 542.1 211.7 541.4 211C 539 208.9 370.8 87 370.2 87C 369.8 87 331.5 114.7 285 148.6z"/>
<path style="stroke:none; fill:#000000" d="M 911 244.1C 908.5 245.2 905.3 247.3 903.8 248.7L 901.2 251.2L 894.7 248.6C 891.1 247.2 887.9 246 887.6 246C 887.3 246 887 247.4 887 249.1C 887 254.1 883.1 271.8 879.9 281.5C 876.3 292.4 869.8 306 863.4 315.8L 858.7 323.1L 861.7 326.3C 863.4 328.1 888.6 354.3 917.8 384.7C 963.1 431.8 970.9 440.4 971.2 443.2C 971.5 446 972 446.6 975.5 447.6C 981.8 449.5 994 449.3 1000.9 447.1C 1018.2 441.7 1030.7 426.5 1031.8 409.5L 1032.2 402.2L 1041.4 401.8C 1048.7 401.5 1051.6 400.8 1056.2 398.6C 1070 392 1078 380.3 1078.8 365.7C 1079.5 351.5 1073.6 339.8 1061.5 331.9L 1055.3 327.7L 1054.7 322.1C 1053.4 307.4 1041.2 295.6 1025.9 294.3C 1020.5 293.8 1020.2 293.6 1021 291.6C 1022.9 286.4 1023.2 278.3 1021.6 271.9C 1017 254.1 1003.4 243.1 984.9 242.2C 974.5 241.7 967.5 243.5 960.1 248.4L 955 251.9L 949.4 248.9C 946.3 247.3 942.8 246 941.6 246C 940.3 246 936.7 245.1 933.5 244C 925.9 241.4 916.9 241.4 911 244.1z"/>
<path style="stroke:none; fill:#000000" d="M 810.7 365.8L 801 371.3L 801 434.6L 801 497.9L 804.3 497.4C 806 497.1 808.7 496.4 810.3 496L 813 495.1L 813 528.6C 813 557.6 813.2 562 814.5 562C 815.8 562 816 557.5 816 527.9L 816 493.8L 818.3 494.3C 819.5 494.6 823 495.6 826 496.5C 829 497.3 832.1 497.8 832.8 497.5C 833.7 497.2 834 503.7 834 528L 834 559L 836.5 559L 839 559L 839 527.5L 839 496.1L 841.3 494.8C 842.5 494.2 846.5 493.5 850.1 493.5C 867.4 493 879.3 482.8 881.5 466.5L 882.1 461.5L 888.1 461.3L 894 461.2L 894 505.6C 894 549.3 894 550 896 550C 898 550 898 549.3 898 504.6L 898 459.2L 901.3 457.1C 903.1 456 905.4 454.2 906.3 453.2C 907.9 451.5 906.6 449.9 878.8 420.9C 862.8 404.2 843.1 383.7 835 375.4L 820.3 360.3L 810.7 365.8z"/>
<path style="stroke:none; fill:#000000" d="M 146.5 395.4C 139.5 398.4 135.7 406.6 138 413.6C 139.2 417.1 139.1 417.3 136.1 419.7C 131.3 423.5 127.9 431 127.9 437.9C 127.8 443.7 129.8 450 132.6 453.1C 133.9 454.6 133.7 455 130.6 457.3C 118.9 466.3 121.5 484.7 135.2 490.5C 137.3 491.3 139.8 492 140.9 492C 142.4 492 143.1 492.9 143.6 495.7C 145 503.3 149.5 508.7 156.6 511C 160.9 512.4 168.3 511.7 171.6 509.5C 172.9 508.7 174.2 508 174.5 508C 174.8 508 175 521 175 537C 175 565.3 175 566 177 566C 179 566 179 565.3 179 538.7L 179 511.5L 189 511.5L 199 511.5L 199 538.7C 199 556.2 199.4 566 200 566C 200.6 566 201 556 201 537.9L 201 509.8L 203.3 510.5C 208.4 512.1 217.8 512.2 220.9 510.7L 224 509.2L 224 537.6C 224 565.3 224 566 226 566C 228 566 228 565.3 228 537.9L 228 509.9L 230.3 510.7C 231.5 511.1 235.4 511.5 239 511.4C 251.9 511.3 261.6 502.7 263.5 489.7L 264.2 485L 268.9 485C 289.1 484.9 297.7 458.4 281.3 446.5C 278.1 444.1 277 442.7 276.5 439.5C 275.1 431.4 267.2 424 259.9 424C 257.4 424 257.3 423.8 257.8 418.5C 258.4 410.9 256.1 405.1 250.3 400.1C 244.7 395.1 237.4 393.2 230.6 394.9C 228.2 395.5 224.8 396 223.3 396C 221.7 396 218.8 396.9 216.7 397.9C 214.4 399.1 212.8 399.4 212.4 398.8C 212 398.2 209.9 397 207.6 396C 204.4 394.6 201.1 394.3 192 394.4C 179.4 394.7 176.2 395.7 170.3 401.3C 168.5 403 166.9 404.2 166.7 403.9C 166.5 403.7 165.6 402.2 164.6 400.7C 162.7 397.6 155.9 394 152 394.1C 150.6 394.1 148.1 394.7 146.5 395.4z"/>
<path style="stroke:none; fill:#000000" d="M 966.2 451.3L 963 454.6L 963 499.8L 963 545L 966.5 545L 970 545L 970 496.5C 970 469.8 969.9 448 969.7 448C 969.5 448 968 449.5 966.2 451.3z"/>
</g>
</g>
</svg>