<?xml version="1.0" encoding="UTF-8" standalone="yes"?>
<!-- Created with sK1/UniConvertor (http://sk1project.org/) -->
<svg xmlns="http://www.w3.org/2000/svg" xmlns:xlink="http://www.w3.org/1999/xlink"
  width="1184pt" height="929pt" viewBox="0 0 1184 929"
  fill-rule="evenodd">
<g>
<g>
<path style="stroke:none; fill:#000000" d="M 308.6 113.1C 307.7 118 307.7 118 313.3 118C 319.1 118 335.6 120.4 340.9 122C 344.9 123.1 346 122.2 346 117.5L 346 114.5L 335.7 114.4C 326.9 114.2 316.3 112.6 310.9 110.5C 309.7 110 309.1 110.7 308.6 113.1z"/>
<path style="stroke:none; fill:#000000" d="M 359.4 231.2C 348.6 242.8 328.5 255.7 319.7 256.7C 315.9 257.2 315 256.9 313.7 254.9C 311.6 252 312.9 249.7 318.3 246.1C 320.4 244.8 321.9 243.5 321.7 243.4C 321.1 242.8 286.9 252 283.9 253.5C 282.3 254.4 280.7 255.7 280.4 256.5C 280.1 257.2 280.8 261.2 281.9 265.2C 284.9 275.9 284.9 301.9 282 310.6C 278.7 319.9 278.6 325.9 281 345C 283.6 365.2 283.3 372.8 279.5 384.6C 276.7 393.7 272.1 401.9 264.3 411.6C 260.2 416.8 259 419 259.5 420.7C 259.9 422.5 258.9 424.1 254.9 428.2C 252.1 431.1 247.8 435.5 245.4 438C 241.8 441.8 241 443.3 241 446.3C 241 448.4 239.9 452.3 238.5 455.1C 237.1 457.8 236.2 460.5 236.5 460.9C 236.8 461.4 238.7 461.4 240.7 460.9C 246.8 459.5 260.2 459.9 266.1 461.6C 272.4 463.4 278.8 466.9 284.7 471.6C 287 473.5 290 475 291.4 475C 293.7 475 293.8 475.3 293.3 478.7L 292.7 482.4L 295.6 480.3C 302.6 475.4 315 474.5 326.6 478.1C 333 480 348 487.3 352.4 490.5C 354.2 491.9 353.5 494 333.7 539.2L 313.1 586.5L 312.5 600.5C 311.3 627.4 307.4 654.2 302.4 670.1C 301 674.4 295.7 686.2 290.5 696.3C 281.8 713.5 279.4 719.6 271.4 745.9C 271.1 746.7 270.2 747 268.7 746.6C 263.4 745.1 236.1 743.6 233.8 744.7C 231.9 745.6 229.5 751.1 220.1 776.6C 209 806.9 208.7 807.6 203.5 813C 189.2 828 181.3 839.6 182.3 844.5L 182.7 847L 151.4 847C 131.1 847 120 847.4 120 848C 120 848.7 275.8 849 585.5 849C 894.1 849 1051 848.7 1051 848C 1051 847.3 1003.8 846.9 912.8 846.8L 774.5 846.5L 773.1 841.5C 771 834 771.2 814.9 773.4 807.5C 779.8 786.1 794 775.8 807.5 782.8L 811.4 784.8L 814.9 777.6C 826.2 754.1 848.5 749.1 863.9 766.6C 867.9 771.2 875 783.9 875 786.6C 875 788.5 875.4 788.4 880.3 784.9C 885.5 781.3 890.7 779.9 895.5 781C 898.9 781.8 899 781.7 902.4 775.6C 909.2 763.6 919.5 756 929.3 756L 934 756L 934 616L 934 476L 673.6 476L 413.3 476L 412.6 479.8C 411.8 485 408.9 487.5 403.9 487.4C 399.4 487.2 395 483.8 393 478.9C 391.8 476 391.7 476 382.8 476L 373.8 476L 376.8 472.2C 380.8 467.1 381.8 465 383.1 459C 384 454.7 384.5 454 386.1 454.5C 387.9 455.1 388 454.6 388 447.3C 388 443 387.3 421.7 386.5 400C 385.1 363.8 384.5 356.6 379.4 314C 373.2 262 372.8 251.5 376.8 241C 381.7 228.3 390.4 225.5 397.6 234.4C 400 237.4 400.1 237.4 399.8 235.1C 399.6 233.5 398.3 231.9 396.3 230.7C 392.3 228.4 379.7 226.1 370.9 226L 364.3 226L 359.4 231.2zM 913 496.5L 913 505L 890.5 505L 868 505L 868 496.5L 868 488L 890.5 488L 913 488L 913 496.5zM 487 627.5L 487 636L 409 636L 331 636L 331 627.5L 331 619L 409 619L 487 619L 487 627.5zM 593 654.5L 593 660L 462 660L 331 660L 331 654.5L 331 649L 462 649L 593 649L 593 654.5zM 578.8 677.2L 578.5 682.5L 454.8 682.8L 331 683L 331 677.5L 331 672L 455.1 672L 579.1 672L 578.8 677.2zM 511.8 700.2L 511.5 705.5L 426.3 705.8L 341.2 706L 337.1 701.1C 334.8 698.4 333 695.9 333 695.6C 333 695.3 373.3 695 422.6 695L 512.1 695L 511.8 700.2zM 252 834L 252 847L 230.8 846.9C 219.1 846.8 210.6 846.5 212 846.3C 220.6 844.8 232 841.6 236.4 839.4C 243.4 835.9 246.5 832.7 249.1 826.4C 250.3 823.4 251.4 821 251.6 821C 251.8 821 252 826.8 252 834z"/>
<path style="stroke:none; fill:#000000" d="M 284.5 504.4C 282.3 507.2 275.1 516 268.5 524C 261.9 532 255.5 539.8 254.2 541.4C 252.2 544.1 252 545.3 252 558.4L 252 572.6L 257 579.5C 259.8 583.4 263.5 589 265.3 592L 268.5 597.5L 269.1 587C 269.5 579.9 270.5 574.5 272 570.5C 274 564.9 289.4 500 288.8 499.5C 288.6 499.3 286.7 501.5 284.5 504.4z"/>
<path style="stroke:none; fill:#000000" d="M 252 672.2C 252 681.6 252.2 689.1 252.4 688.9C 252.6 688.7 254.2 683.2 255.9 676.7L 259.1 664.8L 255.9 659.9C 254.2 657.2 252.6 655 252.4 655C 252.2 655 252 662.7 252 672.2z"/>
</g>
</g>
</svg>