<?xml version="1.0" encoding="UTF-8" standalone="yes"?>
<!-- Created with sK1/UniConvertor (http://sk1project.org/) -->
<svg xmlns="http://www.w3.org/2000/svg" xmlns:xlink="http://www.w3.org/1999/xlink"
  width="1117pt" height="799pt" viewBox="0 0 1117 799"
  fill-rule="evenodd">
<g>
<g>
<path style="stroke:none; fill:#000000" d="M 905.5 146.5C 895.1 150.2 891.6 164 898.7 172.8L 901.7 176.4L 895.9 180.1C 877.9 191.8 871.7 217.2 882.5 235.6C 884.9 239.7 893.9 249.4 894.6 248.7C 894.8 248.5 894.1 246.6 893 244.4C 892 242.3 890.8 238.1 890.4 235.2L 889.7 230L 897.2 230L 904.8 230L 906.8 225.2L 908.8 220.5L 908.9 224.7C 909 228.9 909.1 229 912.5 229C 916.1 229 916.6 228.2 918.6 218.1C 919.5 213.6 920.7 215.9 921.6 223.7L 922.2 230L 934.5 230C 946.5 230 946.9 229.9 947.3 227.7C 947.5 226.5 947.8 228.2 947.8 231.5C 947.9 236.9 947.4 239 944.5 246.5C 942.5 251.7 952.5 239.8 955.8 233.1C 959.4 225.8 959.5 225.3 959.5 214.6C 959.5 204 959.3 203.2 956.1 196.8C 952.5 189.5 944.6 181.2 938.6 178.3C 936 177.1 935.1 176.2 935.6 175.1C 938.8 167.2 937.8 160.6 932.6 155.4C 925.8 148.6 915.7 148.9 908.8 156.1C 904.6 160.5 903 166.8 904.9 172.1C 905.9 174.9 905.8 175.1 904.4 173.9C 901.6 171.6 900 167.2 900 161.7C 900 155.1 902.7 150.6 908.5 147.3C 913 144.8 911.5 144.4 905.5 146.5z"/>
<path style="stroke:none; fill:#000000" d="M 430.9 180.7C 429.2 185.4 428.8 191.2 429.8 201.4L 430.8 211.3L 423.9 237.9C 420.2 252.5 417.2 264.6 417.4 264.7C 418.5 265.8 432.2 269 440 270C 449.1 271.2 456.8 270.8 464.3 268.9C 468 267.9 468 267.9 468 262.7C 468 256.5 464.5 241 459.6 224.9L 456.1 213.4L 458.4 205.9C 460.3 199.4 460.5 198.2 459.3 196C 458 193.8 458 185.7 459.1 181.1C 459.4 180.3 458.4 179.4 456.8 179C 454.2 178.2 453.8 178.5 450.8 184.2C 447.7 190 443.9 194 441.5 194C 438.5 194 436.5 189.8 436.6 183.9C 436.7 178.3 436.6 178 434.3 178C 432.7 178 431.6 178.8 430.9 180.7z"/>
<path style="stroke:none; fill:#000000" d="M 948.4 278.1C 948.5 283.8 948.3 284.3 944.9 287.5C 938.2 293.6 924.2 294.6 914.4 289.7C 909.8 287.4 904.8 283 901.6 278.5C 900.2 276.6 900 276.6 897.2 278.2C 895.4 279.3 892.1 280 889.1 280C 882.7 280 870.4 284.6 863.8 289.5C 854.8 296.1 855.1 294 856 346.5C 856.4 374.3 856.3 399.2 855.8 409.4C 854.2 436.4 856.7 458.5 862.1 465.4C 863.9 467.7 864.8 468 870.3 468C 878.9 468 879.7 468.7 877 474C 875 477.8 875 478.1 876.7 477.7C 877.7 477.4 890.2 475.2 904.5 472.9L 930.5 468.6L 952.8 471.1C 965 472.4 974.9 473.3 974.8 473C 974.6 472.7 973.2 470.1 971.7 467.1C 968.2 460.6 968.7 460 977.9 460C 982.5 460 984.9 460.5 986.2 461.7C 987.9 463.2 988 463.1 988 458.9C 988 456.5 988.7 452.2 989.5 449.5C 992.2 440.9 993.3 420.9 992.2 401.8C 991.7 391.6 991.6 365.5 992 338.5C 992.9 285.3 993.3 288.2 983 280.6C 974.9 274.6 966.8 272 956.4 272L 948.3 272L 948.4 278.1zM 889.5 407.7C 889.2 409.1 888.6 410 888.3 409.6C 887.6 409 884.1 382 884.2 378.5C 884.2 377.4 885.5 383 887.2 390.9C 888.8 398.8 889.9 406.4 889.5 407.7z"/>
<path style="stroke:none; fill:#000000" d="M 616 349C 609.4 352.5 608.7 352.5 605.2 350.1C 602.6 348.3 602 348.3 591 349.7C 578 351.3 576 352.5 573.9 360.3C 572.6 365 571.1 375.3 571.5 375.8C 571.7 376 573.4 375.7 575.2 375.2C 577 374.6 580.1 374 582 373.8L 585.5 373.5L 586.2 381.5C 586.6 385.9 587.2 392.6 587.5 396.5L 588.1 403.5L 600.3 403.6C 607 403.7 616.5 404.5 621.4 405.4C 626.2 406.3 630.3 407 630.4 406.8C 630.6 406.6 632.1 401.3 633.9 394.9L 637.2 383.4L 644.6 380.6C 648.7 379 652.3 377.4 652.6 376.9C 653.3 375.7 651.1 367.3 648.4 361.3C 645.4 354.3 642.2 352.4 629.6 350C 626.9 349.4 623.9 348.4 623.1 347.6C 621.7 346.4 620.8 346.6 616 349z"/>
<path style="stroke:none; fill:#000000" d="M 840.2 530.8C 831.6 552.5 830.3 570.7 835.9 591.9C 840.6 610.1 848 634.3 857 661.1L 864.9 684.8L 861.5 695.6C 855.9 712.9 856.9 718.6 865.5 718.4C 873.5 718.2 878.4 712.9 882.4 700.1C 883.6 695.9 885.9 690.7 887.4 688.5C 890.6 683.8 890.7 678.7 887.5 678.2C 886.4 678 884.5 677.1 883.2 676.2C 881 674.5 880.9 673.8 880 649C 878.9 621.3 877.1 603 874.1 589.3C 870.9 574.8 871.4 575.4 862.3 574.6C 858 574.2 852.1 573.6 849.3 573.3L 844 572.7L 843.8 547.6L 843.5 522.5L 840.2 530.8z"/>
<path style="stroke:none; fill:#000000" d="M 951.8 572.9C 944.8 574.3 938.9 575.8 938.6 576.1C 937.4 577.3 934.9 611.2 934.9 626.5C 934.8 635.3 935.4 649.2 936 657.5C 936.7 665.7 937.2 679.5 937.2 688.1C 937.1 703.2 937.2 703.8 939.5 707.1C 940.9 708.9 942 711.1 942 712.1C 942 713 942.9 714.9 944.1 716.4C 945.9 718.6 946.9 719 951.6 719C 958.6 719 962.7 716.9 964.7 712.3C 966.6 707.5 965.8 704.6 960.4 698.7C 957.2 695.1 956 692.9 956 690.6C 956 688.9 955.3 686.2 954.5 684.6C 953.1 682 953.3 680.1 957.4 659C 964.8 621.5 969 591.2 969 576.4C 969 568.8 970.2 569 951.8 572.9z"/>
</g>
</g>
</svg>