<?xml version="1.0" encoding="UTF-8" standalone="yes"?>
<!-- Created with sK1/UniConvertor (http://sk1project.org/) -->
<svg xmlns="http://www.w3.org/2000/svg" xmlns:xlink="http://www.w3.org/1999/xlink"
  width="1363pt" height="832pt" viewBox="0 0 1363 832"
  fill-rule="evenodd">
<g>
<g>
<path style="stroke:none; fill:#000000" d="M 763 273.5L 763 415.1L 751.3 414.8L 739.5 414.5L 739.2 381.2L 739 348L 707.5 348L 676 348L 675.8 381.2L 675.5 414.5L 663.3 414.8L 651 415.1L 651 343L 651 271L 634 271L 617 271L 617 261.5L 617 251.9L 607.8 252.2L 598.5 252.5L 598.2 261.7L 597.9 271L 581 271L 564 271L 564 320.4L 564 369.8L 574.6 385.6C 596.3 418 607 446 607 470.4C 607 487.7 603.5 504 597.3 516.5C 590.6 529.8 580.1 540.5 568.3 546.3L 564 548.4L 564 571.7L 564 594.9L 560.8 595.4C 559 595.7 549.2 597.1 539 598.5C 528.8 599.9 519.5 601.3 518.4 601.6L 516.2 602.2L 516.6 583.3C 517.4 548.5 515.8 554.4 530.6 531.5C 549.7 502.1 549.8 501.2 531.5 527C 525 536.1 519.3 543.9 518.8 544.5C 518.3 545.1 518 535.2 518.2 518.5L 518.5 491.5L 534.8 462C 558.6 419.2 558.6 419.1 535.4 456.1L 519 482.4L 519 470.6L 519 458.8L 523.4 450.7C 533 432.6 542.1 415 541.7 415C 541.4 415 536.4 423.1 530.5 433C 524.6 442.9 519.5 451 519.3 451C 519 451 519.1 441.3 519.5 429.3L 520.3 407.7L 531.9 391.1C 538.3 382 544 373.8 544.4 373C 545.8 370.6 543.5 373.1 531.4 387.4L 520.5 400.3L 520 370.9L 519.5 341.5L 518.6 379.5C 518.1 400.4 517.5 418.3 517.1 419.3C 516.6 420.7 513.6 416.8 504.6 402.8C 491.2 382.1 488.9 379.1 494.7 390C 496.9 394.1 502.9 405.2 507.9 414.7L 517.1 431.8L 515.8 455.6L 514.5 479.4L 502.3 462.4C 482.7 435.2 482.7 435.7 502.3 465.9L 514.3 484.4L 512.7 516.4C 511.8 534.1 510.6 560 510 574C 509.4 588 508.7 600.4 508.5 601.5C 508.2 603.2 506.6 603.9 501.2 605.2C 476.3 611.2 471.2 618.8 487.9 625.1C 540.6 644.8 750.3 655.9 957.5 649.9C 1133.4 644.9 1242.3 628 1208.9 610.9C 1201.3 607.1 1177.8 601.5 1156.8 598.5L 1152 597.9L 1152.1 587.2C 1152.2 581.3 1152.5 570.6 1152.9 563.5L 1153.5 550.5L 1162.6 536.5C 1177.4 513.7 1181 508 1180.6 508C 1180.4 508 1174.2 516.3 1167 526.5C 1159.8 536.7 1153.7 545 1153.5 545C 1153.4 545 1153.5 533 1153.7 518.2L 1154.2 491.5L 1171.1 460.6C 1180.4 443.6 1187.9 429.6 1187.7 429.4C 1187.6 429.3 1182 438 1175.2 448.8C 1168.5 459.6 1160.9 471.6 1158.5 475.5L 1154 482.5L 1154.6 470L 1155.2 457.5L 1166.1 436.6C 1172.1 425 1176.8 415.5 1176.7 415.3C 1176.5 415.2 1172.7 421.2 1168.2 428.8C 1163.7 436.3 1158.9 444.3 1157.5 446.5L 1155 450.5L 1155.2 429L 1155.5 407.5L 1166.4 392C 1172.4 383.5 1178.2 375.1 1179.2 373.5C 1181.7 369.7 1181 370.5 1167 386.9L 1156.5 399.3L 1156 366.9L 1155.5 334.5L 1154.7 363.5C 1154.3 379.4 1153.7 399 1153.4 406.9L 1152.7 421.2L 1140.6 402.7C 1127.3 382.3 1124.8 379.1 1130.2 389C 1132.1 392.6 1138 403.6 1143.3 413.5L 1152.8 431.5L 1151.5 454.3C 1150.8 466.8 1150.1 477.2 1149.9 477.4C 1149.7 477.7 1143.3 469.1 1135.7 458.4C 1128 447.7 1121.6 439 1121.4 439C 1121 439 1125.3 445.7 1143.1 473.1L 1150 483.7L 1148.1 520.1C 1147 540.1 1145.8 565.1 1145.4 575.6C 1145.1 586.2 1144.5 595.2 1144.1 595.8C 1143.7 596.4 1138.6 596.2 1129.3 595.2L 1115 593.7L 1115 571.4L 1115 549.2L 1107.3 544.9C 1097.5 539.6 1086.7 529 1081.5 519.7C 1068.6 496.5 1066.4 464.3 1075.6 436C 1080.9 419.9 1097.4 390 1110.6 372.9C 1114.1 368.3 1115 366.4 1115 363.1L 1115 359.1L 1106.3 358.8L 1097.5 358.5L 1097.2 318.7L 1097 279L 1085 279L 1073 279L 1073 216.5L 1073 154L 1046 154L 1019 154L 1018.8 173.2L 1018.5 192.5L 993.3 192.8L 968 193L 968 162.5L 968 132L 949.5 132L 931.1 132L 930.8 143.2L 930.5 154.5L 865.8 154.8L 801 155L 801 143.5L 801 132L 782 132L 763 132L 763 273.5zM 836 202.5L 836 211L 815.5 211L 795 211L 795 202.5L 795 194L 815.5 194L 836 194L 836 202.5zM 628 358.5L 628 367L 607.5 367L 587 367L 587 358.5L 587 350L 607.5 350L 628 350L 628 358.5zM 923 383.5L 923 392L 902.5 392L 882 392L 882 383.5L 882 375L 902.5 375L 923 375L 923 383.5zM 836 510.5L 836 519L 815.5 519L 795 519L 795 510.5L 795 502L 815.5 502L 836 502L 836 510.5zM 728 542L 728 551L 707.5 551L 687 551L 687 542L 687 533L 707.5 533L 728 533L 728 542z"/>
<path style="stroke:none; fill:#000000" d="M 263.6 218.5C 258.5 220.3 253.4 225.4 251.4 230.7C 248.2 239.1 251.9 250.7 259 254.8L 261.8 256.4L 259.5 260.5C 255.6 267 253.7 276.4 254.3 285.3C 255.6 304.7 271.3 322 290.3 324.8C 295.4 325.6 296.2 325.5 297 323.9C 298.8 320.7 298.1 318.8 293.6 314.8C 291.1 312.7 288.8 310 288.5 309C 288.1 307.7 287 307 285.5 307C 280.6 307 279.4 299.1 283.5 294.6C 284.9 293.1 286 291.5 286 291.1C 286 290.7 288.4 291.5 291.2 292.9C 296.1 295.3 297.5 295.5 309.5 295.5C 321.5 295.5 322.9 295.3 328.3 292.8L 334 290.1L 334 296.1C 334 301.8 332.3 307.6 329.7 311C 329 311.9 329.8 311.2 331.4 309.6C 335.6 305.1 339.8 295.4 340.9 288C 342.8 273.8 338.2 260.3 328.1 250.7C 319.2 242.2 308.9 238 296.9 238L 291.3 238L 290.7 233.9C 289.9 227.8 286 222.7 279.9 219.6C 274 216.7 269.5 216.4 263.6 218.5z"/>
<path style="stroke:none; fill:#000000" d="M 283 439.6C 283 452.1 281.7 458.9 278 465.5C 273.2 474 265.5 503.4 263.5 521C 262.7 528.7 263.6 529.6 276.1 533C 294.1 537.9 304.2 539.3 321.5 539.4C 338.8 539.5 344.6 538.5 349.6 534.5L 352.5 532.2L 346.7 503.8C 341 475.6 341 475.5 341.6 462.8L 342.3 450.1L 327.7 443.2C 319.7 439.3 311.2 435.9 308.9 435.5C 306.6 435.1 303.3 434.2 301.6 433.5C 299.8 432.7 295 431.5 290.7 430.7L 283 429.2L 283 439.6z"/>
<path style="stroke:none; fill:#000000" d="M 301.2 686.6C 300 687.4 299 689.2 299 690.6C 299 692.7 298.5 693 295.7 693C 293 693 292.2 692.5 291.4 690.1C 290.6 688.2 289.4 687.1 287.4 686.7C 285.8 686.4 284.3 686.4 284.1 686.6C 283.9 686.8 283.5 689.2 283.2 691.9L 282.8 696.9L 275.6 697.4C 271.7 697.7 262.2 698.2 254.5 698.5C 219.2 700 180.3 704.2 155.9 709.1C 139.7 712.3 131.8 714.8 125.4 718.5C 117.7 723 118.6 727.3 128.3 731.9C 156.1 745 242.9 753 345.5 751.7C 422.5 750.7 475.1 746.1 509.5 737.3C 545.9 728 540.9 717.3 496.3 708.6C 471.7 703.9 431.7 699.8 396 698.4L 378.7 697.7L 376.2 694.8C 374.8 693.3 373.1 692 372.5 692C 370.1 692 366 696.2 366 698.6C 366 700.7 365.5 701 362.5 701C 359.6 701 358.8 700.5 358 698.5C 356.9 695.6 352.5 694.2 349.9 695.9C 348.7 696.6 342.2 697 331.7 697L 315.3 697L 311 691C 306.4 684.7 304.9 684 301.2 686.6z"/>
</g>
</g>
</svg>