<?xml version="1.0" encoding="UTF-8" standalone="yes"?>
<!-- Created with sK1/UniConvertor (http://sk1project.org/) -->
<svg xmlns="http://www.w3.org/2000/svg" xmlns:xlink="http://www.w3.org/1999/xlink"
  width="1339pt" height="986pt" viewBox="0 0 1339 986"
  fill-rule="evenodd">
<g>
<g>
<path style="stroke:none; fill:#000000" d="M 615.7 83.4C 613 85.3 609.4 87.2 607.7 87.4999C 601.1 88.9 599.7 90.7 593.4 106.4C 592.1 109.7 591 114 591 115.9C 591 117.9 590.5 121.3 590 123.5C 589.1 127.5 590.4 136 592 136C 592.4 136 593 137.7 593.4 139.7C 594.3 145.5 598.4 153.4 602.9 158.3C 606.7 162.4 607.1 163.4 608.1 171.1C 609.4 181.2 609.3 183.5 603 288.5C 595.4 413.3 591 481.8 586.9 536.5C 583.5 582.5 582.6 587.5 577.2 589.9C 573.5 591.6 573.5 591.4 575 611.5C 576.2 627.5 578.7 675.4 579.6 699.1L 580.3 716.6L 583 716.2C 595.6 714.4 598.1 737.5 586.9 753C 585.1 755.5 583.3 757 582.5 756.6C 581.4 756.2 581.2 759.7 581.3 776.7L 581.5 797.3L 574 799.6C 556.7 805 541.3 806.3 529.1 803.5C 525.6 802.6 516.4 799.3 508.6 796.1C 500.9 792.8 491.6 789.2 488 788.1C 467.6 781.4 444.3 779.7 432 783.9C 425.2 786.3 419.9 789.1 416.4 792.2C 414.3 794.1 413.2 794 344.9 785.1C 263.4 774.4 205.4 767.4 159.3 762.5C 123.5 758.7 120 758.5 120 759.9C 120 761.1 121.1 761.2 157.5 765C 209.7 770.5 382.3 791.8 408 795.9C 411 796.4 422.1 800.1 432.5 804C 470.6 818.4 523.1 834.6 560.3 843.6L 576.2 847.4L 572.1 850.8C 566.9 855.1 562.8 862 563.2 865.7C 563.7 870.5 568.4 872.3 580.8 872.3C 596.8 872.3 614.5 868.9 630.4 862.8C 639.3 859.4 636.4 859.3 667.5 863.5C 723.9 871 794.5 874.9 839.7 873.1C 867.2 871.9 876.8 871.1 900.8 867.9L 917 865.6L 943.8 869.3C 1081.4 888.4 1128.9 894.8 1181 901.1C 1215.8 905.3 1219 905.5 1219 904C 1219 902.9 1218.1 902.8 1193.5 900C 1163.6 896.7 935.3 866.1 928.2 864.5C 926.9 864.2 926.1 863.6 926.4 863.2C 926.9 862.4 894.7 853.1 882.5 850.5C 878.7 849.7 867.9 848.6 858.5 848C 834.2 846.6 825.1 844.5 821 839.2C 818.3 835.9 818.5 831.4 821.5 818.8C 824.4 806.9 824.6 799.5 822.4 792C 818.2 777.7 797.3 766.7 764.5 761.5C 759 760.6 754.3 759.6 754 759.4C 753.2 758.6 749.4 670.9 750.1 670.4C 750.5 670.2 763.8 667.1 779.6 663.5C 811.9 656.1 812.1 656 816.6 646.5L 819 641.5L 819 595.7C 819 568 818.6 550 818.1 550C 817.6 550 816.1 550.4 814.8 550.9C 813.5 551.3 811.3 552 809.8 552.4L 807 553L 807 546.7C 807 543.2 807.3 540.1 807.6 539.7C 807.9 539.4 809.4 539.6 810.9 540.1L 813.5 541.1L 810.7 538.3C 808.2 535.6 808 535 808.6 529.4L 809.2 523.4L 804.9 522C 802.6 521.2 797.3 520.6 793.3 520.6L 786 520.6L 784 514C 780.1 500.9 769 486.9 758.4 481.7C 753.7 479.5 753.4 478.9 755 474.4C 755.5 472.8 756.4 468.7 756.8 465.2L 757.7 459L 744.1 454.6L 730.5 450.2L 729.3 457.9C 728.7 462.1 727.9 467.6 727.5 470.1L 726.9 474.8L 720.5 476C 702.6 479.4 690.6 490.2 684.4 508.7C 681.1 518.5 677.6 524.6 674.7 525.4C 673.5 525.7 667.9 526 662.3 526C 655.2 526 650.4 526.6 646.1 527.9L 640 529.8L 640 526.1C 640 524.1 639.3 510.3 638.5 495.5C 635.6 441 634.8 397.5 635.3 338.3C 635.6 306 636.3 273.2 636.9 265.5C 640.6 218 645.1 192.6 652.5 177.6C 654.8 172.9 656 169.1 656 166.3C 656 163 656.7 161.3 659.6 157.9C 664.6 151.9 666.7 147.5 669.7 136.2C 671.6 129.2 672.3 123.9 672.4 117C 672.5 104.5 671.3 101.7 664.5 98.4999C 661.7 97.0999 658.9 95.9999 658.3 95.9999C 657.8 95.9999 656.4 94.5999 655.2 92.9999C 653.4 90.5999 652.2 89.9999 649.1 89.9999C 646.8 89.9999 644.3 89.2 642.7 87.9999C 638.7 84.7999 629.8 81.0999 624.9 80.4C 621 79.9 620 80.3 615.7 83.4zM 725.7 498.2C 725.8 503.9 726.3 509.7 726.9 511.3C 729.2 517.2 734.1 515.6 740.7 506.6L 745 500.8L 745 510.3C 745 522.9 744.8 523 732.1 523C 726.7 523 720.9 523.3 719.2 523.6C 716.4 524.2 716 523.9 715.3 521.4C 713.9 515.6 714.6 500.8 716.6 495.5C 718.4 490.9 721.4 488.1 724.5 488C 725.2 488 725.6 491.9 725.7 498.2zM 761 492.2C 767.7 496 776.4 504.8 780.7 512.1C 786.2 521.4 786.3 521 777.4 521C 773 521 766.5 521.3 762.9 521.6L 756.3 522.3L 756.3 509.9C 756.3 500.9 755.9 496.3 754.7 493.2C 752.7 488 753.5 487.9 761 492.2zM 709 495.7C 705.8 500.9 703.5 508.8 702.4 517.9C 701.8 523.7 701.7 523.8 698.1 524.4C 696.1 524.7 691.9 525 688.7 525L 682.8 525L 683.5 520.7C 684.7 513 686.1 510.2 691 505.6C 694.9 501.9 710.3 491 711.6 491C 711.8 491 710.6 493.1 709 495.7zM 661 686.3C 665.7 686.2 674.4 685.2 680.3 684.2C 688 682.8 691.3 682.6 691.5 683.4C 692.9 687.4 711 757 711 758.1C 711 759.3 708.4 759.9 699.8 760.8C 685.6 762.4 662.5 767 649.5 770.9C 644 772.5 639.4 773.8 639.3 773.6C 639.1 773.5 640.1 754.5 641.5 731.4C 642.9 708.4 644 687.8 644 685.8L 644 682L 648.3 684.3C 651.8 686.1 653.9 686.5 661 686.3z"/>
<path style="stroke:none; fill:#000000" d="M 530 492.6C 530 493.1 529.3 498 528.5 503.5C 526.7 516.2 526.6 534.2 528.4 539.3C 531.4 547.5 536.8 549.4 542 544.2C 545.4 540.8 546.9 535.5 548 524.2C 548.8 514.7 548.2 497 546.9 495.4C 546.4 494.8 543.4 494 540.3 493.6C 537.1 493.2 533.6 492.7 532.3 492.4C 531 492 530 492.2 530 492.6z"/>
<path style="stroke:none; fill:#000000" d="M 354 821.7C 351.5 821.8 346.7 822.2 343.2 822.6L 337 823.2L 338.6 825.8C 342.5 832.5 342.5 832.5 346.7 829.9L 350.4 827.6L 348.1 831.3C 346.9 833.3 346.1 835.4 346.4 835.8C 346.7 836.3 340.5 837 332.7 837.4C 324.9 837.8 316.4 838.3 313.8 838.7L 309 839.3L 310.6 841.9C 314.5 848.5 314.5 848.5 318.7 845.9L 322.4 843.6L 320.1 847.4L 317.7 851.2L 319.8 853.2L 321.8 855.3L 326.9 852.1C 329.7 850.4 332.3 849 332.6 849C 332.9 849 331.7 851 330 853.5L 327 857.9L 330.6 858.6C 344.4 861.2 365 853.7 365 846.1C 365 843.4 365.3 843.2 370.3 842.7C 382.6 841.4 393 835.5 393 830C 393 826.3 390 823.5 384.5 822.1C 380.5 821.1 365.2 820.9 354 821.7zM 359.4 835.5C 358.5 836.9 356.9 838 355.9 838C 353.2 838 353.6 836.8 356.8 834.8C 360.7 832.5 361.3 832.6 359.4 835.5z"/>
<path style="stroke:none; fill:#000000" d="M 354 862.7C 351.5 862.8 346.7 863.2 343.2 863.6L 337 864.2L 338.6 866.8C 342.5 873.5 342.5 873.5 346.7 870.9L 350.4 868.6L 348.1 872.4L 345.7 876.2L 347.8 878.2L 349.8 880.3L 354.9 877.1C 357.7 875.4 360.3 874 360.6 874C 360.9 874 359.7 876 358 878.5L 355 882.9L 358.6 883.6C 363.7 884.5 374.6 883.5 380.7 881.5C 395.2 876.6 397.3 866.3 384.5 863.1C 380.5 862.1 365.2 861.9 354 862.7z"/>
<path style="stroke:none; fill:#000000" d="M 652 884.7C 649.5 884.8 644.7 885.2 641.2 885.6L 635 886.2L 636.6 888.8C 640.5 895.5 640.5 895.5 644.7 892.9L 648.4 890.6L 646.1 894.4L 643.7 898.2L 645.8 900.2L 647.8 902.3L 652.9 899.1C 655.7 897.4 658.3 896 658.6 896C 658.9 896 657.7 898 656 900.5L 653 904.9L 656.6 905.6C 661.7 906.5 672.6 905.5 678.7 903.5C 693.2 898.6 695.3 888.3 682.5 885.1C 678.5 884.1 663.2 883.9 652 884.7z"/>
</g>
</g>
</svg>