<?xml version="1.0" encoding="UTF-8" standalone="yes"?>
<!-- Created with sK1/UniConvertor (http://sk1project.org/) -->
<svg xmlns="http://www.w3.org/2000/svg" xmlns:xlink="http://www.w3.org/1999/xlink"
  width="1234pt" height="838pt" viewBox="0 0 1234 838"
  fill-rule="evenodd">
<g>
<g>
<path style="stroke:none; fill:#000000" d="M 786 81.4C 786 81.6 786.9 83.7 787.9 86.1C 794.5 101.1 804.1 157 814.4 240C 816.9 260.1 819.7 283.5 820.5 292C 821.4 300.5 822.3 308.1 822.6 308.8C 822.8 309.6 824.8 308.8 828.7 306.3C 837 301 851.4 294.4 859.8 292.1C 868.8 289.6 884.2 287.8 893.4 288.2L 900.3 288.5L 905.8 278.7C 908.8 273.3 911 268.6 910.6 268.2C 910.1 267.8 904.6 267.6 898.2 267.7C 879.4 267.9 860.4 274 843.2 285.2C 839.8 287.4 836.8 289.1 836.6 288.9C 836.4 288.7 835 278.1 833.5 265.5C 825.2 192.6 816.9 133.8 809.8 97.2L 806.7 80.9999L 796.3 80.9999C 790.7 80.9999 786 81.2 786 81.4z"/>
<path style="stroke:none; fill:#000000" d="M 684.4 112.1C 685.8 113.8 687.3 116.2 687.6 117.5C 688.3 120.2 686.5 126.3 684.6 127.9C 683.6 128.7 683.3 128.2 683.2 125.5C 683 121.3 680.8 117.7 677.4 116.2C 673.9 114.5 667.8 114.7 665.2 116.6C 662.6 118.4 660 123 660 125.8C 660 127.3 659.1 128 656.3 128.5C 647.8 130.1 639.3 136.8 635.7 144.9C 632.7 151.4 632.8 161.9 635.8 168.1C 637.9 172.4 645.9 181.5 646.8 180.6C 647 180.4 646.4 178.8 645.6 177.1C 643.7 173.6 643.5 166.2 645.2 162.6C 646.1 160.5 646.7 160.2 648.9 160.8C 650.3 161.2 655.1 161.5 659.5 161.5C 665.9 161.5 668.2 161.1 671.2 159.3L 674.9 157.1L 676.9 159.6C 679.8 163.2 680.5 170.1 678.8 175.5C 677.9 178 677.6 180 678.1 180C 680 180 687.1 170.4 688.3 166.1L 689.6 161.5L 684 157.9C 677.1 153.5 676 151.3 679.2 148.7C 680.8 147.3 682.5 146.9 685.2 147.3C 687.3 147.6 689 147.5 689 147.2C 689 146 684.8 139.5 682.4 136.9L 679.9 134.3L 684.4 129.7C 691.1 123 691.7 117.4 686.2 111.7C 682.7 108 681.2 108.3 684.4 112.1z"/>
<path style="stroke:none; fill:#000000" d="M 957 137.6C 946.3 140.6 931.3 144.7 923.6 146.6L 909.7 150.1L 907.1 147.6C 903.6 144.2 901.7 144.3 898.6 148C 895.1 152.2 893.7 157.9 893.6 167.5C 893.6 176.9 895.1 182.7 898.6 187C 901.7 190.7 904 190.8 907.6 187.5C 909.1 186.1 911.1 185 912.1 185C 913.1 185 921.9 183.4 931.6 181.5C 941.3 179.6 949.6 178 950.1 178C 950.7 178 950.9 243.7 950.8 343.2L 950.5 508.5L 896.7 590.4C 866.7 636 843.1 672.9 843.4 673.6C 845.3 678.4 847.9 674.8 897.1 599.7C 924.3 558.2 946.6 524.9 946.8 525.5C 947 526.2 939.9 563.8 931 609.1C 922.1 654.4 913.7 697.5 912.3 704.8C 910.4 714.9 910 718.4 910.9 719.3C 914.4 722.8 915 720.4 932.5 630.4C 941.9 582.1 949.9 541.8 950.2 541C 950.6 540.2 950.9 561.4 950.9 588.1C 951 638.4 951.1 639.4 954.8 637.1C 955.7 636.6 956.1 620.6 956.2 577.7L 956.5 518.9L 997.6 581.7C 1020.3 616.2 1044.5 653.2 1051.4 663.8C 1060.7 678 1064.5 683 1065.8 682.8C 1066.7 682.6 1067.6 681.7 1067.8 680.7C 1068 679.7 1050.1 651.5 1025.4 613.7C 1001.8 577.9 976.6 539.3 969.3 528.1L 956 507.8L 956 342.4C 956 251.4 956.1 177 956.3 177C 956.4 176.9 964.4 175.5 974 173.7L 991.5 170.5L 992.1 163.5C 992.5 159.6 993.1 151 993.4 144.2L 994 132L 985.2 132.1C 977.8 132.1 973.5 133 957 137.6z"/>
<path style="stroke:none; fill:#000000" d="M 226.8 295.1C 231.9 297.6 235.6 302.8 236.4 308.5L 237 312.5L 235.5 308.5C 232.6 301 227 297 219.5 297C 209.4 297 202.9 303 202.3 312.8C 202 317.3 202.4 319.3 204.2 322.5C 206.9 327.2 213.6 331 219.1 331L 222.8 331L 221 336.8C 220 340 218.2 351.8 217.1 363.1C 216 374.3 214.8 385.2 214.5 387.4L 213.9 391.3L 216.3 389.7C 218.6 388.2 218.8 388.3 220.6 390.5C 221.8 391.9 224 393 226.3 393.4C 230 393.9 230.2 393.7 231.7 390.2L 233.3 386.5L 234.5 390C 235.3 392.5 236.4 393.6 238.1 393.9C 240.9 394.3 295.4 392.1 298.8 391.4C 300.6 391 302.5 392.3 307.3 396.9C 310.7 400.1 314.2 402.9 315 403C 319.4 403.7 319.7 403.2 320.2 395.2C 320.8 386.5 324 377.8 327.4 375.5C 330.8 373.1 335.5 373.6 337.9 376.6C 339.1 378.1 340 380.2 340 381.2C 340 382.9 340.5 383.1 342.8 382.6C 348.2 381.3 350.5 378.7 350.8 373.6C 351.2 367.9 348.8 360.1 345.5 356.6C 341.9 352.7 338.8 352.4 329.2 355.3C 320.6 357.9 320.5 357.9 318.5 356C 316.9 354.5 315.6 354.2 312.7 354.7C 309.6 355.2 308.5 354.8 306.4 352.9L 303.9 350.6L 306.2 348.9L 308.4 347.2L 306 345.1C 304 343.4 302.7 343.1 299.1 343.6C 292.3 344.5 292.5 344.2 292.5 354.3C 292.5 362.8 292.2 364.1 289.2 370L 286 376.5L 290.6 380.7C 293.1 383.1 294.8 385 294.2 385C 292.3 385 279.1 371.9 275.4 366.3C 271.7 360.7 266.4 347.3 267.4 346.2C 267.8 345.9 269.2 346.7 270.5 348C 273.6 350.9 273 351.2 288.3 339.2C 299.1 330.7 299.2 330.7 298.5 327.1C 297.2 319.7 295.9 316.3 293 311.8C 287.1 302.9 276.7 300.7 262.7 305.4C 258.7 306.7 253.1 308.3 250.2 308.9C 247.3 309.5 243.5 310.6 241.7 311.3L 238.5 312.7L 238.3 308.8C 238 304.5 236.1 300.3 233.4 297.9C 231 295.8 225.5 293 223.8 293C 223.1 293 224.4 294 226.8 295.1zM 303.9 344.9C 305.2 345.7 304.7 348 303.2 348C 301.5 347.9 299.8 346.1 300.4 345.1C 301.3 343.8 302 343.7 303.9 344.9zM 315.8 389.9C 314.7 394.1 313.7 397.7 313.4 397.9C 313.2 398.1 308.9 394.3 303.9 389.4C 293.9 379.5 294.3 380.8 297.6 369.3L 299.2 363.8L 308.5 373L 317.7 382.2L 315.8 389.9zM 325 373.6C 325 375.2 322.4 375.5 321.5 374C 321.2 373.4 321.1 372.6 321.5 372C 322.3 370.7 325 371.9 325 373.6z"/>
<path style="stroke:none; fill:#000000" d="M 606.5 294.1C 593.2 295.1 570.3 299.8 549.3 305.8C 539.8 308.6 518 313.8 500.8 317.6C 483.6 321.3 469.4 324.5 469.2 324.6C 469 324.7 469.4 328.7 470.1 333.4C 471.1 340.7 471.6 342 472.9 341.5C 477.2 339.7 488.3 338 495.2 338C 503.7 338 519.3 335.3 534 331.3C 543.3 328.8 543.9 328.7 566.5 329.4C 599.5 330.4 627.9 331.9 632.1 333.1C 636.8 334.3 643.4 341.4 646.6 348.5C 652.3 361.5 656 384.7 656 407.8L 656 422.5L 665.8 463.5L 675.6 504.5L 680.6 504.8C 683.3 505 687.2 504.6 689.3 504C 692.9 503 693 502.8 693 498.2C 693 491.4 688.7 465.2 684.4 445.5C 682.3 436.1 680.5 425 680.3 420.7C 679.6 408.8 686.6 357.9 692.5 331.5C 694.7 321.8 696.9 308.6 697 305.4C 697 304.6 694.9 304.8 690.6 306C 681.2 308.7 666.5 310.3 659.6 309.5C 651.7 308.6 644 305.9 636.7 301.4L 630.9 297.8L 628.9 300.4C 627.7 301.9 625.8 303 624.5 303C 621.7 303 618 298.7 618 295.4C 618 294.1 617.7 293.1 617.3 293.1C 616.8 293.2 612 293.6 606.5 294.1z"/>
<path style="stroke:none; fill:#000000" d="M 439.4 303.5C 438.4 307.6 439.5 344.2 440.8 347.2C 442.4 351 447 350.9 455.7 347L 462.4 343.9L 458.7 340.9C 456.7 339.2 455 337 455 335.9C 455 333.1 457.8 326.9 460.1 324.4L 462.1 322.2L 458.3 319.4C 452.6 315.3 447 309.8 447 308.4C 447 306.9 442.2 301 440.9 301C 440.4 301 439.8 302.1 439.4 303.5z"/>
<path style="stroke:none; fill:#000000" d="M 691.6 511.2C 690.7 512.4 690 513.9 690 514.5C 690 515.2 687.8 515.5 683.8 515.3C 680.3 515.1 676.9 515.3 676.2 515.8C 675.4 516.3 674.6 520.9 674 528.1C 673.5 534.4 672.4 542 671.6 545C 669.4 552.6 669.6 553.7 672.9 557.1C 678.5 562.7 685.6 560.7 692.1 551.7C 694.5 548.4 695 546.7 695 542.1C 695 539 695.5 533.6 696.1 530C 697.5 521.3 697.4 517.2 695.5 512.7C 694.7 510.7 693.8 509 693.5 509C 693.3 509 692.4 510 691.6 511.2z"/>
<path style="stroke:none; fill:#000000" d="M 361.9 528.4C 355.8 530.8 330 548.9 330.6 550.5C 330.9 551.2 334.5 554.6 338.6 557.9C 345.5 563.6 346 564.3 346 567.9C 346 570.9 345.1 572.9 342.1 576.8C 334.5 586.4 324 593.4 310.5 597.9C 291 604.4 274.3 604.5 222 598.9C 216.2 598.3 210.5 597.4 209.3 596.9C 207.1 596.1 207 596.2 207 602.3C 207 609.2 210.7 624.8 216.8 644.1C 220.6 655.8 220.8 657.1 220.6 667.5C 220.3 678.3 220.2 678.8 215 691.5C 210.4 702.6 209.7 705.4 209.8 710.6C 209.9 721.3 218.4 750.6 222.6 755C 224.7 757.2 225.9 757.5 231.4 757.5C 238.7 757.5 240.9 756.1 244.1 749.8C 247.3 743.5 248.9 734.8 251.6 709.7L 252.2 703.8L 254.4 705.9C 256.5 707.9 256.8 707.9 261.7 706.5C 269.7 704.1 275.9 699.3 280.5 692C 284.5 685.6 284.5 685.5 284.4 676C 284.3 668 282.1 654.1 279.4 644.4C 278.9 642.4 279.5 642.1 287.9 640.6C 292.8 639.7 303.2 638.1 310.9 637.1C 322 635.6 325.8 634.7 329.3 632.7C 334.9 629.4 343.5 620.1 349.8 610.5L 354.8 602.9L 355.5 611.7C 355.8 616.5 356.5 623.5 357 627.1C 357.9 633.4 357.7 634.5 353.5 649C 348.6 665.7 348.1 669 350.6 669C 351.9 669 352.1 669.7 351.6 672.7C 350.4 680 349 695.6 349 701.7C 349 709.4 350.4 710.5 359.2 709.7C 364 709.3 366.7 708.2 373.3 704.2C 377.8 701.5 383.8 698.1 386.5 696.7C 392.2 693.9 395.4 690.8 396.9 686.7C 398.1 683.5 398.3 674.1 397.2 672.4C 396.1 670.7 392.4 669 389.6 669C 387.5 669 386.9 668.2 385 662.4C 382.3 654.5 382.7 648.1 386.6 635.8C 388 631.5 389.7 623.1 390.5 617.2C 392.2 604 395 567.7 395.3 554.4C 395.5 545.1 395.3 544.2 392.5 539C 388.2 531.3 382.4 527.8 372.7 527.4C 368.2 527.1 364.2 527.5 361.9 528.4z"/>
</g>
</g>
</svg>