<?xml version="1.0" encoding="UTF-8" standalone="yes"?>
<!-- Created with sK1/UniConvertor (http://sk1project.org/) -->
<svg xmlns="http://www.w3.org/2000/svg" xmlns:xlink="http://www.w3.org/1999/xlink"
  width="1004pt" height="644pt" viewBox="0 0 1004 644"
  fill-rule="evenodd">
<g>
<g>
<path style="stroke:none; fill:#000000" d="M 580.2 81.6L 578 83.1L 578 238.5L 578 393.9L 580.2 395.4C 582.2 396.8 598.2 397 731.2 397C 878.7 397 880 397 882 395C 884 393 884 391.7 884 238.5C 884 85.3 884 84 882 82C 880 80 878.7 80 731.2 80C 598.2 80 582.2 80.2 580.2 81.6zM 880.8 83.2C 882.5 84.9 882.5 392.1 880.8 393.8C 879.9 394.7 845.1 395 730.3 395C 583.8 395 581.1 395 580 393.1C 578.6 390.4 578.6 86.6 580 83.9C 581.1 81.9999 583.8 81.9999 730.3 81.9999C 845.1 81.9999 879.9 82.2999 880.8 83.2z"/>
<path style="stroke:none; fill:#000000" d="M 795.6 123.2C 791 130.6 776 158.4 776.2 159.1C 776.5 159.9 784.4 146.2 795.3 126.2C 798.1 121.1 798.4 118.9 795.6 123.2z"/>
<path style="stroke:none; fill:#000000" d="M 776 316.5C 776 317.8 806.8 348.6 807.4 347.9C 807.7 347.6 800.7 340.2 792 331.5C 783.2 322.7 776 316 776 316.5z"/>
<path style="stroke:none; fill:#000000" d="M 193.7 82.8C 192.1 84.5 192 90.9 192 153.8L 192 222.9L 194.2 224.4C 196 225.7 199.3 226 209.2 226C 216.3 226 222 226.3 222 226.8C 222 227.2 224.1 229.9 226.6 232.8C 229.5 236.1 231.9 238 233.4 238C 234.6 238 237.1 239.1 238.9 240.4C 250.4 248.9 268.1 243.8 274.2 230.2L 276.1 226L 404 226C 530.7 226 532 226 534 224C 536 222 536 220.7 536 153.5C 536 86.3 536 85 534 83C 532 81 530.7 81 363.7 81C 201.8 81 195.2 81.1 193.7 82.8zM 532.8 84.2C 534.5 85.9 534.5 221.1 532.8 222.8C 531.9 223.7 501.9 224 403.9 224L 276.2 224L 275.8 218.4C 275.5 213.4 275.7 212.7 277.6 212C 280.4 210.9 283.7 206.6 284.5 203C 285.4 198.9 283.3 192.1 280 188.8C 276.2 185 269.5 184.9 262.4 188.5C 259.7 189.9 257.4 191 257.4 191C 257.3 191 256.9 189.9 256.6 188.5C 255.6 184.6 251.8 182.7 245.7 183.2C 240 183.7 230.6 187.6 225.2 191.7C 218.1 197.1 215 209.8 218.5 219.5C 219.3 221.7 220 223.6 220 223.7C 220 223.9 214.4 224 207.5 224C 195 224 195 224 194 221.4C 192.6 217.8 192.7 87.5 194 84.9C 195.1 83 198 83 363.3 83C 492.9 83 531.9 83.3 532.8 84.2z"/>
<path style="stroke:none; fill:#000000" d="M 187.3 316.2C 187.7 321.3 188.5 337.9 189.1 353.1C 190.2 378.4 190.2 381.1 188.6 385C 186.6 389.9 187.2 392.4 191 396.5L 193.8 399.5L 191 423L 188.1 446.5L 174.6 487C 167.1 509.2 161.3 528.2 161.6 529.2C 162.3 531.5 160.3 535.1 158.7 534.4C 157.8 534.1 156.4 536.1 154.7 540.2C 153.2 543.7 152 546.8 152 547.1C 152 547.4 159.3 550.8 168.2 554.6L 184.5 561.5L 152.2 561.8C 131.9 561.9 120 562.4 120 563C 120 563.7 148.6 564 201.5 564C 255.2 564 283 563.7 283 563C 283 562.4 278.2 562 270.8 562L 258.5 562L 256 556.8C 252.8 550.2 248.9 548 240.3 548L 234.1 548L 234.7 544.3C 235.3 540.8 236.1 539.5 238.4 538.7C 238.9 538.5 245.3 508.3 252.6 471.5C 259.9 434.6 266.2 403.5 266.5 402.3C 267 400.2 266.9 400.2 263.9 401.7C 256.2 405.5 239.7 396.6 222 379.2C 212.8 370.2 211.1 368.9 208.6 369.3L 205.7 369.7L 206.5 338.3L 207.2 307L 197 307L 186.7 307L 187.3 316.2zM 225.4 442.5C 226.3 443.5 226.7 445.2 226.4 447.3C 225.4 454.2 218 528.6 218 531.7C 218 534.1 218.7 535.4 220.5 536.6C 222.5 537.9 223 539 223 542.6C 223 545.6 222.5 547.2 221.5 547.6C 220.4 548.1 220 549.9 220 555.1L 220 562L 203.6 562L 187.2 562L 187.7 558.2C 188.6 551.7 185.2 546.6 177.5 542.8C 172.3 540.2 171.3 539.3 172 538C 172.6 536.9 173.8 536.5 175.8 536.8C 177.4 537 179 536.6 179.6 535.8C 180.2 535.1 189.1 514.7 199.5 490.5C 209.8 466.3 218.9 445.3 219.6 443.7C 221.2 440.7 223.1 440.3 225.4 442.5z"/>
<path style="stroke:none; fill:#000000" d="M 281.3 321.3C 276.7 323 273 324.7 273 325.1C 273 325.5 279.1 338.8 286.5 354.6C 293.9 370.5 300 384.4 300 385.4C 300 387 300.3 387.1 301.2 386.2C 301.9 385.5 305.6 385 310.7 385C 315.3 385 319 384.7 319 384.3C 319 383.9 317.9 382.4 316.5 381C 315 379.4 309.9 367.6 302.6 348.5C 296.3 332 290.8 318.5 290.3 318.3C 289.9 318.2 285.8 319.5 281.3 321.3z"/>
</g>
</g>
</svg>