<?xml version="1.0" encoding="UTF-8" standalone="yes"?>
<!-- Created with sK1/UniConvertor (http://sk1project.org/) -->
<svg xmlns="http://www.w3.org/2000/svg" xmlns:xlink="http://www.w3.org/1999/xlink"
  width="985pt" height="751pt" viewBox="0 0 985 751"
  fill-rule="evenodd">
<g>
<g>
<path style="stroke:none; fill:#000000" d="M 123.7 162.4C 122.3 163.7 120.8 165.9 120.5 167.2C 120.2 168.4 120.1 281 120.2 417.2L 120.5 665L 123.3 667.7L 126 670.5L 492.5 670.5L 859 670.5L 861.7 667.7L 864.5 665L 864.8 416.7C 865 231.5 864.7 167.8 863.9 165.7C 861.4 159.8 864 160 797.8 160C 759.4 160 736.9 160.4 736.5 161C 736.1 161.6 757.6 162.1 797 162.2L 858.2 162.5L 860.1 164.9C 861.8 167 862 169 862 184.1L 862 201L 593.3 201C 359.8 201.1 324.8 201.3 327 202.5C 329.1 203.7 366.8 203.9 595.8 204L 862 204L 862 433.8L 862 663.7L 859.7 665.8L 857.4 668L 671.5 667.8L 485.7 667.5L 499.9 661.6C 507.7 658.4 514.3 655.4 514.5 654.9C 514.8 654.5 513.8 651.4 512.4 648.1C 510.6 643.9 509.2 642 508 642C 505.7 642 504.6 637.9 506.1 634.8C 507 632.7 505.3 627.9 494 600.2C 486.2 581 481.1 567.2 481.5 566.2C 481.8 565.3 483.4 563.5 485 562.2L 487.9 559.9L 501.1 586.2C 508.3 600.7 514.9 613.3 515.8 614.2C 517.6 616.3 521.1 616.5 522.9 614.8C 523.9 613.7 524.5 614 526.1 615.9C 527.1 617.2 528 618.6 528 619.1C 528 619.6 525.8 621.1 523.1 622.4C 517.4 625.4 513.1 630.1 512.8 633.8C 512.6 637.9 513.1 641.4 513.9 642.3C 514.5 642.9 545.8 628.3 547.8 626.5C 548.6 625.7 541.8 614 540.5 614C 538.6 614 534.7 606.4 535.5 604C 535.8 602.9 531.2 590 523.5 570.9C 516.6 553.6 511 539 511 538.4C 511 537.7 516.2 532.3 522.6 526.4C 545.7 504.8 552.3 487.9 545.1 468.9C 543.9 465.8 541.5 461.6 539.7 459.5L 536.4 455.7L 533.6 459.4C 529.3 465.1 516.4 475.7 509.7 479C 502.1 482.8 494.5 483.1 489.2 479.8L 485.7 477.6L 486.4 488.3L 487.1 499L 479.9 507.2C 466.8 522.3 457.5 538.4 454.4 551.5C 452.8 558.7 452.6 571.9 454.1 577.5C 455.2 581.5 477.7 627.3 484.2 638.5C 487.2 643.8 488 644.5 490.8 644.6C 496.9 644.7 496.9 646.7 490.9 649.5C 482.7 653.2 479 657.9 479 664.4L 479 668L 303.2 668L 127.3 668L 125.2 665.7L 123 663.4L 123 433.7L 123 204L 200.3 204C 267.7 203.9 277.2 203.7 275 202.5C 272.9 201.3 260.7 201.1 197.8 201L 123 201L 123 184.1C 123 169 123.2 167 124.9 164.9L 126.8 162.5L 187.5 162.2C 226.6 162.1 247.9 161.6 247.5 161C 247.1 160.4 224.8 160 186.6 160L 126.3 160L 123.7 162.4z"/>
<path style="stroke:none; fill:#000000" d="M 333 161C 333 161.7 390.5 162 503.6 162C 617 162 673.9 161.7 673.5 161C 673.1 160.3 615.2 160 502.9 160C 390.3 160 333 160.3 333 161z"/>
<path style="stroke:none; fill:#000000" d="M 141 175.8C 135.2 181.7 138.5 190 146.8 190C 151.8 190 155 186.8 155 181.8C 155 177.1 152.4 174.1 147.8 173.3C 144.6 172.8 143.7 173.2 141 175.8z"/>
<path style="stroke:none; fill:#000000" d="M 168.5 174.2C 163.6 176.8 162.5 182.8 166.1 187.4C 170.6 193.2 181 189.3 181 181.8C 180.9 175.2 174.2 171 168.5 174.2z"/>
<path style="stroke:none; fill:#000000" d="M 193.2 174.6C 189.9 176.9 188.7 180.6 190.1 184.7C 191.3 188.5 193.5 190 197.9 190C 202.2 190 203.9 189.1 205.6 185.8C 209.7 177.9 200.4 169.5 193.2 174.6z"/>
<path style="stroke:none; fill:#000000" d="M 474.5 298.2C 470.5 300.4 464.7 306.6 462.6 311C 461.5 313.5 459.1 317.3 457.5 319.4C 454.7 323.1 454.5 323.9 454.6 331.9C 454.7 337.7 455.4 342.3 456.7 346L 458.7 351.5L 459.4 347C 460.4 340 461.5 339.2 463 344.4C 463.7 346.9 465.8 350.7 467.6 352.9C 469.5 355 471 357.1 471 357.4C 471 357.7 469.7 358.6 468 359.5C 466.3 360.4 465 360.6 465 360C 465 358.4 460.1 357.6 458.5 359C 456.7 360.5 456.5 364.1 458.2 365.8C 460 367.6 463.8 367.2 465 365.1C 465.5 364 467.6 362.2 469.5 361C 473.1 358.8 473.2 358.8 478.7 360.5C 484.8 362.4 491 362.1 496.1 359.4C 499.9 357.5 500.8 358.2 498.6 361.4C 496.4 364.9 496.6 365.3 499.9 363.6C 503.7 361.6 507.9 356.5 510.2 351C 511.2 348.5 513.8 343.2 515.8 339.1C 519.1 332.4 519.5 330.9 519.4 324.1C 519.4 316 517.4 310.4 512.5 304.5L 510.1 301.5L 510 305.7C 510 308.4 509.5 310 508.8 310C 508.1 310 501.1 307.9 493.1 305.2C 482.8 301.9 478.6 300 478.2 298.7C 477.7 296.7 477.2 296.7 474.5 298.2z"/>
<path style="stroke:none; fill:#000000" d="M 403.5 386.2C 397.4 389.5 396.2 396.9 400.8 402.1C 403.1 404.7 404.6 405.4 408.2 405.6C 412.4 405.8 414.2 407 431.3 420.4C 441.5 428.4 450.3 435 451 435C 452.9 435 470 422.7 470 421.3C 470 420.1 458.8 411 457.4 411C 456.9 411 455.1 412.4 453.4 414.1L 450.2 417.2L 434.6 406C 423.9 398.3 418.8 394 418.4 392.4C 417 386.7 408.7 383.3 403.5 386.2z"/>
<path style="stroke:none; fill:#000000" d="M 529.2 392.1L 523.1 397.3L 525.1 400.1C 526.3 401.9 526.8 403.5 526.3 404.4C 525.9 405.1 518.8 414.1 510.5 424.3C 499.5 437.8 494.8 443 492.8 443.5C 488.7 444.5 485 449.4 485 454C 485 458.7 488.7 463.6 492.9 464.5C 499.3 465.9 506 460.2 506 453.3C 506 451.1 509.5 446.6 522.1 432.5C 542 410.3 546 405.5 546 404.1C 546 402.9 538.6 390.5 536.5 388.2C 535.6 387.1 534.1 387.9 529.2 392.1z"/>
</g>
</g>
</svg>