<?xml version="1.0" encoding="UTF-8" standalone="yes"?>
<!-- Created with sK1/UniConvertor (http://sk1project.org/) -->
<svg xmlns="http://www.w3.org/2000/svg" xmlns:xlink="http://www.w3.org/1999/xlink"
  width="1224pt" height="929pt" viewBox="0 0 1224 929"
  fill-rule="evenodd">
<g>
<g>
<path style="stroke:none; fill:#000000" d="M 315.2 109.7C 422.8 109.9 599.2 109.9 707.2 109.7C 815.2 109.6 727.1 109.5 511.5 109.5C 295.9 109.5 207.6 109.6 315.2 109.7z"/>
<path style="stroke:none; fill:#000000" d="M 134 361L 134 552L 289.5 552L 445 552L 445 361L 445 170L 289.5 170L 134 170L 134 361zM 234.8 286.7C 234.5 289 235.6 290 245.5 296.1C 251.6 299.9 257.6 303 259 303C 263.1 303 265.4 305.4 271.7 316.2C 280.1 330.6 283.4 339.8 287.4 360C 289.3 369.6 291.6 379.2 292.4 381.2C 294.7 386.6 294.5 387.2 290.4 386.4C 288.2 386 285.9 386.2 284.5 387C 282.5 388.1 281.8 388.1 280.5 387C 279.3 386 278.9 386.1 278.4 387.4C 277.9 388.7 276.2 389 269.5 389C 260.1 389 260.9 389.7 259 379.5C 256.6 366.7 245.7 336.9 235.8 316.6C 226.8 297.9 226.2 296.3 227.6 294.3C 228.4 293.1 229 291.4 229 290.6C 229 287.3 231 284 233 284C 234.7 284 235 284.5 234.8 286.7zM 299.3 408.9C 299.6 411.1 303.7 420.8 308.4 430.5C 318.5 451.3 318.9 453.8 313.6 459.7C 311.8 461.8 310 464.4 309.6 465.6C 308.9 467.8 299.9 472.7 298.2 471.7C 297.7 471.3 297 468.5 296.7 465.3C 296.3 462.1 294.9 456.1 293.6 452L 291.1 444.5L 291.7 458.8L 292.3 473.2L 286.9 472.6C 283.9 472.3 277.5 471.8 272.5 471.5C 258.6 470.5 251.7 469.2 246.9 466.6C 244.5 465.3 239.7 463.2 236.3 462L 230 459.7L 222.6 464.9C 218.5 467.7 214.5 470 213.6 470C 211.5 470 211.5 466.2 213.7 459.3C 215 455.1 215.7 454.1 216.9 454.6C 227.2 459.1 237.7 460.3 241.8 457.5C 243 456.6 245.7 452.9 247.9 449.2C 251.8 442.4 261 420.5 261 417.8C 261 414.5 263.6 413.1 273 411.5C 278.2 410.6 283.5 409.6 284.8 409.3C 286.5 408.9 286.9 409.1 286.4 410.4C 286 411.5 286.3 412 287.4 412C 288.3 412 289 411.4 289 410.6C 289 408.6 293.8 405 296.5 405C 298.3 405 298.8 405.7 299.3 408.9z"/>
<path style="stroke:none; fill:#000000" d="M 260 321.5C 260 322.4 260.5 323 261.1 322.8C 261.7 322.6 262.2 322 262.2 321.5C 262.2 321 261.7 320.4 261.1 320.2C 260.5 320 260 320.6 260 321.5z"/>
<path style="stroke:none; fill:#000000" d="M 267 342.6C 267 343.5 267.5 344 268.2 343.8C 270 343.2 270.3 341 268.6 341C 267.7 341 267 341.7 267 342.6z"/>
<path style="stroke:none; fill:#000000" d="M 272.7 364.7C 271.5 365.8 271.9 367 273.5 367C 274.3 367 275 366.3 275 365.5C 275 363.9 273.8 363.5 272.7 364.7z"/>
<path style="stroke:none; fill:#000000" d="M 289 432.4C 289 433.3 289.7 434 290.6 434C 292.3 434 292 431.8 290.2 431.2C 289.5 431 289 431.5 289 432.4z"/>
<path style="stroke:none; fill:#000000" d="M 287 459.5C 287 460.4 287.5 461 288.1 460.8C 288.7 460.6 289.2 460 289.2 459.5C 289.2 459 288.7 458.4 288.1 458.2C 287.5 458 287 458.6 287 459.5z"/>
<path style="stroke:none; fill:#000000" d="M 286.2 465.2C 286.8 467 289 467.3 289 465.6C 289 464.7 288.3 464 287.4 464C 286.5 464 286 464.5 286.2 465.2z"/>
<path style="stroke:none; fill:#000000" d="M 760.6 332.1C 758.8 333.5 756.7 334.1 754.2 334C 752.2 333.9 748.9 333.8 747 333.7C 741.3 333.5 737.8 335.9 735.9 341.1C 735 343.7 732.9 347.5 731.1 349.7C 726.9 354.9 726 358.6 726 370.5C 726 376.5 725.4 382.5 724.5 385.4C 723.7 388.1 723 391.8 723 393.7C 723 396.9 721.9 399.5 716.4 408.7C 715.1 411.1 714.2 413 714.6 413C 714.9 413 716.9 411.6 719.1 409.9C 721.6 408 724.7 406.6 728 406.1C 734.1 405.1 736.8 402.8 738 397.4C 739.6 390.7 739.2 388.2 735.6 383.6C 727.5 373 728.8 359.8 738.9 350.7C 743.7 346.3 745.2 346.1 747 349.5C 747.8 351 750.7 353.1 753.9 354.6C 764.9 359.6 766.2 360.4 767.6 363.1C 769.5 366.8 769.4 369.2 767 377.5C 764.5 386.2 764.5 386.9 767 386.3C 772.1 385 773.7 392.3 769.6 397.8C 768.3 399.6 764.1 403.3 760.2 406C 756.3 408.8 752.6 411.9 752 412.9C 749.7 417.4 752 427 755.4 427C 756.1 427 758.1 424.8 759.9 422C 763.8 416 769.3 411.3 774 409.9C 778.9 408.4 784.7 410.8 786.3 414.9C 787.1 417.1 788.7 418.5 792.2 420C 796.6 421.9 797.2 421.9 798.6 420.5C 799.4 419.7 800.8 419 801.6 419C 802.5 419 801.9 417.6 799.8 414.5C 795.3 408.2 794.9 401.6 798.4 391.6C 799.8 387.4 801 382.5 801 380.7C 800.9 374.9 799.2 369.6 796.8 368C 792 364.8 790.1 362 787.6 353.9C 781.9 335.1 769.5 325.1 760.6 332.1z"/>
<path style="stroke:none; fill:#000000" d="M 839.6 531.7C 839.2 532.6 839.1 533.4 839.2 533.5C 839.8 534.1 870 549 870.5 549C 870.8 549 871 548.4 871 547.7C 871 547 869.1 545.4 866.8 544.3C 864.4 543.1 857.5 539.4 851.3 536.1C 842 531.1 840.1 530.3 839.6 531.7z"/>
<path style="stroke:none; fill:#000000" d="M 777.3 535.3C 775.6 538 767.5 543 764.8 543C 763.3 543 757.9 541.4 752.8 539.4C 740.4 534.7 734.6 534.2 724.6 537C 719.2 538.5 714.8 539.1 710.3 538.8L 703.7 538.5L 701.9 542C 699.4 546.5 699.5 547 703.1 554.5C 705.8 560.2 706.1 561.4 705.4 567C 705 570.5 704 574.1 702.9 575.3L 701.2 577.5L 700.5 574.5C 700.1 572.8 699.3 569.9 698.7 568L 697.5 564.5L 697.2 568.7C 697 571.4 697.7 574.7 699.1 577.9C 700.3 580.7 701 583.6 700.6 584.5C 699.9 586.4 695 586.5 692.5 584.6C 690.8 583.4 690.4 584.2 686.4 599.9C 684.1 609 680.8 621.2 679 627C 675.6 638.4 674.3 647.7 675.4 653.4L 676.1 657.1L 691.8 656.8L 707.5 656.5L 707.2 651C 706.9 646.4 707.4 644.5 710 639.5C 711.8 636.2 714.7 630.1 716.4 625.9C 718.2 621.8 721.8 615 724.5 610.9C 727.1 606.9 730.1 601.7 731 599.5L 732.7 595.5L 733.3 601C 733.7 604 734.4 612.1 735 619C 736.1 631.5 739.3 649.9 741 654.6L 742 657.1L 757.7 656.8L 773.5 656.5L 773.4 653.5C 773.3 651.8 772.9 643.5 772.5 635L 771.8 619.5L 776.5 603.5C 782.9 581.1 784.3 572.2 783.7 557C 783.2 541.8 780 531 777.3 535.3z"/>
<path style="stroke:none; fill:#000000" d="M 938 619.6L 938 626.3L 931.5 625.8C 924.1 625.2 921.6 623.7 922.3 620.3C 922.8 617.8 921.8 617.3 920.2 619.2C 919.1 620.6 913.9 655.2 911.5 677C 909.8 692.5 909.6 711.8 911 720.5C 913.4 735.2 914.8 738.5 925.7 753.3L 936 767.3L 935.9 780.4C 935.9 800.2 934.6 815 932.6 818.8C 929.1 825.6 933.2 828.3 946.3 827.8C 955.2 827.5 956 827.9 950.1 829.9C 942.4 832.4 931.7 830 929.4 825.1C 928.5 823.1 928.2 823.2 920.8 827.5C 914.8 831 911.5 832.2 905.8 833C 897.4 834.2 891.6 836.7 891.2 839.3C 890.7 841.8 894.5 845.7 898.4 846.7C 900.2 847.2 883.6 847.7 859.5 848C 836.4 848.3 882.1 848.5 961 848.5C 1062 848.5 1082.4 848.4 1030 848C 989 847.7 957.8 847.2 960.6 846.7C 971.8 845.1 992.9 836.3 999.8 830.5C 1004.8 826.3 1004 820.2 997.4 811.3L 994.9 808.1L 991.3 812.1C 986.9 816.9 978.6 822 974.9 822C 973.5 822 971.5 821.3 970.4 820.5C 968.6 819.1 968.7 819.1 971.6 819C 973.6 819 977 817.5 980.6 815.1C 988.7 809.7 992.3 805.7 992.3 802.1C 992.3 799.3 985.3 786.9 977.4 775.7C 975.6 773 973.5 768.9 972.9 766.7C 972.3 764.4 970.5 759.6 968.9 756.1C 966.5 750.8 966 748.4 966 741.7C 966 737.3 965.5 729.8 964.8 724.9C 963.9 718.2 963.9 715.2 964.8 712.2C 965.4 710.1 966.3 703 966.6 696.4C 967.1 687.3 967.9 682.4 970.1 675.6C 971.7 670.7 973 665.8 973 664.6C 973 663.5 974.3 659.7 975.9 656.4C 980 647.7 983.8 636.1 984.1 630.9L 984.5 626.5L 976 625.8C 965.5 625 955.8 622.1 946.3 616.9C 942.3 614.8 938.8 613 938.5 613C 938.2 613 938 616 938 619.6zM 964.5 816C 964.8 816.5 964.4 817 963.6 817C 962.7 817 962 816.5 962 816C 962 815.4 962.4 815 962.9 815C 963.5 815 964.2 815.4 964.5 816zM 944.9 847.6C 945.1 847.8 942 847.9 937.9 847.9C 931.8 847.7 931.2 847.6 934.5 847C 938.1 846.4 943.9 846.8 944.9 847.6z"/>
</g>
</g>
</svg>