<?xml version="1.0" encoding="UTF-8" standalone="yes"?>
<!-- Created with sK1/UniConvertor (http://sk1project.org/) -->
<svg xmlns="http://www.w3.org/2000/svg" xmlns:xlink="http://www.w3.org/1999/xlink"
  width="1301pt" height="974pt" viewBox="0 0 1301 974"
  fill-rule="evenodd">
<g>
<g>
<path style="stroke:none; fill:#000000" d="M 928.4 185.8C 921.3 186.6 920.1 187.5 915.1 195C 913.1 198 910.4 201.9 909.2 203.5C 905.8 208.3 905.5 211.5 908 214C 910 216 911 216.2 916.4 215.7C 919.7 215.5 925.2 214.2 928.5 213C 941.3 208.2 943 209 943 219.1C 943 224.8 943.3 226.1 945 227.3C 946.1 228.1 948.2 231 949.5 233.8C 952.1 239.2 954.3 241 958.3 241C 961.4 241 962.7 242.6 964.6 248.9C 965.4 251.7 966.5 254 967.1 254C 968.5 254 973.6 245.6 976.2 239C 979.2 231.4 979.4 212.2 976.6 204.1C 973.9 196.2 968 190.7 959.5 188.1C 952.2 185.8 938 184.8 928.4 185.8z"/>
<path style="stroke:none; fill:#000000" d="M 334.3 256.9C 308.8 263.4 295 293 306.4 316.4C 311.9 327.6 323.2 336.9 334.1 339.2C 340.4 340.5 340.2 342 333.8 342C 322.8 342 310.9 337 302.9 329.1C 296.4 322.5 292.5 315 290.6 305.4L 289.2 298.5L 289.1 305.1C 288.8 328 306.1 346.6 328.7 347.8C 335.9 348.2 342.2 347.4 347.2 345.5C 348.4 345 348.6 346.8 348.6 356.7C 348.5 367.4 348.8 369 351.1 374C 352.6 377 355.5 381.2 357.6 383.4C 361.5 387.2 371.1 392.6 378.5 395L 382.5 396.4L 378.5 397.2C 376.3 397.6 372.6 398.7 370.3 399.6C 366.8 400.9 365.9 401.8 365 404.8C 363 412 364.1 423.6 368.5 442.6C 371.8 456.4 377.6 474.3 379.9 477.2C 381 478.5 382.3 481.6 383 484C 384.8 490.7 394.7 522.2 398.2 532.2C 401.2 540.8 401.3 540.9 405.9 542.7C 409.6 544.1 413.5 544.5 425.7 544.5C 434.1 544.5 441 544.7 441.1 545C 441.1 545.3 441.2 554.3 441.4 565C 441.8 592.1 443.9 597.5 457 605.6C 462.8 609.2 463.1 609.5 465.1 616.2C 466.2 620 469.6 635.8 472.6 651.3C 475.6 666.8 478.3 680.2 478.6 681.1C 479.1 682.9 473.4 684.4 461.3 685.6C 457.8 686 455 686.7 455 687.2C 455 687.7 455.5 691.2 456.1 695.1C 457.5 703.1 456.6 702.8 471 700C 476.2 699 480.7 698.4 480.9 698.6C 481.1 698.8 476.9 705 471.6 712.5L 461.9 726L 463 737.8C 465 760.2 469.5 769.9 476.7 767.5C 481.1 765.9 483.2 760.5 483.2 750.5C 483.2 741.9 484.5 738.2 485.4 744.2C 485.7 746 486.2 752.7 486.5 759C 487.2 771.9 488.1 779.3 490 786.1C 491.3 790.6 491.3 790.9 488.7 793.9C 481.9 802 483.3 809.5 492.1 813.3L 497.1 815.5L 496.5 821.5C 496.1 825.3 494.7 829.9 492.7 833.9C 490.1 839.3 489.4 841.8 489.2 848.6L 488.8 856.9L 482.7 857.4C 479.3 857.7 469.8 858.2 461.5 858.5C 446.9 859 428.9 860.3 418.3 861.6L 413 862.2L 413 814.2L 413 766.3L 416.1 765.6C 417.8 765.3 420.9 763.3 423 761.2C 436.1 748.1 420.6 727.5 404.1 736C 398.8 738.7 396 743.4 396 749.9C 396 758.3 400.5 764.1 407.9 765.6L 411 766.3L 411 790.4L 410.9 814.5L 408.6 807.3C 404.3 794.2 396.8 785.1 386.2 780.2C 381.9 778.2 378.6 777.6 371.1 777.3L 361.5 776.9L 365.7 780.7C 368.1 782.8 379.2 792.6 390.5 802.5L 411 820.5L 410.7 841.4L 410.5 862.4L 397.9 864.6C 377 868.2 366.2 872.6 368.6 876.7C 374.1 886 424 892.6 496.5 893.7C 581.6 894.9 652.2 887.3 656.4 876.4C 659.4 868.6 615.5 860.3 560.7 858.3L 542.8 857.7L 537 849.8C 531.6 842.4 531.2 841.4 529.1 830.9C 527.7 823.8 527.2 819.4 527.8 818.7C 528.3 818 529 801.5 529.4 781.5C 529.7 761.7 530.3 737.3 530.6 727.3L 531.3 709L 536.4 707.1C 541.4 705.2 541.5 705.1 541.2 701.3C 541 698.3 541.4 697.2 543 696.2C 544.8 695.1 545.5 695.3 548.4 697.5C 551.7 700 555.4 700.7 557.7 699.2C 558.4 698.8 560 696 561.3 693C 563.1 688.9 565 686.6 568.6 684.1C 579.9 676.1 603.3 656.8 613.3 647.1C 624.4 636.4 632 626.4 632 622.6C 632 619.2 626.9 612 620.9 606.7C 607.6 595 584.4 581.2 547.4 562.9L 521.4 550L 518.5 543.7C 517 540.3 514 533.9 512 529.5C 509.9 525.1 507.4 519.1 506.5 516.1C 504.3 509.4 501.6 506.5 495.9 504.9C 490.2 503.3 489.2 502.4 480 490.5C 469.1 476.4 462.5 466.2 458.6 457.7C 456.3 452.6 453.9 449.2 450.5 446.2C 447.9 443.9 445.4 442 445 442C 444.4 442 422.9 416.8 420.9 413.8C 420.6 413.3 417.3 412.5 413.6 412C 409.9 411.5 406.7 411 406.6 410.8C 406.4 410.7 406.7 409.1 407.1 407.4C 407.9 404.7 408.5 404.2 412 403.7C 421.1 402.5 430.8 395.2 435.2 386.2C 437.1 382.3 437.5 379.9 437.5 372.5C 437.5 366.4 437 362.1 435.9 359.5C 435 357.3 433.8 352.6 433.2 349C 431.1 334.9 422.2 322.7 409.5 316.4C 403.4 313.4 400.8 312.7 393.6 312.3L 385 311.7L 385.8 309.1C 386.2 307.7 386.5 302.2 386.5 297C 386.5 288.4 386.2 286.9 383.3 280.8C 378.9 271.5 372.4 264.8 363.2 260.3C 356.5 256.9 354.9 256.6 346.6 256.3C 341.6 256.2 336.1 256.5 334.3 256.9zM 545.3 627.5C 557.5 630.6 568.4 633.4 569.4 633.8C 571 634.5 569.5 635.9 560.3 642.7C 545.9 653.3 537.1 659 534.9 659C 533.9 659 531.7 660.2 530 661.6C 528.3 663.1 526.8 664.1 526.6 663.9C 526.4 663.7 525.5 656.3 524.6 647.5C 523.7 638.7 522.7 629.4 522.4 626.7C 522.1 624.1 522.1 622 522.4 622C 522.8 622 533.1 624.5 545.3 627.5z"/>
<path style="stroke:none; fill:#000000" d="M 985.6 274.6C 985.3 275.5 985 278.4 985 281.1C 985 285.6 984.7 286.2 981.8 288C 980 289.1 975.4 291.2 971.5 292.6C 963.3 295.7 959.1 299.6 956.5 306.6C 955.5 309.3 954.3 311.9 953.9 312.4C 953.5 312.9 951.9 310.8 950.4 307.7C 947.8 302.5 947.2 301.9 941.8 299.9C 938.7 298.8 935.5 297.1 934.9 296.4C 934.3 295.6 933.5 292.5 933.1 289.4L 932.5 283.9L 915 296.1C 905.4 302.8 896.8 308.4 895.8 308.7C 894.1 309.2 888.9 319.8 887 327.1C 886.3 329.7 885.9 335.9 886.1 342.4L 886.5 353.3L 879.1 356.5C 875 358.2 871.5 360.1 871.3 360.7C 870.7 362.4 877.1 377.3 878 376.3C 878.5 375.9 879 374.4 879.2 373.1C 879.6 369.7 883.1 367.6 885.4 369.3C 886.3 370 887.2 371.3 887.3 372.1C 887.5 373 889.3 375.7 891.4 378.1C 893.5 380.5 897.2 386.5 899.6 391.4C 904.8 401.9 904.5 403.1 896.6 405.4C 890.1 407.3 888.8 407.4 887.1 405.7C 886 404.7 885.9 405.4 886.5 409.5C 888.6 424.2 897.5 435 907.7 435C 911.9 435 916.9 431.3 919.8 426C 922 421.8 922.1 420.9 921.6 410.5L 920.9 399.5L 923.2 402.9C 928.8 411.3 928.8 410.6 922.9 424.7C 918.3 435.7 918.2 437.9 921.4 454.3C 924.7 470.9 924.3 473.5 916.5 486.5C 913.3 491.6 913.2 493.5 916.1 491.9C 918 490.9 918.2 491 917.6 493.7C 916.7 498.3 914.2 523.3 912.9 540.9C 911.3 563.9 912.2 593.1 914.9 603.3C 917.6 613.7 925.6 630.1 932.2 638.7C 935.1 642.5 948.3 655.7 961.5 668C 974.7 680.2 987 691.7 988.9 693.5C 991.6 696.2 992.6 698.2 993.8 704.1C 995.5 711.9 996.4 743.7 995 745.5C 994.6 746 993.5 748.9 992.5 751.8C 991.2 756 991.1 757.4 992 758.5C 993 759.7 992.8 761.2 991 765.7C 989.7 768.9 988.2 772 987.6 772.6C 987 773.2 977.5 774.2 964.6 774.9C 944.5 776 920.7 778.2 915.3 779.5L 913 780L 913 730.1L 913 680.2L 916.1 679.6C 917.8 679.3 920.9 677.3 923 675.2C 936.1 662.1 920.6 641.5 904.1 650C 898.8 652.7 896 657.4 896 663.9C 896 672.3 900.5 678.1 907.9 679.6L 911 680.2L 911 704.4L 910.9 728.5L 908.6 721.3C 904.3 708.1 896.8 699.1 886.1 694.2C 881.6 692.1 878.6 691.5 871 691.2L 861.5 690.9L 865.7 694.7C 868.1 696.8 879.2 706.6 890.5 716.5L 910.9 734.5L 911 757.2L 911 780L 908.8 780.4C 894.2 783.4 889.7 784.6 885.2 786.6C 882.3 787.9 879.7 789.6 879.4 790.5C 877.4 795.6 891.6 800.5 919.7 804.4C 966.1 810.9 1053.9 811.8 1109.5 806.4C 1147.3 802.7 1169.7 796.6 1167.4 790.6C 1165.9 786.8 1150.7 782.2 1130.1 779.4C 1123.2 778.5 1116.9 777.6 1116.3 777.4C 1115.3 777.2 1115 773.7 1115 764.5C 1115 732.4 1121.2 710.3 1134.2 696.4C 1140.7 689.5 1148.9 684.5 1149.8 687C 1150.1 687.8 1151.9 690.2 1154 692.2C 1167.2 705.5 1188.1 688.8 1178.5 672.5C 1170.7 659 1149 664.7 1149 680.2C 1149 683.1 1148.5 683.8 1144.3 686C 1136.2 690.2 1128.7 698.7 1123.6 709.2C 1121.1 714.3 1118.3 721.6 1117.3 725.5L 1115.5 732.5L 1115.2 676C 1115.1 644.9 1115.2 618.6 1115.5 617.5C 1115.8 616.4 1124.8 607.8 1135.5 598.5C 1146.2 589.1 1157.1 579.6 1159.7 577.2L 1164.5 572.9L 1155 573.2C 1147.4 573.5 1144.4 574.1 1139.8 576.2C 1129.1 581.1 1121.4 590.9 1116.9 604.9L 1115.2 610.5L 1115.1 588.9L 1115 567.3L 1118.9 566.1C 1130.9 562.6 1134.6 547.1 1125.4 539C 1118.2 532.7 1108.8 533.1 1102.6 540C 1094.2 549.4 1098.8 563.4 1111.4 566.6L 1114.2 567.3L 1113.8 671.6C 1113.6 728.9 1113.2 776.1 1112.9 776.5C 1112.3 777 1092.6 775.8 1078.5 774.4L 1073.4 773.9L 1074.6 763.2C 1075.3 757.3 1076.9 745.7 1078 737.4C 1080.2 721.7 1079.9 715.8 1076.6 713.1C 1075.8 712.4 1071.1 711.4 1066 710.8C 1057.4 709.7 1056.5 709.4 1052.7 705.8C 1049.6 702.9 1047.5 701.9 1043.8 701.4C 1038.4 700.7 1036.5 698.7 1033.3 690.9C 1031.7 687 1031.5 682.6 1031.3 654.2L 1031.1 622L 1028.2 616.2C 1024 608.2 1023.9 607.6 1025.5 602.4C 1026.3 599.7 1027.1 590.3 1027.5 579.2C 1028 563.6 1028.6 558.5 1031 548C 1037.6 520 1040.2 497.1 1038.1 486.7C 1036.8 480.5 1035.5 480.1 1034.4 485.5C 1034.1 487.5 1033.4 489.2 1033 489.5C 1032.4 489.9 1013.9 485.8 1010.2 484.5C 1009.2 484.1 1009.4 483.4 1010.9 481.4C 1013.7 477.8 1016.7 467.7 1018.2 456.9C 1018.8 452 1019.7 448 1020.1 448C 1020.5 448 1024.6 448.9 1029.2 449.9C 1033.8 451 1039.1 452.1 1041.1 452.4L 1044.8 453L 1046.9 445.3C 1051.9 426.3 1054.2 413.6 1053.7 406.5C 1053.2 399.6 1053.2 399.5 1056.7 395.9C 1060.7 391.6 1060.5 390.8 1053.8 383C 1050.9 379.8 1050 378 1050.5 376.5C 1052.2 371.3 1054 359.5 1054.6 350C 1055.4 337.5 1053.6 328.6 1047.3 315C 1036.8 292 1033.3 287.7 1020.4 283.1C 1011.9 280 988.8 273 987 273C 986.6 273 985.9 273.7 985.6 274.6zM 975.2 584.9C 975.6 599.4 975.7 599.9 978.5 604C 980.7 607.2 981.5 609.6 982 615.3C 982.3 619.3 983.1 623.5 983.8 624.7C 986.1 628.8 985 628.8 979.1 624.9C 972.6 620.6 968.1 614.8 967.3 609.8C 967 608 966.4 605.7 965.9 604.8C 964.9 602.9 972.6 570 974 570C 974.4 570 974.9 576.7 975.2 584.9zM 1032.3 733.4C 1033.2 734.1 1035.1 737.8 1036.4 741.6C 1039.2 749.8 1042.7 757.3 1047.5 765.5C 1049.4 768.8 1051 771.8 1051 772.2C 1051 772.7 1044.5 773 1036.6 773C 1020.2 773 1021 773.5 1021 763.2C 1021 759.4 1021.5 757.5 1023 756C 1024.6 754.4 1024.8 753.6 1023.9 751C 1022.5 747 1023.4 742.1 1026.5 737.6C 1027.9 735.6 1029 733.5 1029 733C 1029 731.6 1030.2 731.8 1032.3 733.4z"/>
</g>
</g>
</svg>