<?xml version="1.0" encoding="UTF-8" standalone="yes"?>
<!-- Created with sK1/UniConvertor (http://sk1project.org/) -->
<svg xmlns="http://www.w3.org/2000/svg" xmlns:xlink="http://www.w3.org/1999/xlink"
  width="1194pt" height="710pt" viewBox="0 0 1194 710"
  fill-rule="evenodd">
<g>
<g>
<path style="stroke:none; fill:#000000" d="M 901.7 88.6C 900.2 89.4 898.5 91.3 897.9 92.7C 897.1 94.7999 896.7 94.9999 895.5 93.9999C 894.7 93.2999 894 91.9999 893.9 91.0999C 893.9 90.1999 893.1 91.0999 892.2 92.9999C 891.3 94.9 889.9 96.9 889.3 97.2999C 887.5 98.3999 887.6 109.4 889.5 113C 891.4 116.7 893.3 117.2 903.9 116.8L 912.4 116.5L 913.6 120.6C 915.1 125.8 916.7 128.9 919.3 131.7C 921.8 134.5 922.6 134.6 923.3 131.9C 923.7 130.4 924.5 129.9 926.1 130.2C 928.7 130.5 930.1 133.7 932.1 143.7C 932.7 147.2 933.9 150.8 934.6 151.7C 935.8 153.4 936.2 153.2 939.9 149.6C 946.4 143.3 947.3 139.6 946.8 122.3C 946.4 105.5 945.1 101.6 938.5 96.4999C 932.8 92.2999 926.9 90.9 915.5 91.2C 905.7 91.4999 905.5 91.4999 905.6 89.2C 905.7 86.6 905.4 86.6 901.7 88.6z"/>
<path style="stroke:none; fill:#000000" d="M 316.1 142.6C 309.7 145.8 305.6 151.2 304.1 158.1C 303.3 161.5 303 203.4 303 289.8L 303 416.5L 298.2 409C 291.9 399.2 279.5 384.5 272.1 378.1C 263.3 370.4 264 372 273.5 381.1C 283 390.2 291.8 401.1 298.5 411.8L 303 419L 303 433.8C 303.1 443.4 303.5 449.8 304.4 452.2L 305.8 456L 272 456C 232 456 234.4 455.3 235.2 467.3C 235.5 472 236.5 476.3 237.8 479.1C 240.6 484.9 247 491.3 252.8 494.2L 257.5 496.5L 566 496.5L 874.5 496.5L 879.1 494.4C 881.7 493.2 885.6 490.4 887.9 488.1C 894.1 481.9 896.3 476.8 896.8 467.4C 897.5 455.3 899.5 456 860.3 456L 828.1 456L 829.6 452.5C 830.8 449.6 831 432.5 831 336.3L 831 223.5L 825.5 219.2C 822.5 216.9 819.8 215 819.5 215C 819.2 215 819 269.2 819 335.5L 819 456L 566.5 456L 314 456L 314 321.5L 314 187L 542.3 187L 770.7 187L 771.7 184.7C 772.7 182.5 772.4 182.1 767.3 179.6C 764.3 178.2 762 176.4 762.2 175.8C 763.4 172.2 784.7 172.3 794.2 176C 797.4 177.2 802.6 180.1 805.9 182.6C 810.3 185.9 812.7 187 815.4 187C 818.7 187 819 187.2 819 190C 819 192.6 819.8 193.6 824.5 196.5C 827.5 198.4 830.2 200 830.5 200C 831.6 200 831 159.7 829.8 155.6C 828.2 150.2 820.8 142.8 815.4 141.2C 812.2 140.3 756.4 140 566.3 140L 321.4 140L 316.1 142.6zM 570.2 161.4C 571.6 163.5 571 166.9 569 168C 566.1 169.6 563.1 168.3 562.4 165.3C 561.2 160.7 567.6 157.6 570.2 161.4zM 633 467.8C 633 468.3 631.7 469.8 630.2 471.3L 627.4 474L 566.1 474L 504.9 474L 502.5 471.2C 501.2 469.7 500 468.2 500 467.7C 500 467.3 529.9 467 566.5 467C 603.1 467 633 467.4 633 467.8z"/>
<path style="stroke:none; fill:#000000" d="M 378 318.4L 378 433L 566.5 433C 691.5 433 755 432.7 755 432C 755 431.3 691.8 431 567.5 431L 380 431L 380 318.1C 380 243.8 379.7 204.9 379 204.5C 378.3 204.1 378 242.3 378 318.4z"/>
<path style="stroke:none; fill:#000000" d="M 196.1 237.3C 194.4 242.7 191.9 252.4 190.7 258.8L 188.4 270.5L 185.1 266C 183.3 263.5 180.7 259.5 179.2 257C 176 251.4 176.1 251.5 175.4 252.3C 174.6 253.1 178.8 260.2 183.7 266.7L 187.4 271.5L 187.6 293.5C 187.6 305.8 188.2 317.9 188.9 320.9C 189.5 323.9 189.8 326.5 189.6 326.7C 188.9 327.4 174.7 315.5 169.5 309.9C 166.7 306.9 163.4 302.8 162.1 300.7C 158.8 295.3 158.2 297 161.5 302.6C 164.9 308.4 173.6 317.2 183.2 324.4L 190.6 329.9L 194.3 346.2C 196.3 355.2 198.3 364.5 198.7 366.9L 199.3 371.3L 196.4 370.6C 190.5 369.2 179 363 174.5 358.9C 168.9 353.8 167.5 354.2 172.7 359.5C 176 362.7 186.8 368.7 197.1 372.8C 200.1 374 200.3 374.9 202 393C 202.6 399.3 203 408.3 202.8 413L 202.5 421.5L 197.5 414.7C 194.8 411 190.8 405.2 188.8 401.8C 186.7 398.4 185 396.3 185 397.1C 185 399.2 191.1 409.1 197.6 417.6L 203 424.7L 203 433.1C 203 444.3 200.5 465.2 197.9 475.3C 195.9 483.6 190.3 497 189 497C 188.6 497 188 494.2 187.7 490.7C 186.4 477.2 178.9 459 167.6 442.5C 161.5 433.6 143.5 413.8 139.6 411.8C 138.4 411.2 141.4 414.5 146.1 419.1C 166.3 438.8 179.9 460.9 185.1 482.5C 186.1 486.9 187 492.5 187.1 495C 187.2 499.6 188.7 506.1 188.9 502.8C 189 501.8 190.3 499 191.9 496.5C 196.8 488.8 201.4 471.3 203.6 452.7C 204.2 447.2 204.8 446.1 212.9 436C 221.6 425.2 226.9 417 225.2 417C 224.8 417 221.8 420.7 218.7 425.2C 215.6 429.8 211.2 435.7 208.8 438.3L 204.5 443.2L 204.5 417.3L 204.5 391.4L 212 383.3C 219.3 375.4 224 369 222.3 369C 221.9 369.1 219.5 371.7 217.1 375C 214.7 378.2 210.6 382.9 208 385.5L 203.3 390.1L 202.6 384.3C 202.3 381.1 201.2 373.7 200.3 367.8L 198.6 357.1L 203.2 352.2C 212.5 342.2 221.2 326.4 220.9 319.8C 220.9 318.5 220.1 319.9 219.1 323.1C 218.1 326.1 215.9 331.3 214.1 334.6C 210.8 340.7 199.2 355.5 198.3 354.7C 197.4 353.7 191.9 329.6 190.5 320C 188.4 306.7 188.5 306 191.5 306C 192.9 306 195.8 305.1 197.8 304.1C 203.5 301.2 214.3 289 212.7 287.3C 212.4 287.1 210.8 288.8 209.2 291.3C 205.4 296.7 199.7 301.8 195.4 303.6C 189 306.3 189 306.3 189 292.2C 189 285.2 189.7 275 190.5 269.5C 191.3 264 192 259.2 192 258.8C 192 258.4 197.1 258 203.3 258.1C 214.7 258.1 220 257.5 220 256C 220 255.6 218.3 255.6 216.3 256.1C 211.8 257.1 200.6 257.3 196 256.4C 193 255.7 192.9 255.6 193.5 252.1C 193.9 250.1 195.5 244.3 197.2 239.2C 198.8 234.1 199.9 229.4 199.7 228.7C 199.5 228 197.9 231.9 196.1 237.3z"/>
<path style="stroke:none; fill:#000000" d="M 666.5 237.5C 654.4 242.7 643.2 247.4 641.6 248C 640 248.5 639 249.3 639.3 249.6C 640 250.3 688.6 230.5 690.5 228.9C 692.8 226.7 687 228.8 666.5 237.5z"/>
<path style="stroke:none; fill:#000000" d="M 598.2 287.1C 583.3 303.1 571 316.7 571 317.4C 571 318.7 570.3 319.4 599.6 288C 627.8 257.8 627.6 258 626.4 258C 625.9 258 613.2 271.1 598.2 287.1z"/>
<path style="stroke:none; fill:#000000" d="M 504 269.8C 504 271.1 556.9 317 558.4 317C 559.8 317 559.1 316.4 536 296.5C 525.3 287.2 513.7 277.2 510.3 274.2C 506.8 271.2 504 269.2 504 269.8z"/>
<path style="stroke:none; fill:#000000" d="M 464.8 295C 449.5 308.8 437 320.5 437 321.1C 437 321.8 441.2 318.5 446.3 313.8C 451.3 309.2 464.2 297.6 474.8 288.1C 485.3 278.6 494 270.6 494 270.4C 494 268.9 489.4 272.8 464.8 295z"/>
<path style="stroke:none; fill:#000000" d="M 934.8 302.7C 933.9 303.7 931.8 307.4 930.1 310.9C 928.4 314.4 925.5 319 923.8 321.3C 920.8 325 909.9 333 907.8 333C 906.9 333 907.6 316.6 908.6 312.9C 909 311.5 907.3 311.2 895.8 310.6C 888.5 310.3 880.4 309.7 877.9 309.4L 873.2 308.8L 872.5 312.6C 871.3 319.6 870.2 350.9 870.1 385.1L 870 418.6L 872.5 422C 873.8 423.8 882.3 430.8 891.2 437.5C 900.2 444.2 909.7 451.7 912.4 454.2L 917.3 458.6L 915.1 475.6C 912.6 494.8 909.4 511.8 907.8 513.7C 907.1 514.6 907.1 515 907.9 515C 909.7 515 907.8 517.7 900.4 525.9C 896.6 530 892.1 533.9 890.3 534.7C 885.8 536.5 885.7 540.3 890.1 541.9C 895.5 543.8 913.7 543.3 922.5 541C 934.7 537.9 935.1 537.5 934.9 527.7C 934.7 521 935.5 516.4 938.9 503C 941.1 493.9 943 485.4 943 484.2C 943 483 943.3 482 943.8 482C 944.2 482 947.2 484.3 950.5 487.1C 953.8 489.9 957.3 492.8 958.2 493.5C 961.7 496.4 967.4 519.5 966.3 526.3C 965.6 531 967.4 534.3 970.3 533.4C 976.5 531.5 980 525.1 980 515.4C 980 508.8 980.7 504.4 985.6 480.2C 987 473.4 987.8 467 987.4 465.8C 986.6 463.3 981.7 461.2 974.3 460.4C 967.7 459.6 959.7 456.4 952.9 451.8L 948.3 448.7L 947 428.2C 945.2 399.3 946.5 382.5 952.5 357C 954.4 349 956.2 339.9 956.6 336.6C 957.3 330.8 957.3 330.8 958.7 333.4C 959.5 334.9 963 343.4 966.4 352.3C 985.8 401.8 995.3 447.7 996.6 497.4C 996.8 507.8 997.3 516.6 997.5 516.9C 997.8 517.1 998 509.9 998 500.8C 998 449.4 985.5 392.1 962.6 338.8C 960.1 332.9 958 327.1 958 326.1C 958 323.4 956.6 319.8 953.4 314.9L 950.8 310.7L 947 317.4L 943.3 324.1L 940.6 320.9C 937.4 317.1 934 310.7 934 308.5C 934 307.6 934.7 305.6 935.5 304C 937.3 300.6 937 300.2 934.8 302.7zM 913.4 406L 913.9 415.5L 910.5 411.6C 903.1 403.2 902.3 392.6 908.2 380.6L 911.5 373.8L 912.2 385.2C 912.5 391.4 913.1 400.8 913.4 406z"/>
<path style="stroke:none; fill:#000000" d="M 1054.1 432C 1052.4 440.8 1047.5 455.8 1043.3 465.5C 1034.7 485.3 1022.3 501.1 1006.6 512.1C 1002.8 514.8 1000.1 517 1000.7 517C 1002.9 517 1015.9 506.9 1022 500.4C 1033.5 488.2 1042.8 472.2 1049.3 453.4C 1053.1 442.6 1056.4 428.8 1055.8 426.8C 1055.5 426.1 1054.8 428.5 1054.1 432z"/>
</g>
</g>
</svg>