<?xml version="1.0" encoding="UTF-8" standalone="yes"?>
<!-- Created with sK1/UniConvertor (http://sk1project.org/) -->
<svg xmlns="http://www.w3.org/2000/svg" xmlns:xlink="http://www.w3.org/1999/xlink"
  width="1337pt" height="968pt" viewBox="0 0 1337 968"
  fill-rule="evenodd">
<g>
<g>
<path style="stroke:none; fill:#000000" d="M 526.8 169.6C 510 173.6 495.8 187.7 492.1 204.1C 491.5 206.5 491.1 215.2 491.1 223.5L 491.1 238.5L 492.9 232.8C 496.5 221.6 505.6 210.7 515.9 205.6C 527.3 199.8 522.3 200 647.7 200C 729.2 200 764.4 200.3 768.2 201.1C 784 204.5 798.1 217.3 803.1 232.8L 804.9 238.5L 804.9 223.5C 804.9 215.2 804.5 206.5 803.9 204.1C 800 187.1 784.5 172.3 767.1 169C 763.6 168.4 721.2 168 647.1 168.1C 553 168.2 531.5 168.4 526.8 169.6zM 696.6 184.1C 698.3 186 698.3 186.4 696.9 188.8C 695.8 190.8 694.6 191.5 692.5 191.5C 690.4 191.5 689.2 190.8 688.1 188.8C 686.7 186.4 686.7 186 688.4 184.1C 689.5 182.9 691.3 182 692.5 182C 693.7 182 695.5 182.9 696.6 184.1zM 674.3 185.2C 675.1 186.4 675 187.3 674.1 188.4C 672.9 189.8 669.4 190 648.4 190C 624.8 190 624 189.9 623 187.9C 622.1 186.4 622.2 185.5 623.1 184.4C 624.1 183.2 628.3 183 648.8 183.2C 670.4 183.5 673.4 183.7 674.3 185.2z"/>
<path style="stroke:none; fill:#000000" d="M 486 314.5L 486 364L 488.5 364L 491 364L 491 314.5L 491 265L 488.5 265L 486 265L 486 314.5z"/>
<path style="stroke:none; fill:#000000" d="M 486 426L 486 454L 488.5 454L 491 454L 491 426L 491 398L 488.5 398L 486 398L 486 426z"/>
<path style="stroke:none; fill:#000000" d="M 517 651C 517 652.9 517.7 653 538.5 653C 559.3 653 560 652.9 560 651C 560 649.1 559.3 649 538.5 649C 517.7 649 517 649.1 517 651z"/>
<path style="stroke:none; fill:#000000" d="M 574 651C 574 653 574.6 653 606.5 653C 637.5 653 639 652.9 639 651.1C 639 649.4 637.5 649.3 606.5 649.1C 574.5 649 574 649 574 651z"/>
<path style="stroke:none; fill:#000000" d="M 663 651.1C 663 652.9 664.2 653 684.5 653C 705.2 653 706 652.9 706 651C 706 649.2 705.2 649.1 684.5 649.2C 664.2 649.3 663 649.4 663 651.1z"/>
<path style="stroke:none; fill:#000000" d="M 731 651C 731 652.9 731.7 653 752.5 653C 773.3 653 774 652.9 774 651C 774 649.1 773.3 649 752.5 649C 731.7 649 731 649.1 731 651z"/>
<path style="stroke:none; fill:#000000" d="M 491.1 798C 491 812.6 492.1 818.3 496.2 826.5C 501.5 836.8 510.6 844.7 522.6 849.2L 528.5 851.5L 648 851.5L 767.5 851.5L 773.4 849.2C 785.4 844.7 794.5 836.8 799.8 826.5C 803.9 818.3 805 812.6 804.9 798L 804.9 784.5L 803.1 790.2C 798.1 805.7 785 817.7 768.8 821.5C 759.1 823.8 537.1 823.7 527 821.4C 511.4 817.9 497.8 805.5 492.9 790.2L 491.1 784.5L 491.1 798z"/>
</g>
</g>
</svg>