<?xml version="1.0" encoding="UTF-8" standalone="yes"?>
<!-- Created with sK1/UniConvertor (http://sk1project.org/) -->
<svg xmlns="http://www.w3.org/2000/svg" xmlns:xlink="http://www.w3.org/1999/xlink"
  width="1126pt" height="652pt" viewBox="0 0 1126 652"
  fill-rule="evenodd">
<g>
<g>
<path style="stroke:none; fill:#000000" d="M 380.7 134.4C 379 136.3 338 206.6 326.6 227.2C 325.2 229.8 311 254.4 295.1 282L 266.2 332L 455.1 332C 559 332 644 331.7 644 331.4C 644 330.4 551.6 196.6 549.3 194.2C 546.5 191.4 539.6 191.2 536.4 193.8C 535.2 194.7 521.3 214.3 505.5 237.3C 480.2 274.2 476.6 278.9 475.5 277.3C 474.8 276.3 456.1 244 433.9 205.5C 411.7 167 392.7 134.7 391.8 133.8C 389.1 131.1 383.4 131.5 380.7 134.4z"/>
<path style="stroke:none; fill:#000000" d="M 669.2 276.9C 669 283.6 668.9 284.1 667.3 282.9C 665.9 281.7 665.9 281.9 667.4 284.3C 669.1 286.8 669.2 288.8 668.5 309.5L 667.8 332L 669.9 332C 672 332 672 331.7 671.5 321.7C 670.2 297 670.2 280.1 671.6 278.3C 672.3 277.3 672.9 276 672.9 275.5C 672.9 274.9 672.4 275.4 671.7 276.5C 670.6 278.3 670.4 278.1 669.9 274C 669.4 270.1 669.3 270.5 669.2 276.9z"/>
<path style="stroke:none; fill:#000000" d="M 757.2 276.9C 757 283.6 756.9 284.1 755.3 282.9C 753.8 281.6 753.8 281.7 755.3 284.7C 756.8 287.5 756.9 290.5 756.3 310L 755.7 332L 757.9 332C 759.8 332 760 331.6 759.6 328.7C 759.3 327 758.8 315.5 758.5 303.4C 757.9 284.1 758 280.8 759.5 277.9C 760.7 275.3 760.8 274.9 759.6 276.4C 758.2 278.1 758.1 277.9 757.7 273.9C 757.5 270.9 757.3 271.9 757.2 276.9z"/>
<path style="stroke:none; fill:#000000" d="M 812.2 276.9C 812 283.7 811.9 284.1 810.3 282.9C 808.7 281.6 808.7 281.7 810.3 284.3C 812 286.9 812.1 288.9 811.4 309.6L 810.7 332L 812.9 332C 815 332 815.1 331.7 814.6 326.2C 814.3 323.1 813.8 311.5 813.5 300.4C 813.1 283.9 813.3 280 814.5 278.4C 815.3 277.4 815.9 276 815.9 275.5C 815.9 274.9 815.4 275.4 814.7 276.5C 813.6 278.3 813.4 278.1 812.9 274C 812.4 270.1 812.3 270.5 812.2 276.9z"/>
<path style="stroke:none; fill:#000000" d="M 162 291.6C 156.5 292.6 147.2 296.4 142.2 299.7C 126.8 309.9 118 329.6 120.8 347.8C 125.1 375.5 150.8 394.6 177.7 390.1C 200.9 386.1 217.7 367.9 219.7 344.5C 220.5 334.2 216.9 320.1 211.8 313.7L 209.5 310.9L 191.3 331.8C 181.2 343.3 172.3 353.3 171.4 354C 170.1 355.2 168.1 353.6 156.9 342.4C 149.8 335.3 144 328.8 144 328C 144 327.1 144.5 325.9 145.2 325.2C 147.9 322.5 150.7 324.1 160 333.5C 165.2 338.7 169.8 342.9 170.1 342.8C 170.5 342.6 178.2 334 187.4 323.6C 199.8 309.3 203.7 304.3 202.9 303.4C 200.8 300.9 192.2 296 186.4 294C 180.7 292 167.1 290.7 162 291.6z"/>
<path style="stroke:none; fill:#000000" d="M 713 296.9C 713 299.7 712.6 300.9 711.9 300.4C 711.2 300 711.2 300.6 712 302.1C 712.9 303.8 713.1 308 712.6 318.2C 712 329.3 712.1 332 713.2 332C 714.2 332 714.5 328.2 714.3 312.9C 714.1 302.3 713.8 293.5 713.5 293.2C 713.2 292.9 713 294.6 713 296.9z"/>
<path style="stroke:none; fill:#000000" d="M 853 296.6C 853 298.7 852.9 307.6 852.7 316.3C 852.6 327.7 852.8 332 853.7 332C 854.5 332 854.7 327 854.3 312.8C 854.1 302.2 853.7 293.3 853.4 293.1C 853.2 292.9 853 294.4 853 296.6z"/>
<path style="stroke:none; fill:#000000" d="M 784.2 481.1C 780.6 482.5 779.5 486.7 781.7 491.2C 783.1 494.2 784.1 495 786.3 495C 789 495 789.9 493.3 788.1 491.4C 787.5 490.9 787 488.2 786.8 485.4C 786.5 480.5 786.4 480.3 784.2 481.1z"/>
<path style="stroke:none; fill:#000000" d="M 739.1 501.3C 737.2 503.7 735 511.1 735 515.2C 735 519.1 735.1 519.2 737.8 518.6C 741.5 517.7 746 512.6 746 509.2C 746 506.3 742.7 500 741.1 500C 740.6 500 739.7 500.6 739.1 501.3z"/>
<path style="stroke:none; fill:#000000" d="M 834 503C 834 505.3 834.4 506 836 506C 837.6 506 838 505.3 838 503C 838 500.7 837.6 500 836 500C 834.4 500 834 500.7 834 503z"/>
<path style="stroke:none; fill:#000000" d="M 759.5 520.9C 745.9 527.1 744.4 545.3 756.8 553.6C 769.1 561.9 786.1 552.2 786 537C 786 535.6 785.1 532.7 784.1 530.5C 779.6 520.7 769 516.6 759.5 520.9zM 773.6 531.4C 777.3 535.1 777.9 538.4 775.6 542.9C 770.9 551.9 757 547.9 757 537.4C 757 533.6 762.9 528 767 528C 769.3 528 771.2 528.9 773.6 531.4z"/>
<path style="stroke:none; fill:#000000" d="M 852.5 520.9C 831.5 530.4 842.9 561.9 865.1 556C 870.3 554.6 876.8 548.3 877.7 543.9C 878.2 541 878.3 541 885.6 541C 891.5 541 893 540.7 893 539.5C 893 537.8 891.4 537.5 890.5 539C 890.2 539.5 887.4 540 884.4 540C 879.2 540 879 539.9 879 537.2C 879 535.7 878.1 532.7 877.1 530.5C 872.6 520.7 862 516.6 852.5 520.9zM 867.3 532C 870.3 535.4 870.7 538.7 868.6 542.9C 865.1 549.5 854.9 549.5 851.4 542.9C 849.1 538.3 849.7 535.1 853.5 531.3C 856.7 528.1 857.5 527.8 860.8 528.3C 863.2 528.7 865.5 530 867.3 532z"/>
</g>
</g>
</svg>