<?xml version="1.0" encoding="UTF-8" standalone="yes"?>
<!-- Created with sK1/UniConvertor (http://sk1project.org/) -->
<svg xmlns="http://www.w3.org/2000/svg" xmlns:xlink="http://www.w3.org/1999/xlink"
  width="1128pt" height="621pt" viewBox="0 0 1128 621"
  fill-rule="evenodd">
<g>
<g>
<path style="stroke:none; fill:#000000" d="M 699 453.5L 699 538L 551.9 538L 404.7 538L 407.4 535.9C 414.4 530.4 415 520.2 408.7 513.2L 406.7 511L 410.9 511C 413.2 511 414.9 511.4 414.6 511.9C 413.8 513.2 414.9 515.7 416.6 516.4C 417.7 516.8 418 515.9 418 512L 418 507L 360.5 507L 303 507L 303 482.1C 303 466.5 302.6 456.9 302 456.5C 300.2 455.4 300.8 445.2 302.8 443.2C 303.7 442.2 305 440.6 305.5 439.8C 306.3 438.5 446.2 381 448.4 381C 448.7 381 449 393.6 449 409.1C 449 426 449.4 436.9 449.9 436.5C 450.4 436.2 451.1 436.8 451.3 437.7C 451.6 438.7 451.8 425.4 451.9 408.2C 452 377.1 452 377 449.9 377C 448.7 377 415.6 390.1 376.2 406C 314.3 431.2 304.3 434.9 302 434.1C 298 432.8 294.6 434.7 294.2 438.6C 294 440.5 294.5 442.2 295.4 443C 297.2 444.4 297.7 457 296 457C 295.4 457 295 467.7 295 487L 295 517L 274.5 517L 254.1 517L 252.6 514.1C 249.2 507.7 240.8 503.3 234.2 504.5C 219.7 507.2 214.3 524.4 224.7 534.5L 228.3 538L 174.2 538C 138.7 538 120 538.3 120 539C 120 539.7 268.7 540 564 540C 859.3 540 1008 539.7 1008 539C 1008 538.3 976.8 538 916.5 538L 825 538L 825 453.5L 825 369L 762 369L 699 369L 699 453.5zM 740 399L 740 409L 730 409L 720 409L 720 399L 720 389L 730 389L 740 389L 740 399zM 772 399L 772 409L 762 409L 752 409L 752 399L 752 389L 762 389L 772 389L 772 399zM 804 399L 804 409L 794 409L 784 409L 784 399L 784 389L 794 389L 804 389L 804 399zM 740 431L 740 441L 730 441L 720 441L 720 431L 720 421L 730 421L 740 421L 740 431zM 772 431L 772 441L 762 441L 752 441L 752 431L 752 421L 762 421L 772 421L 772 431zM 804 431L 804 441L 794 441L 784 441L 784 431L 784 421L 794 421L 804 421L 804 431zM 740 463L 740 473L 730 473L 720 473L 720 463L 720 453L 730 453L 740 453L 740 463zM 772 463L 772 473L 762 473L 752 473L 752 463L 752 453L 762 453L 772 453L 772 463zM 804 463L 804 473L 794 473L 784 473L 784 463L 784 453L 794 453L 804 453L 804 463zM 782 521L 782 538L 762 538L 742 538L 742 521L 742 504L 762 504L 782 504L 782 521zM 243.5 515.5C 249.1 521.1 245.3 531 237.5 531C 232.6 531 230.1 529.5 228.4 525.4C 227.2 522.5 227.2 521.5 228.4 518.6C 230.1 514.5 232.3 513.1 237.3 513C 240 513 241.8 513.7 243.5 515.5zM 403.5 518.5C 410.8 525.8 399.8 536.9 392.3 529.8C 389.3 527 389.2 521.5 392.2 518.3C 395.2 515.1 400.3 515.2 403.5 518.5zM 383.3 528.2C 383.8 530.5 385.5 533.1 387.6 535L 391.1 538L 318 538L 244.9 538L 248.4 535C 250.2 533.3 252.5 530.2 253.4 528L 255 524L 318.7 524.3L 382.4 524.5L 383.3 528.2z"/>
<path style="stroke:none; fill:#000000" d="M 448.2 444C 448.2 445.4 448.4 445.9 448.7 445.2C 448.9 444.6 448.9 443.4 448.7 442.7C 448.4 442.1 448.2 442.6 448.2 444z"/>
<path style="stroke:none; fill:#000000" d="M 452.2 445C 452.2 446.4 452.4 446.9 452.7 446.2C 452.9 445.6 452.9 444.4 452.7 443.7C 452.4 443.1 452.2 443.6 452.2 445z"/>
<path style="stroke:none; fill:#000000" d="M 447.2 453.5C 447.2 455.1 447.4 455.7 447.7 454.7C 447.9 453.8 447.9 452.4 447.7 451.7C 447.4 451.1 447.2 451.8 447.2 453.5z"/>
<path style="stroke:none; fill:#000000" d="M 453.2 454C 453.2 455.4 453.4 455.9 453.7 455.2C 453.9 454.6 453.9 453.4 453.7 452.7C 453.4 452.1 453.2 452.6 453.2 454z"/>
<path style="stroke:none; fill:#000000" d="M 445.7 466.5C 445.2 470.3 444.6 475 444.3 476.7L 443.8 480L 450.4 480L 457 480L 456.4 473.7C 455.3 463 454 458.5 454.6 467.5C 454.9 471.9 455.4 476.3 455.6 477.2C 456.1 478.8 455.4 479 450.7 479L 445.4 479L 446.2 471.8C 446.7 467.8 446.9 463.4 446.8 462C 446.6 460.6 446.1 462.6 445.7 466.5z"/>
<path style="stroke:none; fill:#000000" d="M 263.2 480.2C 261.6 481.8 261.7 484.1 263.4 486.2C 265.1 488.4 267.4 488.6 266.6 486.4C 266.3 485.5 266 483.5 266 481.9C 266 478.8 265.1 478.3 263.2 480.2z"/>
<path style="stroke:none; fill:#000000" d="M 285 499C 285 501.9 285.4 503 286.5 503C 287.6 503 288 501.9 288 499C 288 496.1 287.6 495 286.5 495C 285.4 495 285 496.1 285 499z"/>
<path style="stroke:none; fill:#000000" d="M 220.1 499.1C 219.5 500.9 219.2 502.6 219.5 502.9C 220.7 504 223.5 501.2 223.5 499C 223.5 495.4 221.4 495.5 220.1 499.1z"/>
</g>
</g>
</svg>