<?xml version="1.0" encoding="UTF-8" standalone="yes"?>
<!-- Created with sK1/UniConvertor (http://sk1project.org/) -->
<svg xmlns="http://www.w3.org/2000/svg" xmlns:xlink="http://www.w3.org/1999/xlink"
  width="1112pt" height="806pt" viewBox="0 0 1112 806"
  fill-rule="evenodd">
<g>
<g>
<path style="stroke:none; fill:#000000" d="M 764.5 235.7C 761.9 238.6 760.4 243.9 761.4 246.6C 761.9 247.9 761.5 248 759 247.5C 754.1 246.4 745.1 245.7 735.8 245.6C 727.9 245.5 726.9 245.7 724.4 248C 720.6 251.6 718 257.7 718 263.7C 718 268.5 718.2 268.9 721.5 270.8C 724.8 272.8 724.9 273.1 723.8 276C 722.4 280.1 723.3 289.7 725.5 294.1C 726.4 296 728.5 298.9 730.2 300.6L 733.1 303.7L 727 309.4L 720.9 315L 729.5 314.4L 738.1 313.7L 737.4 316.6C 737.1 318.2 736.7 319.9 736.6 320.5C 736.4 321.9 744.7 325.7 751 327.1C 758.3 328.6 765.5 327 770.4 322.7L 774.1 319.5L 772.5 315C 771.5 312.1 771.3 310.4 772 310.2C 772.5 310 773 308.7 773 307.4C 773 304.5 774.5 304.3 775.9 306.9C 777.3 309.4 781.6 308.5 783.7 305.4C 784.9 303.6 785.6 303.2 787 304C 788.5 304.8 788.1 302.3 784 286.1C 781.4 275.8 778.5 265.9 777.6 264.2C 775.5 260.2 775.5 260.4 779.2 259.6C 783.5 258.7 787.8 254.5 789.1 249.8C 790.4 244.7 787.6 237.9 783.1 235.6C 776.4 232.1 767.3 234.9 764.5 241.3C 763.4 243.8 763.1 244 763 242.4C 763 241.2 764.1 238.6 765.5 236.6C 768.4 232.3 768 232 764.5 235.7z"/>
<path style="stroke:none; fill:#000000" d="M 558 289.2C 554.5 294.3 549.7 301.3 547.2 304.7C 543.6 309.9 543.2 311 544.7 311C 545.8 311 548.1 308.6 550.7 304.7C 552.9 301.3 557.4 294.8 560.5 290.2C 564.2 284.9 565.9 281.5 565.3 280.9C 564.7 280.3 562.1 283.3 558 289.2z"/>
<path style="stroke:none; fill:#000000" d="M 702.2 368.8C 701.4 369.3 699.8 378.4 697.7 393L 694.5 416.5L 672 425.2C 659 430.3 645.9 434.7 641 435.7C 631.2 437.6 628 440 628 445.2C 628 449.7 630.4 452.8 634.5 453.6C 637.4 454.1 639.6 453.3 649.2 448.2L 660.5 442.1L 689 436.5C 704.6 433.5 717.6 430.8 717.7 430.6C 717.9 430.4 718.9 417.9 719.9 402.9L 721.8 375.5L 719 372.8C 714.8 368.9 705.6 366.7 702.2 368.8z"/>
<path style="stroke:none; fill:#000000" d="M 798.2 378.8C 791 382.9 789.9 383.9 789.4 386.9C 789 388.7 789.4 412.1 790.2 438.9C 791.9 493.1 791.4 500.6 787.7 478C 785.4 464.3 781.6 451.7 776.7 442L 772.5 433.6L 751.5 433.8C 715.4 434.2 701.1 435 700.6 436.9C 698.5 443.9 641.1 696.4 641.5 697C 642.3 698.2 624.8 708 621.8 708C 618.5 708 614 711.9 614 714.8C 614 715.9 614.8 717.7 615.8 718.9C 617.2 720.7 620.1 721.4 635 723.5C 657.7 726.7 658.5 726.7 662.1 723.1C 665.6 719.5 665.9 715.8 663 707.6C 661.5 703.2 661.4 701.9 662.4 702.3C 663.4 702.7 664.3 701.1 665.5 696.7C 669.1 683.7 680.6 649.7 687.5 631.5C 704.1 587.6 721.5 552.9 740.7 525.2C 744.3 520.1 747.3 516 747.5 516.2C 747.7 516.4 749.6 524.6 751.9 534.5C 758.5 564 764 598.2 768 634C 770.2 654.7 773 687.9 773 694.5L 773 698.8L 765.2 703.4C 760.9 705.9 756.2 708 754.8 708C 751.4 708 747 711.6 747 714.5C 747 715.7 747.8 717.7 748.8 718.9C 750.2 720.7 753.2 721.4 769.1 723.7C 779.5 725.1 788.9 726 790.4 725.6C 791.9 725.2 794.3 723.8 795.6 722.5C 798.7 719.4 798.7 714.8 795.8 707.8L 793.5 702.5L 793.5 613.5C 793.5 564.5 793.1 523 792.6 521.2C 791.8 518.1 791.8 518 794.9 518C 799.5 518 803.5 515.6 805 511.9C 806 509.5 806.1 507 805.3 500.8C 804.5 495.1 804.6 476.2 805.6 433.7C 806.3 401.2 806.8 374.5 806.7 374.3C 806.5 374.2 802.7 376.2 798.2 378.8z"/>
<path style="stroke:none; fill:#000000" d="M 846.2 681.9C 844.4 683.4 844 684.8 844 690.4L 844 697L 853.9 697L 863.8 697L 865.9 693.5C 868.4 689.1 873.9 686.6 878.6 687.5C 882.4 688.2 887.6 692.1 888.5 695C 889.1 696.8 890.1 697 899.6 697L 910 697L 910 690.2C 910 684 909.8 683.2 907.6 682C 906 681.2 904 681 901.8 681.5C 900 681.9 895.2 682.4 891.3 682.7C 885.1 683.1 884 682.9 884 681.6C 884 680.3 882.7 680 876.5 680C 870.5 680 869 680.3 869 681.5C 869 682.7 867.5 683 861.9 683C 857 683 854.4 682.6 853.4 681.5C 851.3 679.5 848.8 679.6 846.2 681.9z"/>
<path style="stroke:none; fill:#000000" d="M 873.4 690.9C 870.4 692.2 867 696.8 867 699.7C 867 705.3 871.8 710 877.5 710C 880.7 710 885.7 705.6 886.5 702C 887.1 699 885.4 694.4 882.7 692.2C 880.7 690.5 875.9 689.9 873.4 690.9zM 882.3 694.8C 885.1 697.3 884.6 703.4 881.3 706C 874.5 711.4 865.7 703.2 870.6 696.2C 873.6 691.9 878.4 691.4 882.3 694.8z"/>
<path style="stroke:none; fill:#000000" d="M 844 710L 844 717L 877 717L 910 717L 910 710L 910 703L 899.7 703L 889.4 703L 887.8 706.3C 886 710 880.9 713 876.3 713C 872.5 713 867.4 709.7 865.5 706L 863.9 703L 854 703L 844 703L 844 710z"/>
</g>
</g>
</svg>