<?xml version="1.0" encoding="UTF-8" standalone="yes"?>
<!-- Created with sK1/UniConvertor (http://sk1project.org/) -->
<svg xmlns="http://www.w3.org/2000/svg" xmlns:xlink="http://www.w3.org/1999/xlink"
  width="1190pt" height="864pt" viewBox="0 0 1190 864"
  fill-rule="evenodd">
<g>
<g>
<path style="stroke:none; fill:#000000" d="M 694.7 142.8C 693.1 143.9 688.5 148.7 684.5 153.5L 677.1 162.3L 677.7 168.9C 678 172.5 678.6 176.2 679.1 177.1C 679.5 178 679.7 179.6 679.4 180.6C 678.8 182.9 680.5 188 681.9 188C 682.4 188 683.1 186.7 683.5 185C 684.4 180.8 685.4 180.6 688.9 183.6C 692.6 186.7 694.6 185.8 695.6 180.5L 696.2 177.3L 708.3 177.2C 723.7 177.2 729.8 178.7 733.8 183.6L 736.8 187.2L 740.3 184L 743.9 180.9L 744.5 183.7C 745.8 189.6 746 189.7 748.6 186.5C 752.1 182.2 753.6 176.6 752.2 173.4C 751.5 172.1 751 169.3 751 167.3C 751 165.2 750.1 162.3 748.9 160.6C 746.7 157.4 732.6 145.4 728.7 143.4C 727.5 142.7 720 141.9 712 141.6C 698.7 140.9 697.3 141 694.7 142.8z"/>
<path style="stroke:none; fill:#000000" d="M 747.3 229.1C 746.6 229.8 746 231.9 746 233.7C 746 240.2 742 245 729.7 253C 726 255.5 722.7 258.3 722.4 259.4C 721.9 260.9 721.5 260.8 719.9 258C 717.8 254.6 711.2 251.1 706.9 251C 703.5 251 702.3 249.4 699.5 241.7C 696.8 234.4 695.1 233.6 690.6 237.8C 688.2 240.1 686.3 240.9 681.8 241.3C 678.6 241.6 674.8 242.7 673.3 243.8C 671.7 244.8 667 246.9 662.8 248.4C 643.2 255.2 628.2 264.6 624.5 272.3C 623.4 274.5 620.5 277.9 618 279.8C 615.5 281.7 613.2 283.8 612.7 284.6C 612.3 285.4 614.7 290.2 619.5 297.7C 623.6 304.1 626.6 309.8 626.2 310.2C 625.7 310.7 618.4 314 610 317.6C 601.5 321.2 593.2 324.8 591.7 325.6C 589.6 326.8 587.4 327 582.6 326.5C 578.2 326 576 326.2 575.5 326.9C 575.1 327.6 576.7 333.1 579 339.1C 585.4 356.4 584.9 366 577.6 366C 571.5 366 558.9 352.9 555.5 343.1C 553.7 337.9 553.6 329.2 555.1 322.1C 556.1 317.1 558.6 314.2 566.6 308.4L 569.5 306.2L 565.3 307C 562.9 307.4 561 307.4 561 306.9C 561 302.7 557.8 235.5 557.6 235.3C 557.5 235.1 545.5 233.6 531 231.9L 504.7 228.8L 468.2 235C 448.1 238.4 431.2 241.4 430.8 241.6C 430.4 241.9 430 259.2 430 280L 430 317.9L 434.3 318.5C 442.5 319.6 485.7 324 490.1 324.1C 492.5 324.2 500.5 323 507.8 321.5C 515 319.9 521.2 318.9 521.5 319.2C 521.9 319.5 524.8 374.3 525 385.1C 525 385.5 524.1 386 523 386.3C 521.1 386.8 520 390.9 521.8 391.1C 522.2 391.1 536.2 392.6 553 394.4L 583.5 397.6L 599 394.2C 607.5 392.4 622.7 389.2 632.8 387.1C 642.8 385 651.3 383 651.6 382.7C 651.9 382.4 651.4 365.7 650.5 345.5C 648.7 304.7 648.4 307.6 655.3 305.1C 658.4 304 658 303.3 664.7 320.5C 670.8 335.9 672.1 344.5 672.7 371.7C 673.3 397.4 672.5 407.4 668.9 417.7C 665 429.2 667.1 434 676.1 434C 680.3 434 681.1 434.3 680.6 435.5C 680.3 436.4 679.1 444.6 677.9 453.8C 674.5 480.2 675.4 500.3 681.4 537.5C 689.1 585.3 692.5 595.9 705.5 613C 709.1 617.7 715.4 626.1 719.5 631.7L 727 641.8L 724.6 650.4C 722.1 658.7 716 705.5 716 715.5C 716 719.4 716.5 720.7 719.1 723.3C 721.9 726.1 722.1 726.6 720.9 728.4C 720.2 729.6 719.3 733.2 719 736.5L 718.5 742.5L 707.3 742.8L 696.2 743.1L 695.6 735.8C 695.3 731.8 694.1 705.3 693 677C 691.9 648.7 690.7 621.1 690.4 615.8L 689.8 606.2L 685 605.5L 680.2 604.8L 679.6 597.7C 679.3 593.7 678.6 578.6 678 564C 677.4 549.5 676.8 537.4 676.6 537.3C 676.5 537.1 664.7 535.6 650.4 533.9L 624.5 530.9L 613.7 532.6C 607.8 533.5 602.8 534.1 602.6 533.9C 602.3 533.7 601.7 521.8 601.1 507.5C 600.5 493.2 599.7 477.4 599.4 472.4L 598.8 463.3L 573 468.6L 547.1 474L 517.8 471C 501.7 469.3 487.7 468 486.8 468C 485.1 468 485 465.6 485 431L 485 394L 482.8 394.5C 481.5 394.8 475 396.1 468.3 397.5L 456 399.9L 426.8 397C 410.7 395.3 396.7 394 395.8 394C 394.6 394 394 393.2 394 391.6L 394 389.3L 380.3 391.6C 372.7 393 365.9 394.2 365.3 394.5C 364.3 394.8 364 403.4 364 432.9L 364 470.9L 366.8 471.2C 368.4 471.4 366.5 472 361.8 472.8L 354 474.1L 354 547.5L 354 620.9L 358.3 621.4C 361.9 621.9 394.6 625.3 433.8 629.2L 445 630.3L 445 698L 445 765.6L 431.9 768.1L 418.9 770.7L 361.7 764.9C 330.2 761.7 303.5 759.1 302.3 759C 300.1 759 300 758.6 300 752.4L 300 745.8L 288.3 746.4C 281.8 746.8 262.1 747.7 244.5 748.6C 180.8 751.5 138.4 755.6 125.6 759.8C 122.8 760.7 120.5 761.9 120.5 762.5C 120.7 770.2 201.2 776.4 366.5 781.2C 425.4 783 724.1 783 785 781.2C 894.9 778.1 962 774.6 999.9 770C 1026.3 766.7 1035.3 763.7 1027.8 760.6C 1021 757.7 993.8 753.9 969.7 752.4L 958.9 751.7L 955.9 747.3C 953.2 743.4 952.5 743 948.7 742.9C 944.8 742.9 944.3 742.5 941.4 738L 938.3 733.2L 941.2 734.2C 944.9 735.5 950.1 734.5 953.4 731.9C 957.3 728.8 956.6 728 950.3 728C 943.5 728 939.8 726.1 935.2 720.2L 932 716.2L 934.7 713C 936.2 711.2 939 709.1 941 708.3C 949.7 704.7 966.3 691.1 969.6 684.8C 970.3 683.4 971.3 679.7 971.6 676.6L 972.3 671L 975.8 674.1C 979 677 979.8 677.2 984.8 676.8C 989.6 676.4 990.8 675.8 993.7 672.7C 995.5 670.7 997 668.6 997 668.2C 997 667.7 994.5 667.7 991.5 668.3C 983.8 669.6 979.7 668.6 976.5 664.7C 975 662.9 973.2 660.7 972.4 659.7C 971.5 658.6 971 655.7 971 652C 971 647.2 971.3 646 972.6 646C 974.3 646 981 639.8 981 638.2C 981 637.6 978.1 637.4 973.1 637.7C 964.5 638.3 963.7 637.9 958.7 630.6C 956.1 626.9 954.7 628.3 955.2 634.2C 955.8 639.7 958.5 643.4 963.6 645.6L 966.8 646.9L 967.5 659.5C 968.4 675.4 967.9 681.3 965.1 685C 964 686.6 963 688.6 963 689.3C 963 691.8 951.7 693 946.6 691C 945.2 690.5 942.8 688.3 941.3 686.1C 938 681.4 937.3 681.1 936.4 684.4C 935.1 689.6 938.8 695.6 945.5 699.6C 947.2 700.5 946.9 700.9 943.4 703C 927.1 713.1 924.9 722.7 936 736.5C 941.6 743.6 941.6 743.8 936.8 745.9C 929.8 749 923.4 749.2 886 747.6C 866.5 746.8 841.7 745.8 830.9 745.4L 811.2 744.7L 813.1 740.6C 814.2 738.2 815 734.2 815 730.9C 815 724.2 816.1 720.7 821.1 712C 826.4 702.8 829.8 692.5 828.4 690.3C 827.8 689.3 823.4 687 818.6 685.1C 810.3 681.9 810 681.7 810 678.6C 810 674.2 807.6 671.3 802.9 669.9C 798 668.4 790.8 662.2 787.6 656.7C 786.2 654.4 783.2 647.4 780.9 641.2L 776.7 629.9L 778.3 616.7C 781.1 594.4 788 516.8 788.1 506.4C 788.1 500.9 788.8 494 789.5 491C 790.3 488 791.3 476.3 791.9 465C 792.5 453.7 793.3 440.6 793.6 435.9L 794.2 427.3L 790.2 426.6C 780.7 425.1 778.3 412.3 785.5 401.6L 788 397.9L 786 395C 783.3 391.2 783.4 386.3 786.3 383.2C 788.3 381 788.6 379.5 789.2 365.2C 789.5 356.6 789.6 339.7 789.3 327.7L 788.7 306L 792.1 305.8C 802.4 305.4 806.3 306.5 811.4 311.6C 815.2 315.3 816.3 315.9 817.9 315.1C 820.5 313.7 837 296 838.3 293.3C 839.6 290.5 835.7 283.7 828.5 276C 825.6 272.9 822.3 268.5 821.1 266.1C 818.8 261.7 816.7 259.5 803.8 248.5C 795.2 241.3 793.7 240.5 783.1 238.3C 779.1 237.5 771.9 235 767.1 232.7C 757.8 228.4 749.5 226.8 747.3 229.1zM 737.9 560.4C 736.3 580.2 735.7 582.5 734.1 574C 732.7 566.4 731.2 529 732.1 523.4C 732.5 521 733.8 518.7 735.6 517.1L 738.5 514.7L 738.8 530.1C 739 538.6 738.6 552.2 737.9 560.4zM 772.9 706.8C 774.8 707.8 777.2 709.7 778.2 711C 779.9 713.4 782 724.2 783.4 738.2L 784 744L 769.3 744C 761.1 744 753.5 743.7 752.3 743.4C 750.8 743 749.7 741.6 749 739.1C 747.5 733.7 747.7 732.8 749.9 733.9C 751.6 734.8 751.8 734.4 752.4 728.9C 752.7 725.6 754.3 719.9 755.9 716.2C 757.5 712.5 759.1 706.8 759.5 703.5C 759.9 700.2 760.5 697.2 760.7 696.7C 760.9 696.3 763 698 765.3 700.4C 767.6 702.9 771 705.7 772.9 706.8z"/>
<path style="stroke:none; fill:#000000" d="M 278.7 418C 276.7 420.1 274.1 423.8 272.9 426.2C 266.9 438.3 257.3 441.8 239 438.5C 233.8 437.6 227.5 436.6 225.1 436.3C 220.9 435.7 220.8 435.8 221.5 438.1C 224.7 448.9 235.9 458.7 248.2 461.4L 250.9 462L 250.3 476.8C 249.8 491.4 248.9 495.7 247.6 490.4L 246.9 487.7L 243.9 490.6C 242.2 492.2 239.5 496.1 237.7 499.3C 230.7 512.5 220.2 516.1 199 512.6C 194.3 511.8 188.8 510.9 186.8 510.7L 183.2 510.2L 184.2 513.3C 187 521.3 194.7 529.6 202.8 533.2C 209.4 536.2 222.6 536.2 229.2 533.2C 237.3 529.6 244 522.4 247.7 513.5C 248.8 510.9 248.9 511.9 248.4 520.5C 247.3 540.4 250.9 552.1 261.8 564.1C 265 567.6 268.6 572.1 269.8 574.1C 273.2 579.7 281 586.5 286.5 588.6C 289.3 589.6 298 594.6 306.1 599.7C 317.2 606.8 321.1 608.8 322.9 608.3C 324.9 607.8 323.3 606.5 312.4 599.4C 302.1 592.7 300.1 591 302.2 591C 305.9 591 314.4 587.7 319.1 584.4C 330.1 576.8 335.7 558.7 330.9 546.2L 329.9 543.5L 326.2 547.6C 324.2 549.8 320.9 554.2 319.1 557.3C 314.8 564.4 310.4 567.5 301.6 569.7C 295.5 571.2 293.4 571.2 283.5 570.1C 269.3 568.6 266.6 567.8 266.1 565.4C 265.9 564.4 263.8 561 261.5 558C 251.7 545.4 251.3 542.8 252.9 498.5C 253.6 479.3 254.4 463.2 254.6 462.8C 254.8 462.4 257.4 461.6 260.3 461C 276 457.8 287 444.3 287 428.4C 287 420.9 285.3 414 283.5 414C 282.8 414 280.6 415.8 278.7 418z"/>
<path style="stroke:none; fill:#000000" d="M 282.9 660.7C 285.2 665.2 296.3 674 299.5 674C 299.8 674 300 670.6 300 666.5L 300 659L 291 659C 282.7 659 282 659.1 282.9 660.7z"/>
</g>
</g>
</svg>