<?xml version="1.0" encoding="UTF-8" standalone="yes"?>
<!-- Created with sK1/UniConvertor (http://sk1project.org/) -->
<svg xmlns="http://www.w3.org/2000/svg" xmlns:xlink="http://www.w3.org/1999/xlink"
  width="1365pt" height="931pt" viewBox="0 0 1365 931"
  fill-rule="evenodd">
<g>
<g>
<path style="stroke:none; fill:#000000" d="M 1082.5 159.1C 1080.3 160.1 1078.1 161.1 1077.6 161.3C 1076.5 161.7 1081.4 175.7 1083.6 178.1C 1084.5 179.1 1087.6 181.3 1090.4 182.9C 1093.2 184.5 1097.9 188.1 1100.8 190.9C 1103.7 193.7 1106.5 196 1107 196C 1108.4 196 1109 199 1108.4 202.8C 1107.8 206.9 1110.9 217.1 1113.7 220.2C 1117.3 224.2 1121.9 221.3 1129.9 209.7C 1135.9 200.9 1138.2 194.5 1138.8 184.9C 1139.2 177.8 1139 175.6 1137.6 173.6C 1134.6 169 1127.9 166.1 1114.6 163.5C 1107.6 162.2 1099.9 160.2 1097.3 159C 1091.7 156.6 1087.8 156.6 1082.5 159.1z"/>
<path style="stroke:none; fill:#000000" d="M 815 228.5L 815 253L 879.5 253L 944 253L 944 228.5L 944 204L 879.5 204L 815 204L 815 228.5z"/>
<path style="stroke:none; fill:#000000" d="M 799.1 234.5C 794.6 239.6 791.4 247 790 255C 788.6 263.2 789 299.8 790.6 300.8C 791.1 301.2 792.1 305.9 792.8 311.4C 793.4 316.8 794.1 321.5 794.4 321.8C 794.7 322.1 795.8 321.5 796.9 320.6C 797.9 319.7 801 318.1 803.6 317L 808.5 315.2L 808.8 305.6L 809.1 296L 805.8 296C 804 296.1 800.2 296.9 797.3 297.8L 792.2 299.6L 791.5 286.3C 790.1 261.2 793.2 244.6 800.6 236.8C 802 235.4 803 233.4 802.8 232.4C 802.6 231 801.8 231.4 799.1 234.5z"/>
<path style="stroke:none; fill:#000000" d="M 1118.1 252C 1118.1 252.9 1116.8 255.5 1115.3 257.9L 1112.5 262.2L 1097 261.6C 1088.5 261.2 1077.3 260.7 1072.3 260.3C 1066.5 260 1063 260.1 1063 260.7C 1063 261.3 1073.3 262.2 1087.7 262.9L 1112.3 264.2L 1114.2 261.9C 1117.3 257.9 1119.1 254 1118.7 252.2C 1118.3 250.8 1118.2 250.8 1118.1 252z"/>
<path style="stroke:none; fill:#000000" d="M 951 306C 951 313.9 951.3 316 952.4 316C 953.2 316 956.3 317.3 959.4 318.9L 965 321.9L 965.5 319.7C 965.7 318.5 966.4 313.7 967 309.1C 967.8 302.5 967.7 300.4 966.8 299.8C 964.8 298.5 955.9 296 953.3 296C 951 296 951 296.2 951 306z"/>
<path style="stroke:none; fill:#000000" d="M 1108.3 321.5C 1102.7 322 1097.8 322.8 1097.4 323.2C 1097 323.7 1101.2 324 1106.7 324C 1114.5 324 1117 323.7 1118 322.5C 1118.7 321.6 1119.1 320.8 1118.9 320.7C 1118.7 320.6 1113.9 320.9 1108.3 321.5z"/>
<path style="stroke:none; fill:#000000" d="M 792.4 324.4C 792 325.4 792.5 335.4 793.4 346.7C 795.6 372.5 795.7 398.9 793.6 408.8C 791 421.5 787.5 426.3 759.7 455.5C 741.9 474.2 738 479.5 738 485.2C 738 490.4 740.2 491.6 753.5 493.5C 759.6 494.4 767 495.8 770.1 496.6C 773.2 497.5 776.8 498 778.1 497.8C 782 497.1 768.8 493.4 755.9 491.4C 744.2 489.7 740 488.1 740 485.4C 740 480.9 746.4 472.7 765.1 453.5C 796.3 421.3 797.5 418.6 797.4 382.5C 797.4 362.5 794.8 324.5 793.5 323.1C 793.2 322.9 792.7 323.5 792.4 324.4z"/>
<path style="stroke:none; fill:#000000" d="M 1085.8 323.7C 1087 323.9 1089 323.9 1090.3 323.7C 1091.5 323.5 1090.5 323.3 1088 323.3C 1085.5 323.3 1084.5 323.5 1085.8 323.7z"/>
<path style="stroke:none; fill:#000000" d="M 983.2 330.3C 975.8 335 975 335.8 975.5 338C 975.8 339.4 976.6 343.6 977.4 347.3C 978.2 351.1 979 354.4 979.3 354.7C 980.3 355.7 997.2 350.7 997.8 349.2C 998.4 347.5 995.6 335.3 993.2 329.3L 991.5 325.1L 983.2 330.3z"/>
<path style="stroke:none; fill:#000000" d="M 764.5 334.2C 763 338.8 761.8 344.3 761.7 346.4L 761.5 350.3L 769.5 352.6C 780.3 355.6 781 355.6 781 352.2C 781 350.7 781.9 346.4 782.9 342.6L 784.8 335.8L 777.1 330.9C 772.9 328.2 769 326 768.3 326C 767.6 326 765.9 329.7 764.5 334.2z"/>
<path style="stroke:none; fill:#000000" d="M 1071.3 358.1C 1067.1 359.1 1067 359.2 1067 363.4L 1067 367.7L 1057.8 369.4C 1052.7 370.3 1042.7 372.6 1035.5 374.5C 1014.1 380.1 1004.2 384.7 997.7 391.9L 994 396L 994 440.1L 994 484.1L 989.7 486C 981.4 489.7 976.6 490.5 972 489C 967.6 487.5 964.5 488.4 964.5 491.1C 964.5 493.7 997 505.7 1011.8 508.6C 1020 510.2 1023 509.8 1025.7 506.8C 1027.3 505 1027.5 502.6 1027.6 481.6C 1027.6 468.9 1028 448 1028.5 435.2L 1029.3 412L 1038.4 411.9C 1043.4 411.9 1052.7 411.5 1059 411C 1065.3 410.6 1070.6 410.3 1070.7 410.4C 1070.7 410.4 1071.3 421.1 1071.9 434C 1073.2 461.2 1074.3 467.8 1079.8 478.6C 1085.4 489.7 1089.1 502.5 1094.1 527.8L 1096.3 539.1L 1093.3 542.8C 1088.7 548.4 1084.6 550.4 1077 550.6C 1065.5 550.9 1064.5 551 1063.1 551.9C 1061 553.3 1063.4 556.5 1067.8 558.3C 1075.4 561.3 1088.4 563.2 1118.3 565.4L 1125 565.9L 1125 561.1C 1125 558.4 1124.5 553.8 1124 550.9C 1123.4 547.9 1122.7 543 1122.4 540C 1120.4 517.4 1114 478.1 1110.7 468.2C 1108.7 462.1 1108.6 459.7 1108.7 439.5C 1108.9 416.5 1110.1 402.8 1112 402.2C 1116.3 400.7 1122.8 394.9 1125.3 390.3C 1128.3 384.7 1129.8 375 1128.6 368.6C 1128 365.2 1127.6 365 1121.2 363.1C 1104 358 1081.1 355.8 1071.3 358.1z"/>
<path style="stroke:none; fill:#000000" d="M 461.1 363.1C 452.9 364.1 443.6 367.2 434.6 371.7C 426.8 375.6 414 384.6 414 386.2C 414 386.7 415.2 386.2 416.8 385C 445.3 362.8 473.5 358.3 500.5 371.5C 505.5 374 511.7 377.6 514.4 379.7C 522.3 385.9 523 386.3 523 385.4C 523 384.9 520.6 382.7 517.8 380.4C 499.6 366.5 480.2 360.5 461.1 363.1z"/>
<path style="stroke:none; fill:#000000" d="M 532 394.3C 532 403.4 532.2 404.7 534 405.8C 536 407 536 406.8 536 395.5C 536 384.7 535.9 384 534 384C 532.1 384 532 384.7 532 394.3z"/>
<path style="stroke:none; fill:#000000" d="M 400 396C 400 402 400.3 407 400.8 407C 401.2 407 402.3 406.3 403.3 405.6C 404.7 404.5 405 402.6 405 394.6C 405 385 405 385 402.5 385L 400 385L 400 396z"/>
<path style="stroke:none; fill:#000000" d="M 454.2 388.6C 447 390.4 447.1 391.2 454.6 395.6C 458.4 397.8 478.7 405.7 485 407.4L 487.5 408.1L 485 406L 482.5 403.9L 489.9 404.6L 497.3 405.2L 496.6 401L 496 396.9L 502.2 400.2C 507.7 403.1 509 404.4 512.7 410.5C 514.9 414.3 517.8 419 518.9 420.8C 520.6 423.5 521 425.8 521 431.9C 521 437.6 521.4 440.1 522.5 441C 524.4 442.6 527.7 441.4 528.4 438.7C 529.4 435 529.1 406.3 528 403.6C 526.1 398.6 520 401.4 520 407.2L 520 410.2L 515.9 406.5C 509.2 400.5 498.4 394 489.7 390.8C 479.5 387 464.3 386.1 454.2 388.6zM 519.7 414.2C 519.4 415 519.1 414.7 519.1 413.6C 519 412.5 519.3 411.9 519.6 412.3C 519.9 412.6 520 413.5 519.7 414.2z"/>
<path style="stroke:none; fill:#000000" d="M 437.5 395C 426.5 400.8 418.9 407.2 418.4 411.3C 418.2 412.5 417.6 415.7 417.1 418.5L 416.2 423.5L 416.1 417.9C 416.1 414.8 416.5 411.9 417.2 411.2C 418.1 410.3 418.1 410 417.2 410C 416.5 410 416 408.7 416 407.1C 416 403.3 412.6 400.6 409.8 402.1C 408.1 403 408 404.4 408.2 422.3L 408.5 441.5L 411.5 441.5C 414.5 441.5 414.5 441.4 415 435.1L 415.5 428.7L 419.8 427.2C 428 424.5 437.1 412.7 442 398.4C 443.1 395.2 443.8 392.5 443.6 392.3C 443.4 392.1 440.7 393.3 437.5 395z"/>
<path style="stroke:none; fill:#000000" d="M 841 412.5L 841 420L 850.5 420L 860 420L 860 412.5L 860 405L 850.5 405L 841 405L 841 412.5z"/>
<path style="stroke:none; fill:#000000" d="M 901 412.5L 901 420.1L 910.8 419.8L 920.5 419.5L 920.8 412.2L 921.1 405L 911 405L 901 405L 901 412.5z"/>
<path style="stroke:none; fill:#000000" d="M 841 443L 841 453L 850.5 453L 860 453L 860 443L 860 433L 850.5 433L 841 433L 841 443z"/>
<path style="stroke:none; fill:#000000" d="M 901 443L 901 453L 911 453L 921.1 453L 920.8 443.2L 920.5 433.5L 910.8 433.2L 901 432.9L 901 443z"/>
<path style="stroke:none; fill:#000000" d="M 841 468L 841 471L 850.5 471L 860 471L 860 468L 860 465L 850.5 465L 841 465L 841 468z"/>
<path style="stroke:none; fill:#000000" d="M 901 468L 901 471L 911 471L 921 471L 921 468L 921 465L 911 465L 901 465L 901 468z"/>
<path style="stroke:none; fill:#000000" d="M 517.7 467.1C 515.6 467.6 513 468.5 512 469C 508.9 470.6 503.7 490.4 502 506.2C 500.7 519.2 495.9 526.2 483.3 533.6L 479 536.1L 471.2 533.9C 461.4 531.2 449.2 526.4 446.2 524.1C 444.3 522.7 442.9 518.7 439 504.2C 436.3 494.2 433.6 482.4 432.9 478C 432.1 472.8 431.2 470 430.4 470C 429.7 470 413.4 473.3 394.3 477.4C 375.2 481.4 357.7 485.1 355.5 485.5C 349.7 486.5 340.3 491.3 334.3 496.2C 319.9 508.1 312.8 521.7 287.5 586C 277.6 610.9 258 662.6 258 663.5C 258 663.8 260 662.7 262.5 661C 273.8 653.2 286.9 649.9 298.6 651.9C 306.8 653.3 317.8 658.4 323.7 663.4C 325.9 665.4 328.2 667 328.7 667C 329.1 667 332.4 661.6 336 655C 339.6 648.4 342.8 643 343.3 643C 343.7 643 344 651.5 344 662L 344 680.9L 340.4 682.6C 336.9 684.3 332.8 689.4 331.5 693.7L 330.9 696L 459.5 696L 588.2 696L 587.5 693.2C 586.6 689.5 582.5 684.3 578.9 682.5C 577.2 681.6 576 680.2 576 678.9C 576 677.3 576.3 677.1 577.8 677.9C 580.4 679.4 587.6 687.2 589.3 690.4L 590.7 693.3L 592.9 686.7C 594.2 683 595.2 680 595.3 680C 595.4 680 598.7 680.7 602.5 681.5C 611.6 683.4 626 683.4 637.9 681.5C 654.9 678.7 663.1 682.4 669.9 695.7C 677.4 710.6 677.9 747.5 670.9 782.3C 665.4 809.9 662.4 844.7 665.2 848.4C 666.5 850.1 666.7 849.1 666.8 838.9C 666.8 826 669 806.5 672.5 787.9C 677.1 763.6 678.3 752.1 678.4 733.5C 678.4 720.3 677.9 713.6 676.7 708.2C 673.4 693.4 667.1 684 657.8 680C 652.1 677.6 646.7 677.6 629.5 680C 616.7 681.8 596 679.2 596.9 675.9C 597.1 675.1 599.4 667.7 602 659.3C 611.7 628.6 617.6 600.7 618.7 580.5C 619.1 572.1 618.7 566.2 617.1 555.5C 616 547.8 614.6 535.4 614 527.9C 612.9 512.9 611.3 506.3 606.8 497.7C 603 490.6 592.2 480.2 584.9 476.7C 569.3 469.1 531.9 463.8 517.7 467.1zM 466.1 612.5C 472.4 615.8 475 625.7 471.3 632.1C 469.4 635.3 462.8 639 459.1 639C 455.7 639 449.6 635.2 447.6 631.9C 445.4 628.2 445.3 622.2 447.4 618.1C 450.7 611.7 459.5 609.1 466.1 612.5z"/>
<path style="stroke:none; fill:#000000" d="M 712 683.5C 702.7 692.8 700.1 696 701.6 696C 704.1 696 723.3 676.6 724.2 673.2C 724.5 672 724.7 671 724.6 671C 724.5 671 718.9 676.6 712 683.5z"/>
</g>
</g>
</svg>