<?xml version="1.0" encoding="UTF-8" standalone="yes"?>
<!-- Created with sK1/UniConvertor (http://sk1project.org/) -->
<svg xmlns="http://www.w3.org/2000/svg" xmlns:xlink="http://www.w3.org/1999/xlink"
  width="1264pt" height="945pt" viewBox="0 0 1264 945"
  fill-rule="evenodd">
<g>
<g>
<path style="stroke:none; fill:#000000" d="M 356.5 248.3C 353.2 249.4 348.6 250.9 346.3 251.7C 343.9 252.5 340.3 255 337.8 257.6C 335.4 260.1 332 263 330.1 264.2C 326.2 266.6 323.4 272.2 322.5 279.5C 321.5 286.6 323.5 291 328.7 293.4C 331.4 294.6 333.4 296.5 334.7 298.8C 335.9 301.1 337.3 302.5 338.5 302.5C 340.2 302.5 340.5 301.7 340.8 297C 341.1 289.2 341.6 287.7 344.9 284.3C 346.8 282.2 348.2 279.4 349 275.6C 349.8 271.7 350.9 269.4 352.8 268C 355.9 265.5 358.4 265.9 367.7 270.2C 371.3 271.9 375.9 273.3 377.9 273.4L 381.5 273.5L 381.8 268C 382.3 259.8 380.7 255.8 374.9 250.6C 369 245.3 366.4 245 356.5 248.3z"/>
<path style="stroke:none; fill:#000000" d="M 990 269.6C 990 270.2 991.1 274 992.5 278C 1000.1 300.2 999.4 319.8 990.5 340.1C 988.6 344.5 986.1 351.5 985 355.8C 982.9 364.3 981.3 380 982.9 376.5C 983.4 375.4 983.9 373 983.9 371.2C 984.1 364.7 987.2 352.3 991.5 341.5C 997.9 325.5 999.3 318.7 998.7 305.5C 998.1 293.2 997.1 286.8 993.9 277.1C 991.9 270.9 990 267.3 990 269.6z"/>
<path style="stroke:none; fill:#000000" d="M 737 330.1C 730.2 331.4 724.8 335.7 723 341.1C 722.2 343.6 720.7 346.9 719.7 348.4C 718 350.9 718 351.3 719.5 353.6C 721.8 357.2 725.8 357.2 730.3 353.4C 731.9 352.1 733.8 351 734.6 351C 738.3 351 757 362.8 757 365.1C 757 366.6 750.3 366.1 749 364.5C 747.1 362.2 741.8 361.7 737.5 363.4C 732.5 365.5 731.6 365.4 726.8 362.3C 724.1 360.5 721.2 359.5 718.5 359.4L 714.3 359.2L 714.1 365.1C 713.9 370.2 714.2 371.1 716.2 372.3C 720.4 375 724.4 375.3 727.2 373C 730.6 370.4 731.8 370.5 734.1 373.4C 738.1 378.4 746.8 377.6 748.4 372.1C 749 370 749.8 369.1 750.7 369.5C 751.5 369.8 753.7 370 755.6 370C 758.2 370 759 370.4 759 371.8C 759 374.8 760.2 375.2 762.6 372.9C 765.7 370 768.3 371 767.4 374.7C 766.3 379.6 763.4 385.4 760.6 388.3C 757.4 391.8 757.3 393.3 760.5 399.6C 762.7 403.8 764.8 405.7 774.8 412.5C 781.2 416.9 787.7 421.8 789.2 423.3L 791.9 426.2L 798 421.5C 807.6 414.1 811.7 409.2 816.1 400C 820.6 390.6 825.5 376.8 826.5 370.2C 827.2 366.1 827.1 366 824.3 366C 822.8 366 812.3 365.3 801 364.5C 789.7 363.7 779.5 363 778.4 363C 776.4 363 776.3 362.6 776.7 358.6C 777.8 349.4 768 339.1 752 332.2C 746 329.6 742.4 329.1 737 330.1zM 723.9 362.4C 725.4 363.2 727.2 364.6 727.9 365.4C 729.6 367.4 733.7 367.4 737 365.5C 740.2 363.7 745.4 363.6 746.9 365.4C 748.8 367.6 747.1 373 744.2 374.1C 740.1 375.7 735.9 374.2 734.7 370.9C 733.4 367.7 731.6 367.7 726.8 371.3C 724.1 373.3 720 373.1 717.3 370.8C 715.9 369.7 715.5 362.8 716.7 361.7C 717.8 360.6 720.9 360.9 723.9 362.4z"/>
<path style="stroke:none; fill:#000000" d="M 1051 348.6C 1051 349.2 1051.9 352.3 1053.1 355.6C 1054.2 358.8 1056.3 366.4 1057.6 372.5C 1059.9 383 1060.2 379.8 1058.1 368.1C 1056.4 359 1051 344.1 1051 348.6z"/>
<path style="stroke:none; fill:#000000" d="M 365 355.5C 362.2 357.6 360.7 358 357.8 357.7L 354.1 357.2L 355.7 360.3C 359.1 367 358.6 382.9 352.9 445.5C 351.3 463.6 349.3 481.3 348.5 484.7C 346.6 493 341.6 505.6 338.6 510.1C 335.8 514.2 336.9 513.9 314 515.6L 305.5 516.2L 305.3 533.7C 305.2 544.9 304.6 553.9 303.6 558.9C 302.3 565 302.1 573.3 302.2 601C 302.3 630 301.9 641.4 299.6 672.5C 297.9 695 297 715.6 297.1 725C 297.3 736 296.8 744.2 295.4 753.2C 293.6 765.9 293.6 766 295.6 768.6C 296.7 770.1 300.9 773.2 305 775.6C 311 779 314.4 780.2 321.9 781.4C 327.1 782.3 334.8 783 339 783C 347.2 783 350.4 781.6 352 777.6C 352.8 775.4 353.1 775.4 359.7 776.2C 370.4 777.7 376.9 776.8 379.7 773.6C 381 772.1 382 770 382 769C 382 766.5 379.3 764 376.6 764C 372.9 764 360.6 749.8 356.8 741.1C 355.1 737.1 355.1 736.6 356.5 735C 358.3 733 360.3 723.4 362.5 705C 363.4 697.6 366.1 679.6 368.5 665C 375.4 623.5 379.5 604.9 384.5 593.1C 387.3 586.4 390 571 393 545.5C 394.1 535.6 395.8 525.2 396.7 522.4C 398.1 517.7 398.1 516.9 396.6 512.3C 395.7 509.6 394.5 502.5 394 496.6C 393.5 490.7 392.8 485.6 392.6 485.1C 392.3 484.7 390.9 472 389.5 456.9C 388 441.8 385.1 417.2 383 402.1L 379.1 374.8L 374.3 367.9C 371.4 363.6 369.4 359.4 369.1 356.9L 368.5 352.9L 365 355.5zM 326 739.3C 326 741.1 325.8 741.2 325 740C 323.7 738 323.7 735.7 325 736.5C 325.6 736.8 326 738.1 326 739.3z"/>
<path style="stroke:none; fill:#000000" d="M 612.4 415.7C 609.5 420 606.3 425.2 605.1 427.2C 602.6 431.4 597.8 443.2 598.4 443.7C 598.5 443.9 605.4 444.5 613.6 445C 621.8 445.6 633.2 446.5 639 447C 644.8 447.5 665.3 448.4 684.5 449.1C 727.3 450.6 760.1 449.3 779.5 445.3C 782.4 444.7 782.4 444.7 777 442.3C 770.5 439.4 771.7 439.4 718 441.8C 697.9 442.8 681.4 443.2 681.2 442.8C 680.6 441.5 687.2 427.1 690.8 421.8C 694.1 417.2 696.9 414.8 705.6 409.3C 707.1 408.4 697.7 408.1 662.5 408.1L 617.5 408L 612.4 415.7z"/>
<path style="stroke:none; fill:#000000" d="M 1048.3 442.7C 1049.2 442.9 1050.6 442.9 1051.3 442.7C 1051.9 442.4 1051.2 442.2 1049.5 442.2C 1047.9 442.2 1047.3 442.4 1048.3 442.7z"/>
<path style="stroke:none; fill:#000000" d="M 1054.8 443.7C 1055.5 444 1056.4 443.9 1056.7 443.6C 1057.1 443.3 1056.5 443 1055.4 443.1C 1054.3 443.1 1054 443.4 1054.8 443.7z"/>
<path style="stroke:none; fill:#000000" d="M 1058.8 444.7C 1059.5 445 1060.4 444.9 1060.7 444.6C 1061.1 444.3 1060.5 444 1059.4 444.1C 1058.3 444.1 1058 444.4 1058.8 444.7z"/>
<path style="stroke:none; fill:#000000" d="M 1068 448.5C 1080.7 455.4 1088.9 466.6 1093.1 482.7C 1096.1 493.9 1096.7 514.8 1094.6 530.9C 1092.8 544.7 1093 548.4 1095 536.3C 1096.9 524.4 1097.5 499.1 1096 490.2C 1093.6 475.2 1087.4 462.2 1079.3 454.9C 1074.8 450.8 1067.8 446.5 1064 445.5C 1062.6 445.2 1064.4 446.5 1068 448.5z"/>
<path style="stroke:none; fill:#000000" d="M 1000.9 449.2C 992.7 453.2 981.7 464.1 976.3 473.5C 968.5 487 963.7 502.4 959.5 527.6L 957 542.1L 959.9 547.8C 968.3 564.4 982.2 576.3 999.5 581.7C 1008.1 584.3 1035.9 584.3 1044.5 581.7C 1066.3 574.9 1082 558.5 1089.2 534.8C 1091.8 526 1092.7 509.4 1091 500.5C 1086.1 475.3 1066.6 453.5 1043.3 447.5C 1039.5 446.5 1032.6 446 1022.4 446C 1007.5 446 1007.3 446 1000.9 449.2zM 1029 500.5C 1029 501.3 1028.3 502 1027.5 502C 1025.9 502 1025.5 500.8 1026.7 499.7C 1027.8 498.5 1029 498.9 1029 500.5zM 1040.2 504.5C 1040.2 505 1039.7 505.6 1039.1 505.8C 1038.5 506 1038 505.4 1038 504.5C 1038 503.6 1038.5 503 1039.1 503.2C 1039.7 503.4 1040.2 504 1040.2 504.5zM 1033.8 509.4C 1039.1 515 1035.2 524 1027.5 524C 1018.2 524 1015.6 511.2 1024.2 507.6C 1027.9 506 1031.3 506.6 1033.8 509.4zM 1016.8 509.1C 1016.6 509.7 1016 510.1 1015.5 510.1C 1015 510.1 1014.4 509.7 1014.2 509.1C 1014 508.5 1014.6 508 1015.5 508C 1016.4 508 1017 508.5 1016.8 509.1zM 1044.8 516.1C 1044.6 516.7 1044 517.1 1043.5 517.1C 1043 517.1 1042.4 516.7 1042.2 516.1C 1042 515.5 1042.6 515 1043.5 515C 1044.4 515 1045 515.5 1044.8 516.1zM 1017.5 520.9C 1018.2 522.1 1016.3 523.3 1015 522.5C 1013.9 521.8 1014.6 520 1016 520C 1016.5 520 1017.1 520.4 1017.5 520.9zM 1039 527.1C 1039 527.6 1038.3 528 1037.5 528C 1036 528 1035.5 526.8 1036.6 525.7C 1037.4 524.9 1039 525.8 1039 527.1zM 1026.5 530C 1026 530.8 1025.4 530.8 1024.8 530.2C 1024.2 529.6 1024.1 528.6 1024.5 528C 1025 527.2 1025.6 527.2 1026.2 527.8C 1026.8 528.4 1026.9 529.4 1026.5 530z"/>
<path style="stroke:none; fill:#000000" d="M 1022 510C 1019.2 512.8 1019.4 518.1 1022.3 520.8C 1025.3 523.6 1030.3 523.7 1033 521C 1035.6 518.4 1035.7 512 1033.2 509.7C 1030.6 507.3 1024.5 507.5 1022 510z"/>
<path style="stroke:none; fill:#000000" d="M 520 490.4C 544.6 493.3 560 500.7 574.9 516.6C 582.7 525 589.3 537 592.4 548.5C 594.9 558.2 596.2 573.5 595.5 585C 594.9 593.5 595.1 595.3 596.1 594.3C 598.1 592.3 597.8 563.5 595.6 553.6C 591.7 536.1 584.5 522.4 573.3 511.9C 558.6 497.9 540.3 490.4 518.8 489.5L 508.5 489.1L 520 490.4z"/>
<path style="stroke:none; fill:#000000" d="M 502.8 490.7C 504 490.9 505.8 490.9 506.8 490.7C 507.7 490.4 506.7 490.2 504.5 490.3C 502.3 490.3 501.5 490.5 502.8 490.7z"/>
<path style="stroke:none; fill:#000000" d="M 497.8 491.7C 498.5 492 499.4 491.9 499.7 491.6C 500.1 491.3 499.5 491 498.4 491.1C 497.3 491.1 497 491.4 497.8 491.7z"/>
<path style="stroke:none; fill:#000000" d="M 485.6 494.5C 472.9 499 460.3 507.7 447.6 521C 432.7 536.7 419.8 559.1 411.1 584.3L 407 596.2L 408.6 603.8C 412.1 620.8 419.9 635.7 431.8 648.2C 444.8 661.8 460.8 670.4 478 672.9C 488.3 674.5 517.6 673.6 526 671.5C 541.8 667.6 558.7 656.4 569.5 642.8C 580.1 629.3 586 615.3 589.5 595.2C 593 575.3 588.5 553.2 577.1 533.6C 566.2 515 548.1 500.8 527.8 494.9C 522.3 493.4 517 492.7 506.4 492.5C 493.7 492.2 491.6 492.4 485.6 494.5zM 507.5 563C 507.9 563.6 507.6 564.7 507 565.6C 506 566.7 505.4 566.8 504.4 565.9C 503.3 565 503.3 564.4 504.1 563.4C 505.5 561.7 506.6 561.6 507.5 563zM 522.8 569.7C 523.3 571.5 520 572.6 519 570.9C 518.5 570.2 518.4 569.2 518.7 568.7C 519.4 567.5 522.2 568.2 522.8 569.7zM 510.4 573.5C 521.2 578.7 517.6 595 505.6 595C 500.6 595 496.9 592.6 495 588.1C 492.7 582.4 495.2 576.7 501.5 573.2C 504.3 571.6 506.6 571.7 510.4 573.5zM 491.7 574.6C 492.5 576.7 490.4 578.8 488.9 577.3C 487.6 576 488.4 573 490 573C 490.6 573 491.3 573.7 491.7 574.6zM 528.3 583.6C 529.2 584.6 527.9 587 526.5 587C 524.8 587 523.7 585.3 524.5 584C 525.2 582.9 527.3 582.7 528.3 583.6zM 491.9 592.6C 490.4 594.4 489.1 594.4 488.3 592.4C 487.5 590.4 490 588.8 491.7 590.2C 492.7 591 492.7 591.6 491.9 592.6zM 520.3 597.6C 521.2 598.6 519.9 601 518.5 601C 516.8 601 515.7 599.3 516.5 598C 517.2 596.9 519.3 596.7 520.3 597.6zM 504.2 603.2C 502.5 604.9 499.5 602.3 501.2 600.3C 502.2 599.1 502.5 599.1 503.9 600.4C 505 601.6 505.1 602.3 504.2 603.2z"/>
<path style="stroke:none; fill:#000000" d="M 500 575.2C 491.4 581 495 594 505.2 594C 510.2 594 512.6 592.7 514.5 589C 516.8 584.5 516.4 580.5 513.3 577C 509.4 572.8 504.6 572.1 500 575.2z"/>
<path style="stroke:none; fill:#000000" d="M 148.3 535.8C 149.3 536.8 152.9 539.1 156.5 540.8C 169.1 547 187.1 550.7 209 551.6L 222.5 552.2L 230.3 557.1C 239 562.5 241.4 563.5 235.4 559.2C 225.2 551.8 223.7 551.3 206 550.2C 181.1 548.5 164.2 544.5 152.4 537.4C 149.1 535.4 147.3 534.7 148.3 535.8z"/>
<path style="stroke:none; fill:#000000" d="M 245 568.2C 247.4 570.9 249.5 573 249.7 573C 250.5 573 249.7 572.1 245.3 568L 240.5 563.5L 245 568.2z"/>
</g>
</g>
</svg>