<?xml version="1.0" encoding="UTF-8" standalone="yes"?>
<!-- Created with sK1/UniConvertor (http://sk1project.org/) -->
<svg xmlns="http://www.w3.org/2000/svg" xmlns:xlink="http://www.w3.org/1999/xlink"
  width="1040pt" height="855pt" viewBox="0 0 1040 855"
  fill-rule="evenodd">
<g>
<g>
<path style="stroke:none; fill:#000000" d="M 793 82.5C 793 82.8 797.7 92.5 803.5 104L 814 125L 757 125C 705.3 125 700 124.9 700 123.4C 700 122.2 699.5 122.3 698.1 124.1C 697 125.4 696.6 126.6 697.1 126.8C 697.6 127 698 156.9 698 201.3C 698 247.5 698.4 276.1 699 277C 699.7 278.1 700 276.8 700 272.8L 700 267L 735.8 266.7L 771.5 266.5L 735.8 266.2L 700 266L 700 196.5L 700 127L 757.6 127L 815.2 127L 849.1 195.6C 867.7 233.3 883 264.5 883 265.1C 883 265.6 862.9 266.1 833.3 266.3L 783.5 266.5L 834.1 266.8C 861.9 266.9 884.9 266.7 885.3 266.4C 885.6 266 880.1 254.1 872.9 239.9L 860 214L 882.5 214C 896.6 214 905 213.6 905 213C 905 212.4 896.1 211.9 881.8 211.8L 858.6 211.5L 837.9 169.2L 817.1 127L 848.6 127C 869.4 127 879.9 126.7 879.5 126C 879.1 125.4 867.3 125 847.4 125L 816 125L 805.3 103.5C 796.1 85.2 793 79.9 793 82.5z"/>
<path style="stroke:none; fill:#000000" d="M 465.5 248C 456.7 250.3 452 252.3 445.3 256.6C 439.4 260.3 428 271.6 428 273.7C 428 274.5 429.2 275 431.5 275L 435.1 275L 430.9 282.5C 428.6 286.7 427.1 290.4 427.4 290.8C 427.8 291.1 430.1 290.7 432.6 289.8C 435 289 437 288.5 437 288.7C 437 289 434.7 291.9 431.9 295.3C 428.7 299.1 427.2 301.6 427.9 302.3C 428.5 302.9 430.1 301.8 432.4 299.2C 439.4 291.5 444.1 285 443.5 284C 443.1 283.4 441 283.8 437.8 285C 434.9 286.1 432.5 286.8 432.3 286.6C 432.1 286.4 433.5 283.5 435.5 280C 437.4 276.6 439 273.4 439 273C 439 272.5 437.5 272 435.8 271.8L 432.5 271.4L 438.4 265.8C 456.4 248.3 486.4 243.5 508 254.5C 519.4 260.3 525 268.3 525 278.7C 525 283.8 524.5 285.3 522 288.8C 517.5 295 514.5 296.2 499.9 297C 482.8 297.9 477.2 300.9 475.1 310.2C 473.4 317.5 479.1 326.2 486.4 327.6C 490.9 328.4 495 327.4 495 325.5C 495 324.4 493.7 324 489.9 324C 485.4 324 484.4 323.6 481.3 320.5C 478 317.2 477.8 316.6 478.3 312.4C 479.2 303.9 484 301.1 498.8 300.4C 512.1 299.8 516.8 298.6 521.3 294.9C 528.5 289 530.1 274.9 524.6 265.6C 519.9 257.5 508.8 250.3 496.8 247.5C 488.1 245.5 474.1 245.7 465.5 248z"/>
<path style="stroke:none; fill:#000000" d="M 531.1 317.3C 530.5 321.8 529.7 327.2 529.4 329.3C 528.8 333 528.8 333 531.5 332C 535.6 330.5 538 331.6 538 335C 538 338.7 534.8 341 529.8 341C 527 341 526 341.4 526 342.5C 526 343.8 526.8 344 529.8 343.5C 534.5 342.6 538.2 340 539.5 336.6C 540.7 333.1 539.3 330.8 535.1 329.5C 532.2 328.7 531.9 328.2 532.4 325.8C 533.7 319.1 534.2 310.2 533.2 309.6C 532.6 309.3 531.8 312.2 531.1 317.3z"/>
<path style="stroke:none; fill:#000000" d="M 510 312.5C 510 313.7 511.3 314 515.5 314C 519.7 314 521 313.7 521 312.5C 521 311.3 519.7 311 515.5 311C 511.3 311 510 311.3 510 312.5z"/>
<path style="stroke:none; fill:#000000" d="M 468.9 387.4C 456 391.1 445.4 400.6 442 411.7C 440.1 417.9 440 420.8 440 469.1L 440 519.9L 442.2 522C 444.3 523.9 445.5 524 480.7 524C 515.7 524 517.1 523.9 519 522C 520.9 520.1 521 518.7 521 501.4C 521 486.6 521.3 482.5 522.4 481.6C 523.2 481 525.2 477.2 527 473.1L 530.2 465.7L 527.3 463.4L 524.5 461.1L 533.3 452.3C 538.9 446.6 542 442.7 542 441.3C 542 438.8 535.3 430.5 526.1 421.5C 522.7 418.2 520 414.9 520 414C 519.9 410.7 515.9 403.7 511 398.6C 503.5 390.7 494.5 386.8 482.6 386.4C 477 386.2 471.7 386.6 468.9 387.4z"/>
<path style="stroke:none; fill:#000000" d="M 611.4 494.4C 606.4 496.2 604.5 497.5 601.6 501.3C 599.6 503.9 598 506.2 598 506.5C 598 506.8 599.7 506.3 601.8 505.4C 603.8 504.5 609.4 502.4 614.2 500.8C 622.8 497.7 624.5 496.4 623.4 493.5C 622.6 491.4 618.7 491.7 611.4 494.4z"/>
<path style="stroke:none; fill:#000000" d="M 608 515L 608 521L 599.5 521C 594.7 521 591 521.4 591 522C 591 524.4 595.4 543.6 596.1 544.5C 597.5 545.9 597.2 543.3 595 533.4C 593.9 528.5 593 524.2 593 523.7C 593 523.3 596.6 523 601 523L 609 523L 609 516C 609 512.1 608.8 509 608.5 509C 608.2 509 608 511.7 608 515z"/>
<path style="stroke:none; fill:#000000" d="M 430.8 540.4C 423.5 541.6 418 542.9 418 543.6C 418 545.5 422.4 548.9 426.9 550.5C 434.5 553.1 447.1 551.9 457.5 547.4L 461.5 545.7L 457.7 544.8C 453.2 543.9 448.8 541.7 447.1 539.6C 446.3 538.7 445.2 538.1 444.6 538.1C 444 538.2 437.8 539.2 430.8 540.4z"/>
<path style="stroke:none; fill:#000000" d="M 559 552.1C 541.7 552.4 524.4 552.8 520.6 552.9C 515.8 553 513.9 553.3 514.6 554C 515.3 554.7 528.1 554.7 555.2 554C 576.9 553.4 595.4 553.2 596.2 553.5C 597.2 553.9 612.2 586.1 617.8 600C 618 600.4 614.3 603.3 609.7 606.3C 601.1 612.1 590.7 622.2 585 630.5C 580 637.8 574.2 650.9 571.8 660.6C 569.1 671.8 568.8 690.9 571.3 701.2C 578.1 729.3 595 750.6 620.7 763.4C 628.3 767.2 636 769.6 646.4 771.5C 652.3 772.6 631.3 772.8 519 772.8C 400.2 772.8 385.4 772.7 392.5 771.4C 418.9 766.8 440.3 752.6 454.8 730.2C 461.7 719.5 466 707.6 468.5 691.7C 469 688.4 469.4 688 472.1 688C 475 688 475.1 688.2 474.5 691.3C 472.6 701.5 482.9 713.9 493.4 714C 501.1 714 511.1 707.6 512.6 701.6C 512.9 700.2 514.1 698.8 515.2 698.4C 517.8 697.6 519.5 693.7 518.3 691.5C 517.4 690 515.6 689.8 505.7 689.8C 499.4 689.8 493.7 690.1 493.1 690.5C 491.4 691.5 491.8 695.5 493.8 697.3C 495.2 698.6 497.6 699 503.3 699C 512.2 699 512.8 699.9 508 705.4C 502 712.2 493.9 713.8 486 709.7C 472.4 702.9 472.9 684.6 486.7 678C 492.2 675.4 493.4 673.9 489.8 674.3C 487.8 674.5 486.7 671.1 471.8 619.5C 454.8 560.5 455 560.9 454.3 562.6C 454.1 563.2 461.1 588.8 469.9 619.3L 485.9 675L 480.4 680.5C 476.3 684.5 474.1 686 472.1 686L 469.3 686L 468.7 676.2C 467.6 659.9 462.4 644.4 453.7 631.3C 448.5 623.5 434.4 609.4 428.1 605.9C 425.6 604.4 424.2 603 424.5 602.2C 425.3 600.1 450.1 559.7 451.8 557.7C 453 556.3 455 556 462.7 556C 468.2 556 472 555.6 472 555C 472 554.4 468.2 554 462.6 554C 455.1 554 452.8 554.3 451.3 555.7C 450.2 556.7 443.3 567.4 436 579.5C 428.7 591.6 422.6 601.6 422.5 601.7C 422.5 601.8 418.7 600.3 414.1 598.4C 391.7 588.7 363.7 588.7 341.6 598.5C 298.8 617.4 277.3 666.1 292.1 710.5C 303 743 329.2 765.1 364.4 771.5C 370.4 772.6 354.5 772.8 263.8 772.9C 192.6 773 156 773.3 156 774C 156 774.7 280 775 526 775C 772 775 896 774.7 896 774C 896 773.3 857 773 781.3 772.9C 679.3 772.8 667.4 772.7 674.5 771.4C 733.6 761 766.6 700.6 743.3 645.3C 734.4 624.3 714.8 605.5 692.8 597C 671.8 588.9 644.5 589.3 624.7 598C 622 599.2 619.7 600 619.6 599.8C 619.5 599.7 615 589.4 609.6 577C 604.2 564.6 598.9 553.7 597.8 552.7C 596.7 551.8 594.6 551.1 593.1 551.2C 591.7 551.3 576.3 551.7 559 552.1zM 395.9 594.5C 402.5 595.9 416.7 600.9 419.9 602.9C 420.9 603.5 416.7 611.1 401.7 635.6C 384.5 663.7 380.4 671 384 667.4C 384.5 666.9 393.3 652.7 403.6 636C 413.8 619.2 422.4 605.3 422.6 605.1C 423.5 604.1 435.1 612.9 441.7 619.6C 457.4 635.7 467 658.2 467 679L 467 686L 429.5 686C 405.2 686 392 686.4 392 687C 392 687.6 405.2 688 429.5 688C 459.8 688 467 688.3 467 689.3C 467 692.4 464.7 703 462.8 709C 454.4 735 433.6 756.6 408.2 765.5C 358.3 782.9 305.7 754.9 291.7 703.5C 289.9 696.9 289.5 692.9 289.6 681C 289.7 668.3 290 665.4 292.3 657.7C 302.1 625.5 327.5 601.5 359.1 594.6C 367.8 592.7 387.2 592.6 395.9 594.5zM 677.9 594.5C 719.2 603.2 749 639.5 749 681.3C 749 696 746 708.8 739.7 721.5C 729.7 741.7 711.1 758.2 690.2 765.5C 640.3 782.9 587.7 754.9 573.7 703.5C 571.9 696.9 571.5 692.9 571.6 681C 571.7 668.3 572 665.4 574.3 657.7C 579.1 642.1 586.8 629.1 597.6 618.4C 604.9 611.2 617.8 602.3 619 603.6C 619.4 604.1 626.4 619.6 634.5 638C 648.1 669.1 651 675.1 651 672.3C 651 671.7 644.3 655.9 636 637.1C 627.8 618.3 621 602.6 621 602.2C 621 601.1 634.3 596.1 641.4 594.5C 649.8 592.7 669.3 592.7 677.9 594.5z"/>
<path style="stroke:none; fill:#000000" d="M 373.2 677.6C 368.9 680.6 371.2 688 376.4 688C 381.6 688 384 680.5 379.8 677.6C 378.6 676.7 377.1 676 376.5 676C 375.9 676 374.4 676.7 373.2 677.6z"/>
<path style="stroke:none; fill:#000000" d="M 655.2 677.6C 650.9 680.6 653.2 688 658.4 688C 663.6 688 666 680.5 661.8 677.6C 660.6 676.7 659.1 676 658.5 676C 657.9 676 656.4 676.7 655.2 677.6z"/>
<path style="stroke:none; fill:#000000" d="M 599.3 582.5C 598.8 583.3 589.4 593.1 578.4 604.3C 546.5 636.7 519 665.8 519.1 667.2C 519.1 667.9 524 663.3 530 657C 536.1 650.7 541 646.2 541 647.1C 541 650.8 544.2 652 554.3 652C 562.7 652 564.3 651.7 566 650C 568.4 647.6 568.5 646.2 566.4 643.2C 565 641.2 564.1 641 555.4 641L 545.9 641L 573.7 611.9C 589 596 601.7 582.5 601.8 581.9C 602.4 580.4 600.2 580.9 599.3 582.5z"/>
</g>
</g>
</svg>