<?xml version="1.0" encoding="UTF-8" standalone="yes"?>
<!-- Created with sK1/UniConvertor (http://sk1project.org/) -->
<svg xmlns="http://www.w3.org/2000/svg" xmlns:xlink="http://www.w3.org/1999/xlink"
  width="1044pt" height="858pt" viewBox="0 0 1044 858"
  fill-rule="evenodd">
<g>
<g>
<path style="stroke:none; fill:#000000" d="M 547 197.9C 537.5 200.8 531.1 208 529.5 217.7C 528.2 225.9 533.1 234.8 540.8 238.2C 547.9 241.4 563 239.6 559.4 236C 558.6 235.2 557.5 235.2 555.6 236C 544.7 240.1 532.8 232.1 532.8 220.6C 532.8 209.4 541.7 200.7 553.1 200.7C 563 200.7 569 206.3 569 215.7C 569 221.7 566.1 226.3 562.6 225.8C 560.7 225.5 560.5 224.8 560.2 216.7C 559.9 208.8 559.1 206.4 557.6 208.9C 557.2 209.4 555.5 209.4 553.5 208.7C 543.5 205.7 535.9 219 543.2 226.7C 545.8 229.4 551.4 229.8 554.8 227.4C 556.8 226 557.2 226 558.6 227.4C 560.4 229.2 564.2 229.5 567.1 228C 571.9 225.4 573.9 213.6 570.6 207.2C 566.6 199.4 556 195.2 547 197.9zM 553.8 212.6C 558.4 215.8 555.2 226 549.6 226C 543.1 225.9 541.2 217.3 546.7 213C 549.8 210.6 550.9 210.5 553.8 212.6z"/>
<path style="stroke:none; fill:#000000" d="M 664.5 332.2C 650.4 337.2 645.1 355 654 367.7C 656.9 371.7 656.9 371.9 655.5 375.4C 654.7 377.3 654 379.4 654 380C 654 382.3 657 382 661.1 379.3C 664.8 376.9 666.1 376.6 671.1 376.8C 682.3 377.5 692.2 370.3 695.1 359.6C 698 348.9 691.8 336.8 681.3 332.3C 677.5 330.8 668.8 330.7 664.5 332.2zM 683.7 337.3C 695.4 345.4 695.4 362.6 683.7 370.7C 680.2 373.1 678.6 373.5 671.9 373.6C 665.6 373.7 663.5 374.2 661 376L 657.8 378.3L 658.5 375.9C 658.9 374.6 659.6 372.8 660 372C 660.6 371 659.7 369.4 657.5 366.8C 648.6 357 652.1 341 664.5 335.3C 669.4 333.1 679 334.1 683.7 337.3z"/>
<path style="stroke:none; fill:#000000" d="M 660.6 351.6C 659.7 353.8 662.3 356.5 664.5 355.6C 665.5 355.3 666 354.1 665.8 352.8C 665.4 349.9 661.6 349.1 660.6 351.6z"/>
<path style="stroke:none; fill:#000000" d="M 670.7 350.7C 669.4 351.9 670 355.1 671.6 355.7C 673.9 356.6 676.4 353.2 674.9 351.3C 673.7 349.9 671.7 349.6 670.7 350.7z"/>
<path style="stroke:none; fill:#000000" d="M 679.4 351.5C 678.6 353.6 679.6 356 681.3 356C 683.4 356 685.1 353.5 684.4 351.6C 683.6 349.6 680.1 349.5 679.4 351.5z"/>
<path style="stroke:none; fill:#000000" d="M 250.2 379.7C 245.4 382.1 244.8 382.2 241.1 381C 235.8 379.3 229.8 380.2 224.1 383.7C 220.5 386 218.8 388 216 393.4C 213 399.3 212.5 401.2 212.2 409.3C 211.7 420.4 213.4 428 220 444.5L 221.2 447.5L 223 443.5L 224.7 439.5L 225.4 443.7L 226.2 448L 233.1 448L 240 448L 240 444C 240 441.8 240.3 440 240.8 440C 241.2 440 242.5 441.8 243.7 443.9C 246.2 448.2 245.3 448.1 256.8 445.5L 259.1 444.9L 257 442.2L 254.8 439.5L 260 438.8C 266.2 437.8 269.8 436.1 273.9 431.9C 278.3 427.5 280.1 423.6 280.7 417C 281.2 412.1 281.6 411.2 284.1 409.7C 286.7 408.2 287 407.6 287 402.8C 286.9 393.5 281.7 384.6 273.7 380C 266.6 375.9 257.8 375.8 250.2 379.7z"/>
<path style="stroke:none; fill:#000000" d="M 569.2 477.2C 568.5 477.9 568 479.1 568 480C 568 482 558.9 491 556.9 491C 554.8 491 549.4 485 548.6 481.9C 547.5 477 541.5 477 540.4 481.8C 539.6 485.1 529.2 496 527.5 495.4C 525.9 494.7 523 497.7 523 499.9C 523 504.9 530.5 505.1 531.6 500.2C 532.5 496.6 541.8 487 544.5 487C 547.2 487 552.7 492.8 553.2 496C 553.5 498.1 554 498.5 557 498.5C 560 498.5 560.5 498.1 560.8 496C 561.3 492.6 569.8 484 572.7 484C 575.8 484 577.9 479.8 576 477.5C 574.5 475.7 570.9 475.5 569.2 477.2zM 545 483C 545 483.5 544.8 484 544.6 484C 544.3 484 543.8 483.5 543.5 483C 543.2 482.4 543.4 482 543.9 482C 544.5 482 545 482.4 545 483zM 558 495C 558 495.5 557.6 496 557 496C 556.5 496 556 495.5 556 495C 556 494.4 556.5 494 557 494C 557.6 494 558 494.4 558 495zM 528 500C 528 500.5 527.8 501 527.6 501C 527.3 501 526.8 500.5 526.5 500C 526.2 499.4 526.4 499 526.9 499C 527.5 499 528 499.4 528 500z"/>
<path style="stroke:none; fill:#000000" d="M 264.3 497.7L 258.2 498.1L 257.5 505.3C 257.1 509.3 257 516.4 257.2 521.2L 257.5 529.9L 251.2 530.2L 245 530.5L 245 527.3C 245 524.8 244.1 523.4 240.5 520.3C 236.2 516.6 236 516.4 237.2 513.3C 238.3 510.5 238.1 509.8 235.6 506.5C 232.9 503 230.2 501.4 224.9 500.3C 222.3 499.8 222.1 500.2 218 510.5C 214.4 519.9 214 521.6 215 524C 216 526.5 221 530.3 236.2 540.1C 236.7 540.4 235.5 543 233.5 546C 216.6 571 197.9 620.7 181.1 684.6C 173 715.5 167.6 739.5 168.3 741.5C 168.7 742.3 170.1 743.5 171.6 744C 173.4 744.7 174 745.5 173.6 746.6C 173.3 747.5 173 748.8 173 749.6C 173 750.4 172.1 751 171 751C 169.6 751 168.8 752.1 168 755.2C 167.4 757.6 166.5 760.9 166 762.7C 165.3 765.3 165.5 766 166.8 766.4C 182.7 770.9 202.3 775.1 203.1 774.3C 203.8 773.6 203.9 771.6 203.5 768.8C 202.4 762.6 197.3 757.8 189.8 756C 186.6 755.3 184 754.6 184 754.5C 184 752.2 186.6 748 188 748C 189.1 748 190.2 747.4 190.7 746.7C 191.1 746.1 204.5 717.2 220.5 682.6C 236.4 648 250.3 619.2 251.3 618.6C 255.5 616 255.9 617.2 272.1 682.5C 283.4 727.6 288.2 745.5 289.4 746.2C 291.6 747.5 291.8 760 289.5 760C 288.3 760 288 761.5 288 767.5L 288 775L 307.6 775L 327.3 775L 326.6 771.9C 325.1 764.4 318.5 760 308.5 760C 303.1 760 303.1 760 303.5 757.2C 303.7 755.7 304.2 752.8 304.5 750.8C 304.9 748.1 305.6 747.1 307.2 746.8C 308.3 746.6 309.7 745.8 310.2 745C 310.8 744 307.9 707.2 302.1 642.5C 297.1 587 293.2 541.4 293.4 541.2C 293.6 541.1 299 542.2 305.3 543.8C 315.6 546.4 317.3 547.2 320.3 550.4C 323.1 553.3 324.4 554 327.6 554C 337.1 554 341.8 544.1 335.9 536.6C 333.6 533.6 327.9 532.3 324.5 533.8C 322.1 534.9 317.2 533.1 282.5 518.7L 276.5 516.2L 276.9 506.6L 277.2 497L 273.9 497.2C 272 497.3 267.7 497.5 264.3 497.7z"/>
<path style="stroke:none; fill:#000000" d="M 657.2 605.6C 655.1 607.1 655 607.7 655 623.5C 655 637 655.3 640.1 656.6 641.4C 657.9 642.8 661.5 643 679.9 643C 699.7 643 701.8 642.8 703.3 641.2C 704.7 639.6 705 636.9 705 623.7C 705 602.5 707 604 680.2 604C 663 604 659.1 604.3 657.2 605.6zM 700.8 608.2C 702.2 609.6 702.5 636.7 701.2 638.8C 700.5 639.7 695.5 640 679.4 639.8L 658.5 639.5L 658.2 624.6C 658 614.5 658.3 609.3 659.1 608.4C 660.6 606.5 698.9 606.3 700.8 608.2z"/>
<path style="stroke:none; fill:#000000" d="M 662.7 611.7C 661.4 613 662.1 613.8 670.6 620.4C 675.6 624.3 679.8 626.9 680.6 626.6C 682.8 625.8 698 613.8 698 612.9C 698 610.4 695.1 611.6 688.1 617.1C 682.8 621.2 679.7 622.9 678.8 622.4C 678.1 621.9 674.4 619.2 670.6 616.3C 663.1 610.4 663.6 610.7 662.7 611.7z"/>
</g>
</g>
</svg>