<?xml version="1.0" encoding="UTF-8" standalone="yes"?>
<!-- Created with sK1/UniConvertor (http://sk1project.org/) -->
<svg xmlns="http://www.w3.org/2000/svg" xmlns:xlink="http://www.w3.org/1999/xlink"
  width="1217pt" height="1000pt" viewBox="0 0 1217 1000"
  fill-rule="evenodd">
<g>
<g>
<path style="stroke:none; fill:#000000" d="M 362.5 277.4C 352.3 279.1 344.3 281.5 335.8 285.3C 329.2 288.2 329 288.4 329 292C 329 295.5 328.4 296.2 320.3 302.8C 303.8 315.9 289.4 332.3 282.7 345.5C 274.9 361 254.4 436.6 244 488.2C 241.2 502.1 238.8 513.8 238.7 514.2C 238.6 514.7 238.5 505 238.5 492.7C 238.4 474.2 238 468.6 236.2 459C 233.6 444.9 230 432.4 225.3 420.5C 221.5 411 221.3 410.4 220.6 411.1C 220.3 411.4 221.9 416.1 224.2 421.5C 228.9 433.3 233.3 449.9 235.5 464.8C 237.2 475.8 237.7 500.8 236.6 513.5C 236.2 518.2 236.3 519.8 236.9 518.5C 237.7 516.8 237.9 517 237.9 519.9C 238 522.5 237.7 523 236.7 522.2C 234.7 520.5 231.9 539.6 230.9 562C 230.5 572.2 229.6 589.5 229 600.5C 227.8 623.4 228.9 654.9 231.5 669.8C 239.4 714.9 258.6 741.8 287.6 748.6C 297.3 750.8 314.3 750.1 322.4 747.2C 334.1 742.9 346.7 733.7 356.7 721.9C 368.8 707.8 383.4 682.5 393.8 658C 397 650.3 411.5 602.5 416 584.4C 417.3 579.1 420.7 574.1 425 571.2C 428 569.2 429.5 568.9 435.2 569.2C 440.9 569.5 443.4 570.4 453.2 575.2C 466.5 581.9 470.2 583 479.5 583C 492 583 504.8 578.1 516.2 568.9L 522.3 564L 589.7 564L 657.1 564L 663.1 567.1C 671.2 571.2 684.8 575.5 694.2 577C 711.1 579.7 733.2 576.3 743.2 569.5C 747.9 566.3 750.4 566.3 754.6 569.5C 760.7 574.2 765.7 586.6 774.5 618.8C 778.2 632.4 784.9 649.1 795.5 670.5C 825.3 731 858.7 758.5 892.8 750.5C 900.4 748.7 910.9 743.5 917.2 738.4C 921.9 734.6 921.9 734.5 931.3 734.5C 940 734.5 941 734.3 944.9 731.5C 947.3 729.9 951.9 726 955.2 722.8C 960.5 717.7 961.2 716.7 960.6 714.2C 960.2 712.7 959.7 707.6 959.3 702.8C 958.8 695.7 959.1 693.1 960.5 689.4C 962.9 683.1 962.1 674.3 957.6 656.6C 954.4 644.3 954 641.4 954.1 630.6L 954.1 618.5L 956.6 627C 959.8 637.7 962 642.2 967 648.5C 972.6 655.5 984.1 679.1 988.9 693.5C 997.3 718.5 996.8 731.4 987.1 741.8C 983.5 745.7 983.4 746 985.9 749.1C 987.5 751.1 988.7 751.5 993.7 751.4C 996.9 751.4 1002.4 750.4 1006.2 749.1C 1014.3 746.4 1017.6 743 1023.1 731.6C 1027 723.6 1027.8 720.2 1026.1 718.5C 1024.5 716.8 1018 695.9 1015.9 685.6C 1014.4 678.1 1014.1 673.8 1014.5 668.1C 1015.5 656.5 1013.4 647.3 1002.1 616.3C 990.5 584.3 987 552.7 992.1 527.5C 995 513.5 995.3 495.1 992.7 490.5C 989.5 484.6 989.7 484.7 984.9 487.5C 979.2 490.8 964.8 495.4 952.4 497.9C 941 500.2 925.5 502.1 923.7 501.4C 922.1 500.8 919.3 492.9 918.5 486.4C 917.4 478.3 920.2 456.9 924.5 439.8C 925.2 437.2 925.1 437.1 922.2 438.2C 919.6 439.2 918.9 439 915.4 436.2L 911.4 433L 902.8 436.1C 894.5 439.1 894 439.5 890.4 444.9C 885.6 452.2 871.8 465.6 864.7 469.8C 835.3 487.3 801.4 487.5 772.8 470.4C 757.5 461.1 743.4 444.5 737.1 428C 728.3 405.2 729.3 379 740 357.8C 745 347.8 748.2 343.3 756.8 334.7C 772.3 319 790.9 310.6 813.2 309.3C 848.6 307.3 880.6 325.9 896 357.5C 902.3 370.4 904 376.9 904.7 391.1L 905.3 402.7L 912.5 398.6L 919.8 394.5L 917.3 387.5C 911.8 372.3 903.6 356.9 889.7 336C 879.8 321.1 870.2 309.3 861.2 300.9C 855.6 295.7 853.4 292.9 853 290.6C 852.6 288.1 851.5 287 847.5 284.8C 830.4 275.5 809.5 273.9 787 280.1C 776.4 283.1 766 287.9 766 289.9C 765.9 290.8 763.8 293.2 761.2 295.2L 756.5 299L 734.3 299L 712.1 299L 714 303.2C 715.9 307.3 716 310.2 716 357.5C 716 404.1 715.8 407.8 714.1 411.5C 713.1 413.7 711 416.7 709.4 418.2C 702.9 424.3 709.3 424 591.3 424C 484.1 424 483.6 424 479.3 421.9C 474.2 419.4 469.7 414.3 468.1 409.1C 467.4 406.5 467 390.2 467 356.8L 467 308.3L 469.5 303.4C 470.9 300.7 472 298.4 472 298.2C 472 298.1 461.7 298 449.1 298L 426.2 298L 421.2 294.7C 418.3 292.9 416 290.6 415.8 289.5C 415.4 287 403.2 280.7 394.5 278.5C 386 276.3 371.9 275.8 362.5 277.4zM 454.5 307.5C 456.9 309.8 457 310.4 457 324C 457 337.6 456.9 338.2 454.5 340.5C 452.5 342.6 451.1 343 446.6 343C 443.6 343 440.4 342.7 439.5 342.4C 436.1 341.1 435 336.6 435 323.6C 435 311.7 435.1 311 437.6 308.1C 439.9 305.3 440.7 305 446.1 305C 451.1 305 452.5 305.4 454.5 307.5zM 746.5 307.5C 748.9 309.8 749 310.4 749 324C 749 337.6 748.9 338.2 746.5 340.5C 744.5 342.6 743.1 343 738.6 343C 735.6 343 732.4 342.7 731.5 342.4C 728.1 341.1 727 336.6 727 323.6C 727 311.7 727.1 311 729.6 308.1C 731.9 305.3 732.7 305 738.1 305C 743.1 305 744.5 305.4 746.5 307.5zM 378.6 310.1C 406.3 315 429.8 332.5 442 357.5C 449.3 372.4 450.5 377.7 450.5 396C 450.5 414.2 448.8 421.8 441.5 436C 432.7 452.8 419.5 465.7 402.5 474C 389.6 480.3 383.1 482 369.3 482.7C 343.8 484 321.2 475.7 303.6 458.5C 276.5 432 269.3 391.1 286 357.8C 291 347.8 294.2 343.3 302.8 334.7C 315.9 321.4 333.9 312.1 351.5 309.7C 357.7 308.9 372.9 309 378.6 310.1zM 497.4 430C 518.1 435.3 534.6 450.3 541.8 470.3C 544.1 476.6 544.4 479.1 544.5 490.5C 544.5 501.6 544.1 504.6 542.1 510.9C 536.1 529.3 520.3 545.1 501.8 551.1C 495.6 553.1 492.6 553.5 481.5 553.5C 470 553.4 467.7 553.1 461.8 550.8C 452 547.1 444.5 542.3 437.6 535.4C 426.3 524.1 420.3 510.7 419.3 494.5C 416.9 452.3 456.5 419.5 497.4 430zM 715.4 430C 736.1 435.3 752.6 450.3 759.8 470.3C 762.1 476.6 762.4 479.1 762.5 490.5C 762.5 501.6 762.1 504.6 760.1 510.9C 754.1 529.3 738.3 545.1 719.8 551.1C 713.6 553.1 710.6 553.5 699.5 553.5C 688 553.4 685.7 553.1 679.8 550.8C 670 547.1 662.5 542.3 655.6 535.4C 644.3 524.1 638.3 510.7 637.3 494.5C 634.9 452.3 674.5 419.5 715.4 430zM 569 436C 570.3 438.3 568.8 442 566.5 442C 563.5 442 562 440.7 562 438C 562 433.8 567.1 432.4 569 436zM 582.4 434.6C 583.3 435 584 436.4 584 438C 584 442.2 578.9 443.6 577 440C 575 436.2 578.2 433 582.4 434.6zM 594.8 435.2C 595.5 435.9 596 437.4 596 438.7C 596 441.4 591.8 442.9 589.5 441C 586.7 438.7 588.4 434 592 434C 592.9 434 594.1 434.5 594.8 435.2zM 608.8 435.2C 609.5 435.9 610 437.4 610 438.7C 610 441.4 605.8 442.9 603.5 441C 600.7 438.7 602.4 434 606 434C 606.9 434 608.1 434.5 608.8 435.2zM 621 435.5C 622 436.7 622 437.6 621.2 439.5C 619.3 443.7 614 442.1 614 437.4C 614 434 618.7 432.8 621 435.5zM 576 445.9C 577.8 449.5 574.9 452.7 571 451.5C 566.8 450.2 568.1 444 572.5 444C 573.9 444 575.4 444.8 576 445.9zM 587.8 445.2C 588.5 445.9 589 447.4 589 448.7C 589 451.4 584.8 452.9 582.5 451C 579.7 448.7 581.4 444 585 444C 585.9 444 587.1 444.5 587.8 445.2zM 600.8 445.2C 601.5 445.9 602 447.4 602 448.7C 602 451.4 597.8 452.9 595.5 451C 592.7 448.7 594.4 444 598 444C 598.9 444 600.1 444.5 600.8 445.2zM 615 445.5C 616.5 447.3 616 450 613.8 451.4C 610.5 453.4 606.9 449.4 608.4 445.4C 609.1 443.6 613.4 443.6 615 445.5zM 582 454.9C 583.4 457.7 579.9 462 577.4 460.4C 574.4 458.6 573.5 456.4 574.9 454.6C 576.7 452.4 580.7 452.6 582 454.9zM 594.8 454.2C 595.5 454.9 596 456.4 596 457.7C 596 460.4 591.8 461.9 589.5 460C 586.7 457.7 588.4 453 592 453C 592.9 453 594.1 453.5 594.8 454.2zM 608.8 454.2C 612 457.4 607 462.9 603.5 460C 602 458.7 601.5 454.9 602.7 453.7C 603.8 452.6 607.5 452.9 608.8 454.2zM 599.7 481.1C 603.1 482.4 607.7 486.6 609.6 490.2C 611.4 493.7 611.4 502.3 609.6 505.9C 602.6 519.3 583.1 519.2 576.9 505.6C 571.5 493.6 579.8 480.2 592.7 480C 595 480 598.1 480.5 599.7 481.1zM 236.7 528.2C 236.4 528.9 236.2 528.4 236.2 527C 236.2 525.6 236.4 525.1 236.7 525.7C 236.9 526.4 236.9 527.6 236.7 528.2zM 235.7 533.7C 235.4 534.7 235.2 534.1 235.2 532.5C 235.2 530.8 235.4 530.1 235.7 530.7C 235.9 531.4 235.9 532.8 235.7 533.7zM 234.7 540.7C 234.4 541.7 234.2 541.1 234.2 539.5C 234.2 537.8 234.4 537.1 234.7 537.7C 234.9 538.4 234.9 539.8 234.7 540.7zM 233.7 547.7C 233.4 548.7 233.2 548.1 233.2 546.5C 233.2 544.8 233.4 544.1 233.7 544.7C 233.9 545.4 233.9 546.8 233.7 547.7z"/>
<path style="stroke:none; fill:#000000" d="M 355.6 325.5L 346.9 333L 364.2 333L 381.5 332.9L 378.9 330.7C 377.4 329.5 373.5 326.1 370.2 323.2L 364.2 318L 355.6 325.5zM 370.1 330.8C 366.8 331 361.3 331 358 330.8L 352.1 330.5L 358.2 325.4L 364.4 320.2L 370.3 325.4L 376.2 330.5L 370.1 330.8z"/>
<path style="stroke:none; fill:#000000" d="M 349.4 340.4C 347.7 341.7 347.5 343.3 347.2 355.6C 347 363.1 347.1 370.7 347.4 372.4C 348.1 376.3 360.9 388 364.3 388C 365.6 388 369.5 385.2 373.8 381.4L 381 374.8L 381 358.5C 381 338 381.9 339 364 339C 354.7 339 350.9 339.4 349.4 340.4z"/>
<path style="stroke:none; fill:#000000" d="M 293.3 387.8L 286 396.1L 293.3 404.4L 300.5 412.7L 300.8 404.4C 300.9 399.8 300.9 392.3 300.8 387.7L 300.5 379.5L 293.3 387.8zM 299 396.2L 299 408.4L 294 402.9C 291.3 399.9 289.1 397 289 396.3C 289 395.4 297.9 384.1 298.8 384C 298.9 384 299 389.5 299 396.2z"/>
<path style="stroke:none; fill:#000000" d="M 309.4 380.4C 307.7 381.7 307.5 383.1 307.5 396C 307.5 408.9 307.7 410.3 309.4 411.6C 310.9 412.7 315.1 413 327.1 413L 342.8 413L 349.4 405.7C 353.3 401.5 356 397.6 356 396.3C 356 394 345.2 380.7 342.4 379.6C 341.6 379.3 334.2 379 326.1 379C 315 379 310.9 379.3 309.4 380.4z"/>
<path style="stroke:none; fill:#000000" d="M 381.3 383.7C 373.5 392.1 371.7 394.8 372.4 397.2C 372.7 398.5 375.9 402.5 379.4 406.2L 385.7 413L 401.7 413C 422.1 413 421 414 421 395.7C 421 378.2 422 379 401.2 379L 385.8 379L 381.3 383.7z"/>
<path style="stroke:none; fill:#000000" d="M 427 396L 427.1 413.5L 429.8 410.4C 431.3 408.7 434.7 404.7 437.4 401.6L 442.3 396L 436 388.7C 432.5 384.8 429.1 380.8 428.3 380C 427.2 378.8 427 381.5 427 396zM 439.9 396C 439.9 396.3 437.5 399.2 434.5 402.5L 429.1 408.5L 429.1 396L 429 383.5L 434.5 389.5C 437.5 392.8 439.9 395.7 439.9 396z"/>
<path style="stroke:none; fill:#000000" d="M 355.4 410.1C 351.6 413.4 348.2 416.9 347.8 417.8C 347.4 418.7 347.1 426.1 347.1 434.2C 347 453.7 346.3 453 364.3 453C 382 453 381 454.1 381 433.2L 381 417.1L 373.5 410.6C 369.3 407 365.1 404 364.1 404C 363.1 404 359.2 406.7 355.4 410.1z"/>
<path style="stroke:none; fill:#000000" d="M 347.1 459.3C 347.3 459.5 351.2 462.9 355.8 466.9L 364.1 474.2L 372.5 467C 377.2 463 381 459.6 381 459.4C 381 459.2 373.3 459 363.8 459C 354.4 459 346.9 459.2 347.1 459.3zM 370.5 466.5C 367.2 469.4 364 471.5 363.4 471.2C 362.8 470.8 359.9 468.4 356.9 465.7L 351.5 461L 364 461L 376.5 461.1L 370.5 466.5z"/>
<path style="stroke:none; fill:#000000" d="M 472 440.1C 464.5 441.6 455.7 446.5 450.1 452.5C 427 476.9 440.3 516 473.8 522.2C 490.7 525.3 509.7 515.6 517.4 499.8C 529.7 474.7 514.9 445.2 487.5 440.1C 480.8 438.9 478.4 438.9 472 440.1z"/>
<path style="stroke:none; fill:#000000" d="M 690 440.1C 682.5 441.6 673.7 446.5 668.1 452.5C 645 476.9 658.3 516 691.8 522.2C 708.7 525.3 727.7 515.6 735.4 499.8C 747.7 474.7 732.9 445.2 705.5 440.1C 698.8 438.9 696.4 438.9 690 440.1z"/>
<path style="stroke:none; fill:#000000" d="M 940 310.5C 936.4 311.8 931.6 312.9 929.3 313C 925.8 313 924.2 313.7 921 316.6C 916.6 320.6 916.2 321.9 918.6 325.5C 920.4 328.3 924.2 329.7 932.7 330.6C 940.5 331.4 941.5 332.5 940 338.2C 937.4 347.5 939.4 353 945.2 353C 949.2 353 952 354.7 952 357.1C 952 361.2 953.8 363 958 363C 961.8 363 962 362.8 962 360C 962 354.5 964.9 349.7 971.7 343.4C 979.4 336.4 980.2 333.4 975.7 328C 974.1 326.2 973 323.6 973 322C 973 318.2 969.7 314.7 962.6 311C 955.4 307.3 949.3 307.1 940 310.5z"/>
<path style="stroke:none; fill:#000000" d="M 812.2 320.4C 787.4 328.5 791.5 364 817.6 366.7L 823.3 367.3L 822.6 364.4C 822.3 362.8 821.7 359.8 821.4 357.8L 820.7 354.1L 811.9 353.8L 803.1 353.5L 810.6 340.5C 814.8 333.3 818.3 327.4 818.5 327.2C 818.6 327.1 822.4 332.9 827 340.1C 831.5 347.5 834.7 353.6 834.2 353.9C 833.6 354.3 833.9 355.4 835 356.8L 836.8 359L 838.8 356.3C 848.9 341.7 839.4 321.5 821.4 319.6C 818.5 319.3 814.8 319.6 812.2 320.4z"/>
<path style="stroke:none; fill:#000000" d="M 812.6 341.8L 807 351.5L 814 351.8C 818.9 352 821.6 351.6 823.2 350.6C 825.3 349.3 825.9 349.2 828.3 350.5C 829.8 351.2 831 351.7 831 351.5C 831 350.7 819.8 333 819 332.5C 818.6 332.2 815.7 336.4 812.6 341.8z"/>
<path style="stroke:none; fill:#000000" d="M 188 356.9C 188 357.5 191.5 363.3 195.8 369.8C 205.6 384.4 206.9 386.6 213.6 399.3C 216.6 404.9 218.8 408.1 218.4 406.5C 216.9 399.4 188 352.3 188 356.9z"/>
<path style="stroke:none; fill:#000000" d="M 864.7 368.6C 860 370.1 851 377.6 851 380C 851 380.6 852.5 382.3 854.2 383.9L 857.5 386.8L 859.5 383.3C 863.3 376.6 871.9 374.2 879 377.8C 888.6 382.6 889.9 396.2 881.3 403L 878.6 405.1L 881.9 408.3L 885.1 411.5L 889.4 406.9C 896.1 399.5 897.8 390.5 893.9 382C 888.6 370.3 876.6 364.8 864.7 368.6z"/>
<path style="stroke:none; fill:#000000" d="M 761.2 371.4C 741.2 377.9 738.6 404.7 757 415C 760.5 417 762.9 417.5 768 417.5C 789.1 417.4 799.7 392.9 785.2 377.7C 779.3 371.5 769.2 368.8 761.2 371.4zM 782 394L 782 406L 768 406L 754 406L 754 394L 754 382L 768 382L 782 382L 782 394z"/>
<path style="stroke:none; fill:#000000" d="M 757 394L 757 404L 768 404L 779 404L 779 394L 779 384L 768 384L 757 384L 757 394z"/>
<path style="stroke:none; fill:#000000" d="M 867.4 379.4C 864.2 380.8 860 385.4 860 387.5C 860 388.2 863.6 392 868 396C 875.4 402.6 876.3 403.2 878.5 402.2C 883.9 399.7 886.3 391.6 883.5 385.7C 880.6 379.5 873.4 376.7 867.4 379.4z"/>
<path style="stroke:none; fill:#000000" d="M 816.2 421.4C 796.2 427.9 793.6 454.7 812 465C 815.5 467 817.9 467.5 823 467.5C 844.1 467.4 854.7 442.9 840.2 427.7C 834.3 421.5 824.2 418.8 816.2 421.4zM 828.3 437.2C 831.2 434.3 833.9 432 834.3 432C 836.3 432 834.4 435 829.8 439.2L 824.5 443.8L 829.8 449.2C 832.7 452.2 834.7 454.9 834.3 455.3C 833.9 455.7 831.2 453.7 828.3 450.8L 823 445.6L 817.6 450.9C 813.9 454.6 812 455.8 811.5 455C 811 454.2 812.7 452 816.1 449L 821.5 444.2L 816.2 438.8C 813.3 435.8 811.3 433.1 811.7 432.7C 812.1 432.3 814.8 434.3 817.7 437.2L 823 442.4L 828.3 437.2z"/>
</g>
</g>
</svg>