<?xml version="1.0" encoding="UTF-8" standalone="yes"?>
<!-- Created with sK1/UniConvertor (http://sk1project.org/) -->
<svg xmlns="http://www.w3.org/2000/svg" xmlns:xlink="http://www.w3.org/1999/xlink"
  width="949pt" height="939pt" viewBox="0 0 949 939"
  fill-rule="evenodd">
<g>
<g>
<path style="stroke:none; fill:#000000" d="M 270.5 196.1C 263.5 198.1 256.8 206.4 255.4 214.7C 254.2 222.2 258.4 231.3 265 235.8C 268 237.8 268.6 238.8 269 242.8L 269.5 247.4L 284.8 233.1C 301.6 217.2 301.9 216.7 298.1 208.5C 293.3 197.9 281.8 192.8 270.5 196.1z"/>
<path style="stroke:none; fill:#000000" d="M 695.9 199.7C 688.1 203.7 684.7 209 684.2 218C 683.7 226.9 686.3 232.8 692.7 237.3L 697 240.4L 697 247.5L 697 254.6L 701.2 257.7L 705.4 260.7L 710.2 257.2L 715 253.6L 715 246.9C 715 240.3 715 240.3 719 237.5C 730.1 229.8 731 210.4 720.6 202.5C 712.5 196.3 704.5 195.4 695.9 199.7z"/>
<path style="stroke:none; fill:#000000" d="M 485.8 239.4C 473.5 243.9 467.7 255 471.1 267.4C 472.2 271.5 479 279.5 482.1 280.5C 483.8 281.1 484 282.1 484 289.5L 484 297.9L 492.5 298.2L 501 298.5L 501 289.7C 501 284.5 501.4 281 502 281C 502.6 281 505 279.2 507.4 276.9C 512.2 272.6 515 266.2 515 260.1C 515 255.9 511.8 248.5 508.7 245.2C 503.4 239.4 492.7 236.8 485.8 239.4z"/>
<path style="stroke:none; fill:#000000" d="M 174.5 359.4C 167.9 360.2 160.9 361.4 159 362.2C 153.9 364.4 150.5 368.9 148.2 376.7C 145.8 384.4 144.1 386.6 136.6 391.4C 129.9 395.7 127.4 398.9 125.3 405.9C 123.2 413.3 124.5 422 129.5 433.2C 138.9 454.2 140.3 458.3 140.8 466C 141.1 472.5 140.7 475 137.6 484.8C 133.9 496.6 133.2 503.5 135 510.1C 135.6 512.1 136.6 514.3 137.3 514.9C 138.1 515.5 142.3 516.4 146.8 516.9C 156.4 517.9 160.8 520.2 163.3 525.3C 165.1 528.8 165.1 529.3 163.6 533.7C 161.3 540.3 161.5 541.8 164.8 542.4C 171.1 543.5 175.4 541.1 176.4 535.9C 176.7 534.3 177.3 531.6 177.6 530C 177.9 528.3 181.5 522 185.5 515.9C 195 501.6 200.2 489.6 200.4 481.5C 200.5 476.4 199.9 474.1 196.6 467.1C 193.2 459.8 192.7 457.6 192.2 449.6C 191.7 439 193.3 424.3 195.5 419.7C 196.3 417.9 199.5 413.6 202.6 410C 210.4 400.9 212 397.4 212 389.6C 212 382.7 213.7 379.5 216.7 380.7C 218.5 381.4 221 378.6 221 375.8C 221 372.6 215.1 367.3 206.8 363C 197.2 357.9 192.7 357.5 174.5 359.4z"/>
<path style="stroke:none; fill:#000000" d="M 268.8 495.2L 268.5 526.5L 256.8 527.2C 245.9 527.8 234.2 529.4 233.2 530.4C 233 530.7 233.3 533.1 234 535.8C 235.4 541.6 234.2 541.3 257 543.1C 288.9 545.6 334 540.9 334 535C 334 531.9 317.5 528.3 298.2 527.2L 286.5 526.5L 286.2 495.2L 286 464L 277.5 464L 269 464L 268.8 495.2z"/>
<path style="stroke:none; fill:#000000" d="M 697 511.3L 697 528.7L 685.3 529.3C 666.2 530.3 650 533.8 650 537C 650 543 689.6 547.4 723.7 545.2C 748.6 543.6 762 540.7 762 536.9C 762 533.9 746.1 530.4 727.3 529.4L 715 528.7L 715 511.3L 715 494L 706 494L 697 494L 697 511.3z"/>
<path style="stroke:none; fill:#000000" d="M 491.2 508.5L 484 512.1L 484 540.9L 484 569.7L 472.8 570.3C 451.6 571.6 437 574.9 437 578.5C 437 580.5 439.8 581.8 447.7 583.4C 470.3 588.2 514.9 588.1 537 583.4C 545.8 581.5 548 580.5 548 578.4C 548 575 532.9 571.5 512.8 570.4L 501 569.7L 501 537.3C 501 511.3 500.7 505 499.7 505C 499 505 495.1 506.6 491.2 508.5z"/>
<path style="stroke:none; fill:#000000" d="M 182.5 565.8L 173.5 566.1L 164.3 580.4C 157.4 591 154.6 596.2 153.4 601C 150.7 611.7 153 623.5 159.4 631.1C 160.8 632.7 162.4 635.7 163 637.8C 163.6 640 164 653.9 164 671.3L 164 701.1L 159.3 718.8L 154.5 736.5L 154.5 755C 154.5 772.8 154.6 773.8 157.2 780C 158.7 783.6 161.3 793.7 163 802.5C 165.1 813.1 166.7 818.9 167.8 819.8C 170.9 822.1 185.7 820.8 188.6 817.8C 189.7 816.7 189.5 815.2 187.5 808.7C 185.1 801.2 185 799.9 185 774.7C 185.1 745.6 185.8 737.3 188.8 731.5C 189.9 729.3 192 725.2 193.4 722.5C 194.8 719.7 196.6 713.9 197.4 709.5C 199 700.5 206.9 669.9 208 668.7C 209 667.6 220.4 680.1 227.6 690.3L 233.6 698.7L 231.8 709.1C 230.8 714.8 229.7 726.9 229.3 736C 228.8 750.1 229.1 754.5 231 766C 232.2 773.4 233.4 785 233.7 791.7L 234.3 804L 246.7 804C 256.8 804 259 803.7 259 802.5C 259 801.7 258.5 796.7 258 791.3C 257.1 782.9 257.4 776.6 259.9 747C 261.9 724.1 263.5 711 264.6 708C 265.5 705.5 266.5 700.6 266.7 697L 267.2 690.5L 249.1 654.2C 238.6 633.1 230.5 618 229.8 618.2C 229.1 618.5 228.5 621.7 228.3 626.6C 227.9 638.4 224.8 647.5 219.4 652.9C 215.9 656.4 214.7 657.1 213.7 656.1C 211.7 654.1 212.3 645 214.7 640C 219.4 630.3 218.5 609.2 212.7 592.9C 210.8 587.7 208.3 579.3 207 574.2L 204.6 565L 198.1 565.2C 194.5 565.3 187.5 565.6 182.5 565.8z"/>
<path style="stroke:none; fill:#000000" d="M 227.4 568.4C 227.7 569.6 228.4 573.5 229.1 577.2C 229.8 581 230.5 583.9 230.6 583.7C 230.9 583.4 234 568.9 234 567.9C 234 567.5 232.4 567 230.4 566.8C 227.3 566.4 226.9 566.6 227.4 568.4z"/>
</g>
</g>
</svg>