<?xml version="1.0" encoding="UTF-8" standalone="yes"?>
<!-- Created with sK1/UniConvertor (http://sk1project.org/) -->
<svg xmlns="http://www.w3.org/2000/svg" xmlns:xlink="http://www.w3.org/1999/xlink"
  width="1384pt" height="797pt" viewBox="0 0 1384 797"
  fill-rule="evenodd">
<g>
<g>
<path style="stroke:none; fill:#000000" d="M 638.4 96C 636.6 96.4 633.7 97.6 631.9 98.8C 630 99.9 625 101.3 620.5 102C 606.3 104 591.7 108 583 112.2C 571.3 117.8 561.2 128 555.3 140C 550 150.8 543.8 168.9 541 181.6C 537.6 197.6 537.4 208.7 540.4 229.3C 543 247.4 543.4 253.7 542.4 260.1C 541.8 263.4 541.2 264 534.1 267.4C 485.5 291.5 450.8 339.6 442.5 394.5C 440.9 405.6 440.4 442.1 441.9 440.5C 444.3 437.9 455.6 413.7 461 399.5C 471.7 371.5 479 358.2 492.6 341.9C 502 330.6 517.9 316.5 519.4 318.1C 519.7 318.3 519.4 323.7 518.7 329.9C 517.4 343.6 518.6 356 522.1 364.1C 523.4 367.1 526.7 373.5 529.5 378.5C 535.7 389.5 538.4 395.7 540.4 403.5C 542 409.9 544 426.2 544 433L 544 437.1L 520.7 436.9C 493.7 436.6 492.2 436.9 488.3 445C 486.4 449.1 486.1 452.2 485.1 477.8L 483.9 506.2L 480.1 511.8C 478 515 473.3 522.7 469.5 529C 462.5 540.8 460.7 546.7 463.1 549.6C 465 551.9 470.7 554.5 476.9 556L 482.3 557.3L 481.6 566.4C 481.3 571.4 480.7 584.8 480.4 596.2C 480 607.7 479.6 617 479.5 617C 478.6 617 434.1 608.8 428.2 607.5C 422.3 606.3 413 606 380.6 606L 340.3 606L 337.9 603.4C 334.4 599.5 326.3 596 320.9 596L 316.3 596L 316.4 585.3C 316.5 576 316.7 574.5 318.1 574.5C 319 574.5 321 573.9 322.6 573.1C 332 568.6 331.9 568.7 330.9 566.9C 330.4 565.9 330 564 330 562.6C 330 559.4 329.4 559.4 323.9 562.3C 315.7 566.6 316 566.7 316.4 559.7C 316.6 556.3 316.5 552.9 316.3 552.2C 316 551.6 314.1 551 312 551C 307.5 551 306.9 552 307.4 559.7C 307.7 564.6 307.5 565 305.4 565C 304.2 565 303 564.7 302.8 564.2C 302.4 563.4 296.2 560 295 560C 294.6 560 294 561.2 293.8 562.8C 293.5 564.3 293 566.2 292.6 567.1C 292 568.4 293.1 569.4 297.5 571.5C 300.6 573 304.1 574.3 305.3 574.4C 307.4 574.5 307.5 574.9 307.5 585.2L 307.5 595.8L 304.3 596.3C 299.9 597.1 295.1 599.5 291.1 603L 287.7 606L 265.5 606C 240.6 606 237.1 606.6 230.2 612.6C 227.9 614.5 224.9 618.6 223.3 621.8L 220.5 627.5L 220.2 654.6L 219.9 681.7L 226.5 685.9C 248.5 699.8 275.7 709.7 305.5 714.7C 316 716.4 333.9 716.5 712 716.5C 1092.5 716.5 1107.9 716.4 1118 714.6C 1131.2 712.3 1142.9 708.9 1154.5 704.1L 1163.5 700.4L 1163.8 690.1C 1164.1 677.8 1162.5 671.2 1157.8 665.2C 1156 663 1141.1 649.4 1124.8 635.2C 1101.6 614.9 1094 608.9 1090.4 607.6C 1086.7 606.4 1081.5 606 1067 606C 1056.7 606 1048.1 605.8 1047.9 605.5C 1047.6 605.3 1049.1 591 1051.1 573.8C 1055.7 535.4 1055.6 538.6 1052.7 540.5C 1048.2 543.4 1034.4 547.8 1026 549.1C 1010.1 551.4 986.6 548.1 972.3 541.5C 969.3 540.1 966.5 539 966.1 539C 965.7 539 967.6 553.5 970.2 571.2C 972.8 589 975 604.1 975 604.7C 975 605.7 965.9 606 932.6 606C 909.2 606 889.9 605.7 889.7 605.2C 889.5 604.8 892.2 573 895.6 534.5C 899.1 496 901.9 461.3 901.9 457.5C 902 444.8 897.6 441 881.8 440.2L 872 439.7L 872 422.1C 872 395.8 868.6 377.4 859.8 355.2C 848.7 327.4 827.7 300.5 802.9 282.2L 793.2 275.1L 792.5 266.3C 792.1 261.5 791.2 252.3 790.4 246C 789.1 235.1 789.1 233.9 791.1 223.8C 792.3 217.9 793 212.5 792.7 211.7C 792.4 210.9 790.6 210 788.7 209.6C 786.8 209.2 784.8 208.4 784.3 207.7C 783.8 207.1 782.1 202.3 780.7 197.2C 768.4 155.2 746.8 132.6 694.5 107C 683.5 101.5 678.2 100 660.7 97.0001C 648.3 94.9001 643.6 94.7 638.4 96zM 667.5 215.9C 688.2 226.2 702.2 236.8 710.5 248.4C 719 260.4 719 257 711 297.9C 707.2 317.7 704 334.5 704 335.2C 704 336 700.2 343.4 695.7 351.8C 686.8 367.8 682.2 378.5 678.7 390.9C 676.9 397.4 676.6 401.2 676.5 418.3L 676.5 438L 655.5 438L 634.4 438L 634.4 425.7C 634.3 412.4 632.6 403.9 625.5 380.5C 618.9 358.6 614.1 338 610.8 317C 608.8 303.8 609.1 263.9 611.3 252.5C 615 234 619.7 223.3 627.4 216.2C 632.7 211.3 634.9 210.1 640.3 209.2C 648 207.8 654.7 209.5 667.5 215.9zM 761.8 231.5C 762.3 242.4 754.9 249.4 754.2 238.8C 753.8 232.7 757.1 224.7 759.7 225.2C 761.2 225.5 761.6 226.7 761.8 231.5zM 735.5 258.5C 741.3 259.5 757.7 264.8 763.2 267.6C 768.8 270.4 772.2 275.1 780.2 290.8C 784 298.2 786.5 304.8 787.6 310C 788.6 314.7 789.8 318 790.6 318C 791.2 318 792.1 319.9 792.4 322.2C 792.8 324.6 793.8 327.6 794.6 329C 795.9 331.3 796 330.4 795.4 320.2C 795 313.9 795.1 309 795.6 309C 798 309 826.8 318.4 831 320.5C 837.3 323.7 841.6 329.1 843 335.4C 844.8 344 845.3 364.7 844.1 381.2C 843 395.7 837.6 438.8 836.8 439.4C 836.7 439.5 818.3 439.4 796 439.1L 755.6 438.5L 751.4 419C 749.1 408.3 745.3 392.1 743 383C 740.7 373.9 738 362.2 736.9 357C 734.6 346.1 732.7 327 733.6 323.6C 734.1 321.5 734.4 321.4 740.3 322.1C 750.7 323.4 758 323.7 758 322.9C 758 322.5 756 321.4 753.5 320.4C 749.8 319 747 318.8 738.6 319.3C 727.2 319.9 724 318.9 724 314.6C 724 312.3 727 308.9 730.5 307.5C 731.6 307 739.7 306.4 748.5 306.1L 764.5 305.5L 760.3 301.5C 754.9 296.1 748.1 292.6 734.2 287.6C 722.1 283.3 719.6 281.4 722 278.4C 723.3 277 724.7 276.8 733 277.4C 738.2 277.7 744.3 278.3 746.5 278.6C 749.8 279 748.4 278 738 272.6C 731.1 269 724.4 264.8 723.1 263.3L 720.8 260.6L 723 258.8C 724.5 257.6 726.3 257.1 728.4 257.4C 730.1 257.7 733.3 258.2 735.5 258.5zM 701.8 530.7C 711.5 538.1 711.3 556.1 701.5 563.6C 693.6 569.6 682.3 566.2 677.9 556.6C 674 547.9 676.4 535.8 683.1 530.7C 685 529.3 687.4 528 688.5 527.7C 692.2 526.7 698.4 528.1 701.8 530.7zM 1024.1 573.6C 1032.6 578.3 1037 585.8 1037 595.7C 1037 614.7 1017.2 626.9 1000.2 618.4C 984.7 610.7 981.4 590.9 993.4 578.2C 1001.4 569.6 1013.5 567.9 1024.1 573.6z"/>
<path style="stroke:none; fill:#000000" d="M 996.9 506C 987.5 507.2 978.4 509.9 976.4 512.2C 974.7 514 974.7 514.2 977.1 516.5C 978.4 517.8 982.2 519.6 985.5 520.5C 1003 525.2 1040.7 522.4 1046.5 516C 1048.3 514 1048.3 513.9 1046.3 511.9C 1041.6 507.2 1013.5 503.8 996.9 506z"/>
<path style="stroke:none; fill:#000000" d="M 971 515.5C 971 516.6 975.5 520 976.9 520C 978 519.9 977.7 519.2 975.7 517.5C 973.1 515.2 971 514.3 971 515.5z"/>
</g>
</g>
</svg>